<svg width="44" height="44" viewBox="0 0 44 44" fill="none" xmlns="http://www.w3.org/2000/svg">
<circle cx="22" cy="22" r="22" transform="rotate(-180 22 22)" fill="#F4F4F4"/>
<path d="M17.7748 31.4519C17.4826 31.1597 17.3185 30.7634 17.3185 30.3502C17.3185 29.937 17.4826 29.5407 17.7748 29.2485L25.4885 21.5347L17.7748 13.821C17.4909 13.5271 17.3338 13.1334 17.3374 12.7248C17.3409 12.3162 17.5048 11.9254 17.7937 11.6365C18.0827 11.3475 18.4735 11.1836 18.8821 11.1801C19.2907 11.1765 19.6843 11.3336 19.9782 11.6175L28.7937 20.433C29.0859 20.7252 29.25 21.1215 29.25 21.5347C29.25 21.9479 29.0859 22.3442 28.7937 22.6365L19.9782 31.4519C19.686 31.7441 19.2897 31.9082 18.8765 31.9082C18.4633 31.9082 18.067 31.7441 17.7748 31.4519Z" fill="#D9D9D9"/>
</svg>
