<svg width="44" height="44" viewBox="0 0 44 44" fill="none" xmlns="http://www.w3.org/2000/svg">
<circle cx="22" cy="22" r="22" transform="rotate(-180 22 22)" fill="#E2E1E6"/>
<path d="M26.2252 31.4519C26.5174 31.1597 26.6815 30.7634 26.6815 30.3502C26.6815 29.937 26.5174 29.5407 26.2252 29.2485L18.5115 21.5347L26.2252 13.821C26.5091 13.5271 26.6662 13.1334 26.6626 12.7248C26.6591 12.3162 26.4952 11.9254 26.2063 11.6365C25.9173 11.3475 25.5265 11.1836 25.1179 11.1801C24.7093 11.1765 24.3157 11.3336 24.0218 11.6175L15.2063 20.433C14.9141 20.7252 14.75 21.1215 14.75 21.5347C14.75 21.9479 14.9141 22.3442 15.2063 22.6365L24.0218 31.4519C24.314 31.7441 24.7103 31.9082 25.1235 31.9082C25.5367 31.9082 25.933 31.7441 26.2252 31.4519Z" fill="#8A8A8A"/>
</svg>
