<svg width="44" height="44" viewBox="0 0 44 44" fill="none" xmlns="http://www.w3.org/2000/svg">
<circle cx="22" cy="22" r="22" fill="#F4F4F4"/>
<path d="M26.2252 12.5481C26.5174 12.8403 26.6815 13.2366 26.6815 13.6498C26.6815 14.063 26.5174 14.4593 26.2252 14.7515L18.5115 22.4653L26.2252 30.179C26.5091 30.4729 26.6662 30.8666 26.6626 31.2752C26.6591 31.6838 26.4952 32.0746 26.2063 32.3635C25.9173 32.6525 25.5265 32.8164 25.1179 32.8199C24.7093 32.8235 24.3157 32.6664 24.0218 32.3825L15.2063 23.567C14.9141 23.2748 14.75 22.8785 14.75 22.4653C14.75 22.0521 14.9141 21.6558 15.2063 21.3635L24.0218 12.5481C24.314 12.2559 24.7103 12.0918 25.1235 12.0918C25.5367 12.0918 25.933 12.2559 26.2252 12.5481Z" fill="#D9D9D9"/>
</svg>
