<svg width="32" height="32" viewBox="0 0 32 32" fill="none" xmlns="http://www.w3.org/2000/svg">
<path opacity="0.99" d="M13.7512 21.46C13.5759 21.4601 13.4023 21.4257 13.2403 21.3586C13.0783 21.2916 12.9312 21.1933 12.8072 21.0693L9.05788 17.3186C8.815 17.0672 8.68061 16.7303 8.68364 16.3808C8.68668 16.0312 8.82691 15.6967 9.07412 15.4495C9.32133 15.2023 9.65575 15.0621 10.0053 15.0591C10.3549 15.056 10.6917 15.1904 10.9432 15.4333L13.7499 18.2413L21.0579 10.9346C21.3103 10.6976 21.6451 10.568 21.9913 10.5734C22.3376 10.5788 22.6681 10.7187 22.9131 10.9634C23.158 11.2082 23.2981 11.5387 23.3038 11.8849C23.3094 12.2312 23.1801 12.566 22.9432 12.8186L14.6925 21.0693C14.4426 21.3194 14.1048 21.4599 13.7512 21.46Z" fill="white"/>
<path opacity="0.8" d="M15.9954 2.66895C13.3584 2.66895 10.7805 3.45093 8.58785 4.91602C6.39519 6.3811 4.68622 8.46348 3.67705 10.8998C2.66789 13.3362 2.40384 16.0171 2.91831 18.6035C3.43278 21.1899 4.70266 23.5657 6.56736 25.4304C8.43206 27.2951 10.8078 28.5649 13.3942 29.0794C15.9807 29.5939 18.6615 29.3298 21.0979 28.3207C23.5342 27.3115 25.6166 25.6025 27.0817 23.4099C28.5468 21.2172 29.3288 18.6394 29.3288 16.0023C29.3253 12.4671 27.9194 9.07781 25.4196 6.57809C22.9199 4.07837 19.5306 2.67248 15.9954 2.66895ZM22.9381 12.8196L14.6874 21.0703C14.4374 21.3202 14.0983 21.4607 13.7448 21.4607C13.3912 21.4607 13.0522 21.3202 12.8021 21.0703L9.05278 17.3196C8.8099 17.0681 8.67551 16.7313 8.67855 16.3817C8.68159 16.0321 8.82181 15.6977 9.06902 15.4505C9.31623 15.2033 9.65065 15.0631 10.0002 15.06C10.3498 15.057 10.6866 15.1914 10.9381 15.4343L13.7448 18.2423L21.0528 10.9356C21.3052 10.6986 21.64 10.569 21.9862 10.5744C22.3325 10.5798 22.663 10.7196 22.908 10.9644C23.1529 11.2092 23.293 11.5397 23.2987 11.8859C23.3043 12.2322 23.175 12.567 22.9381 12.8196Z" fill="#32CD8B"/>
</svg>
