<svg width="645" height="270" viewBox="0 0 645 270" fill="none" xmlns="http://www.w3.org/2000/svg">
<g opacity="0.1" clip-path="url(#clip0_7745_1123)">
<path d="M167.609 70.0673C167.214 64.2326 165.325 58.5533 161.806 52.9949C158.303 47.4364 153.582 42.4303 147.642 37.9594C141.702 33.4884 134.697 29.9669 126.611 27.1186C118.525 24.2704 109.752 22.9239 100.173 22.9239C90.5929 22.9239 81.4252 24.0114 73.2017 25.9103C64.9782 27.8091 57.9565 30.7955 52.0336 34.5932C46.0934 38.3909 41.3722 42.8619 37.7326 48.1441C34.2304 53.4264 32.0672 59.2611 31.535 65.6309C31.0028 72.0007 31.947 78.0943 34.2304 84.067C36.651 90.0398 40.5653 95.3221 45.9561 100.19C51.4842 105.075 58.2312 109.132 66.592 112.533C74.8155 115.916 84.3953 118.229 95.3141 119.576L112.036 121.872C139.676 125.669 160.175 133.8 173.806 145.866C187.3 158.071 194.03 172.847 194.03 190.455C194.03 200.346 191.609 209.426 186.751 217.971C181.892 226.516 175.145 233.835 166.785 239.929C158.286 246.16 148.586 250.907 137.393 254.567C126.337 258.089 114.336 259.849 101.649 259.849C88.9619 259.849 76.8413 258.227 65.3731 255.102C53.9049 251.857 43.7929 247.248 35.0201 241.137C26.2472 235.043 19.38 227.586 14.3841 218.644C9.38826 209.702 7.24226 199.673 7.77446 188.28H25.0455C24.6334 197.912 26.6593 206.44 31.1229 213.5C35.5695 220.681 41.3722 226.516 48.5141 231.263C55.656 235.872 63.8967 239.393 73.3391 241.568C82.6441 243.744 92.0865 244.952 101.666 244.952C112.585 244.952 122.577 243.588 131.745 240.757C140.912 237.909 148.741 234.249 155.488 229.502C162.235 224.755 167.488 219.335 171.128 212.965C174.905 206.733 176.793 200.225 176.793 193.441C176.793 186.657 175.849 180.563 174.098 174.608C172.347 168.635 168.982 163.215 163.986 158.347C159.128 153.462 152.518 149.267 144.157 145.607C135.796 141.948 124.998 139.099 111.795 136.942L95.606 134.646C66.6092 130.451 45.5612 122.303 32.2217 110.513C19.0023 98.5847 12.942 83.8081 14.0236 66.0452C14.5558 57.3622 17.131 49.5079 21.7149 42.3267C26.1614 35.1456 32.2389 29.0348 39.7928 23.8906C47.3467 18.7464 56.2397 14.8106 66.3689 11.9623C76.4808 9.11404 87.6743 7.76758 99.8121 7.76758C111.95 7.76758 123.006 9.39024 133.393 12.6528C143.642 15.8981 152.415 20.3863 159.831 25.9275C167.248 31.486 173.051 37.9939 177.36 45.5893C181.669 53.0466 183.97 61.1772 184.365 69.8602H167.094L167.626 70.1364L167.609 70.0673Z" fill="#212121"/>
<path d="M175.698 69.5326C175.166 62.4896 172.866 55.4293 168.694 48.8006C164.78 42.4308 159.252 36.5961 152.505 31.452C145.895 26.5667 138.066 22.5101 129.311 19.3856C120.418 16.2611 110.563 14.7765 100.176 14.7765C89.7898 14.7765 80.0727 15.8641 71.317 18.0219C62.424 20.1969 54.458 23.4422 47.8484 27.7751C40.964 32.1079 35.4359 37.5283 31.2641 43.7773C26.9549 50.2851 24.3797 57.3282 23.7102 65.0617C23.0406 72.6571 24.1222 80.1144 27.0751 87.2956C29.9078 94.3386 34.629 100.708 41.1013 106.405C47.1788 111.825 54.8529 116.434 64.0206 120.094C72.9137 123.754 83.3003 126.326 94.9059 127.689L111.49 129.985C137.38 133.645 156.676 140.964 168.951 152.081C180.815 162.646 186.48 175.264 186.48 190.576C186.48 198.983 184.454 206.699 180.282 214.018C175.973 221.476 170.033 227.983 162.479 233.542C154.788 239.239 145.62 243.709 135.371 246.955C125.122 250.2 113.928 251.961 102.202 251.961C90.4765 251.961 78.8709 250.476 68.0723 247.49C57.5483 244.504 48.1059 240.309 40.1571 234.75C32.4658 229.468 26.4055 222.684 22.0792 214.968C17.77 207.372 16.0017 198.845 16.5511 188.936L8.46497 196.67H25.7188L17.6327 188.263C17.2207 199.518 19.6585 209.547 24.9119 218.075C29.9078 226.205 36.6377 233.128 44.8783 238.41C52.8271 243.554 62.012 247.352 72.1239 249.803C82.0985 252.116 92.2277 253.325 102.34 253.325C114.065 253.325 125.001 251.84 134.839 248.716C144.676 245.729 153.449 241.534 160.865 236.252C168.557 230.832 174.617 224.462 178.806 217.281C183.252 209.685 185.553 201.831 185.553 193.562C185.553 186.243 184.471 179.062 182.445 172.416C180.282 165.097 176.111 158.589 170.308 152.754C164.78 147.196 157.226 142.449 148.058 138.392C139.028 134.456 127.834 131.349 113.67 129.174L97.3437 126.878C70.0981 122.942 50.2691 115.485 38.2686 104.644C26.9377 94.4767 21.8217 82.0133 22.8861 66.8224C23.4183 59.5032 25.4441 52.9953 29.2211 46.9017C33.1354 40.8081 38.3888 35.3878 44.9985 30.9168C51.8828 26.3078 59.969 22.6482 69.274 20.0761C78.7164 17.504 89.2404 16.1403 100.571 16.1403C111.902 16.1403 122.289 17.6248 131.594 20.6112C140.899 23.5976 148.985 27.6542 155.732 32.6776C162.204 37.5628 167.338 43.3802 171.115 49.8881C174.754 56.2579 176.78 63.042 177.055 70.4821L185.141 61.9372H167.87L175.956 69.5326H175.681H175.698ZM192.969 69.8088C192.557 59.9175 189.725 50.4232 184.883 41.8784C180.025 33.4716 173.415 26.0143 165.192 19.7826C157.106 13.689 147.388 8.80378 136.332 5.28227C125.276 1.76076 113.276 0 100.331 0C87.3863 0 75.6434 1.48456 64.8619 4.47094C53.943 7.45732 44.0886 11.7902 35.8651 17.4867C27.3669 23.1833 20.4826 30.2263 15.3665 38.2188C10.1131 46.4874 7.14303 55.7055 6.47348 65.7349C5.11721 86.0699 12.1389 103.142 27.2468 116.831C41.8224 129.985 63.9348 138.513 94.82 142.984L111.009 145.28C123.422 147.317 133.671 150.027 141.362 153.41C148.779 156.673 154.582 160.453 158.754 164.527C162.668 168.463 165.363 172.658 166.702 177.267C168.316 182.411 169.123 187.969 169.123 193.666C169.123 198.948 167.647 203.972 164.677 208.978C161.569 214.26 156.985 219.007 151.32 222.943C145.38 227.138 138.101 230.538 129.877 233.11C121.516 235.682 112.211 236.908 102.099 236.908C93.2062 236.908 84.296 235.821 75.6605 233.784C67.2997 231.747 59.7458 228.639 53.4108 224.566C47.2132 220.63 42.2173 215.486 38.4403 209.392C34.8007 203.557 33.3071 196.79 33.5818 188.798L33.9938 180.391H0.516185L0.104153 188.125C-0.565399 201.002 1.99263 212.793 7.79542 222.96C13.3235 232.851 21.0148 241.258 30.7147 248.042C40.1571 254.688 51.2133 259.694 63.4884 263.095C75.6262 266.478 88.5709 268.101 101.928 268.101C115.284 268.101 128.229 266.202 140.092 262.405C151.955 258.607 162.616 253.325 171.784 246.541C181.089 239.756 188.643 231.488 194.034 222.011C199.562 212.258 202.395 201.676 202.395 190.421C202.395 170.5 194.703 153.41 179.338 139.721C164.642 126.567 142.393 117.764 113.258 113.69L96.5368 111.394C86.2875 110.168 77.2572 107.872 69.7032 104.886C62.2867 101.899 56.2092 98.2399 51.3678 94.0451C46.9213 90.1093 43.5392 85.6384 41.6507 81.0293C39.7622 76.2822 39.0927 71.5351 39.4876 66.529C39.8824 61.5229 41.5134 57.0347 44.3461 52.84C47.3162 48.5071 51.2305 44.7094 56.2092 41.5849C61.3424 38.3396 67.6774 35.7503 74.9566 33.8687C82.5106 31.9698 90.8714 31.0204 99.9017 31.0204C108.932 31.0204 116.623 32.246 123.765 34.8181C131.044 37.2521 137.379 40.6528 142.65 44.4332C147.783 48.2309 151.818 52.5638 154.651 57.1728C157.346 61.6438 158.822 65.9766 159.234 70.4648L159.767 78.0602H193.072L192.66 69.5154L192.935 69.7916L192.969 69.8088Z" fill="#212121"/>
<path d="M355.082 142.725V135.803C355.082 117.919 350.224 105.041 340.644 97.1697C331.064 89.3153 315.956 85.5176 295.2 85.5176C285.62 85.5176 277.26 86.7432 269.98 89.1772C262.839 91.6112 256.898 94.8738 252.177 98.9304C247.456 102.987 243.954 107.596 241.653 112.896C239.37 118.178 238.151 123.598 238.151 129.433V134.042H221.429V126.447C221.429 119.542 223.043 112.619 226.013 105.973C229.121 99.3274 233.704 93.3719 240.039 87.9516C246.237 82.6693 254.066 78.4573 263.233 75.212C272.401 71.9494 283.062 70.4648 295.2 70.4648C321.09 70.4648 340.386 75.7471 352.919 86.4498C365.469 97.0143 371.804 112.602 371.804 133.075V256.691H355.082V229.451C353.606 232.713 350.773 236.097 346.721 239.756C342.67 243.278 337.691 246.661 331.888 249.786C326.085 252.91 319.338 255.344 311.785 257.243C304.231 259.142 296.282 260.091 288.041 260.091C277.242 260.091 267.543 259.004 258.632 257.105C249.86 255.068 242.185 251.961 235.833 247.611C229.498 243.416 224.502 238.117 221 232.023C217.498 225.791 215.609 218.472 215.609 210.065C215.609 192.717 222.494 179.304 236.383 169.948C250.272 160.591 270.238 154.084 296.539 150.7L354.928 142.846L355.065 142.708L355.082 142.725ZM296.677 165.494C286.702 166.858 277.792 168.618 269.843 170.638C262.014 172.675 255.285 175.385 249.757 178.907C244.228 182.428 239.902 186.64 236.949 191.646C233.979 196.67 232.503 202.763 232.503 209.944C232.503 221.596 237.361 230.418 246.941 236.235C256.521 242.19 270.272 245.039 288.076 245.039C295.904 245.039 303.853 243.951 311.819 241.793C319.785 239.618 326.927 236.511 333.399 232.299C339.871 228.104 345.005 222.943 349.039 216.849C353.091 210.756 355.117 203.834 355.117 196.117V157.484L296.711 165.339V165.477L296.677 165.494Z" fill="#212121"/>
<path d="M363.308 142.725V135.802C363.308 115.329 357.505 100.294 345.916 90.7996C334.723 81.7196 318.139 77.2486 295.34 77.2486C284.953 77.2486 275.51 78.5951 267.562 81.3053C259.338 84.0155 252.454 87.8132 247.063 92.5603C241.398 97.4456 237.209 103.125 234.376 109.374C231.681 115.606 230.204 122.252 230.204 129.156V133.765L238.29 125.635H221.569L229.655 133.765V126.17C229.655 120.473 231.011 114.777 233.569 109.218C236.127 103.66 240.179 98.5158 245.432 94.0449C250.823 89.4358 257.845 85.6381 266.068 82.7898C274.429 79.9416 284.283 78.457 295.34 78.457C319.203 78.457 336.886 83.2041 347.805 92.5603C358.586 101.64 363.72 114.794 363.72 132.954V256.57L371.806 248.439H355.084L363.17 256.57V229.33L347.805 225.808C347.135 227.293 345.384 229.882 341.47 233.404C337.968 236.528 333.504 239.497 328.251 242.207C322.997 244.918 316.782 247.214 309.915 248.992C303.031 250.752 295.752 251.564 288.198 251.564C278.086 251.564 268.918 250.614 260.694 248.715C252.866 246.955 246.136 244.106 240.608 240.447C235.354 236.925 231.166 232.592 228.333 227.431C225.5 222.546 224.161 216.452 224.161 209.53C224.161 194.891 229.826 183.913 241.295 176.179C253.965 167.513 273.124 161.541 297.932 158.295L356.32 150.441L363.342 149.491V142.31V142.725H363.308ZM295.614 142.466C268.231 146.125 246.788 153.03 231.955 163.06C215.903 174.038 207.68 189.764 207.68 209.961C207.68 219.853 209.843 228.674 214.152 236.114C218.324 243.433 224.127 249.527 231.543 254.412C238.685 259.159 247.183 262.819 257.038 264.976C266.48 267.151 276.867 268.222 288.198 268.222C297.091 268.222 305.726 267.134 313.967 265.097C322.19 263.06 329.469 260.35 335.942 256.967C342.277 253.583 347.805 249.924 352.389 245.85C357.385 241.517 360.75 237.305 362.775 232.972L347.393 229.451V264.821H380.304V133.075C380.304 110.168 373.025 92.405 358.586 80.2178C344.56 68.4276 323.392 62.334 295.597 62.334C282.652 62.334 271.047 64.0947 261.072 67.6163C250.96 71.1378 242.325 75.8849 235.32 81.8404C228.178 87.934 222.77 94.8562 219.268 102.572C215.766 110.306 213.877 118.298 213.877 126.429V142.155H246.788V129.415C246.788 124.668 247.733 120.335 249.621 116.141C251.372 112.067 254.205 108.286 257.982 105.024C261.896 101.64 267.012 98.9301 273.09 96.8932C279.425 94.7181 286.979 93.6478 295.752 93.6478C314.499 93.6478 328.113 97.0313 336.079 103.539C343.633 109.633 347.41 120.612 347.41 135.802V142.725L354.432 134.732L296.026 142.587L295.614 142.448V142.466Z" fill="#212121"/>
<path d="M295.613 157.363C285.364 158.727 276.059 160.487 267.973 162.645C259.337 164.82 251.783 167.927 245.585 171.863C238.976 176.058 233.722 181.219 230.083 187.451C226.306 193.683 224.555 201.278 224.555 209.961C224.555 224.323 230.89 235.855 242.77 243.174C253.826 249.958 268.659 253.203 288.214 253.203C296.712 253.203 305.485 251.978 314.103 249.682C322.876 247.369 330.962 243.847 337.966 239.238C345.246 234.491 351.461 228.535 356.044 221.475C360.903 214.018 363.461 205.473 363.461 196.255V148.266L354.293 149.491L295.905 157.346H295.63L295.613 157.363ZM346.997 157.639V196.272C346.997 202.504 345.52 207.786 342.276 212.533C338.911 217.677 334.447 222.028 328.919 225.549C323.254 229.209 316.781 232.057 309.639 233.956C302.36 235.855 295.081 236.942 287.922 236.942C271.732 236.942 259.2 234.37 250.976 229.209C243.834 224.738 240.452 218.644 240.452 209.823C240.452 204.127 241.534 199.379 243.817 195.72C246.101 191.784 249.483 188.539 253.929 185.69C258.788 182.704 264.848 180.27 271.87 178.371C279.424 176.472 288.059 174.712 297.759 173.486L356.165 165.632L346.997 157.639Z" fill="#212121"/>
<path d="M418.886 256.311H402.164V73.4688H418.886V94.2008C428.465 89.1947 438.989 84.4476 450.44 80.0975C461.909 75.7646 473.634 73.5896 485.635 73.5896C495.472 73.5896 503.85 75.4884 510.855 79.148C517.859 82.8077 522.992 88.6423 526.237 96.7729C535.405 89.868 545.379 84.1714 556.178 79.9594C566.96 75.7646 578.033 73.5896 589.347 73.5896C596.231 73.5896 602.703 74.6771 608.506 76.7141C614.309 78.8891 619.425 82.1344 623.614 86.6054C627.786 91.0763 631.168 96.6348 633.589 103.419C636.009 110.203 637.228 118.195 637.228 127.414V256.449H620.507V127.552C620.507 114.674 617.674 104.921 611.871 98.2747C606.068 91.6287 598.652 88.2453 589.484 88.2453C578.565 88.2453 568.041 90.2823 557.929 94.3389C547.817 98.3955 538.512 103.833 529.877 110.462C530.014 112.223 530.289 113.983 530.409 115.744C530.546 117.643 530.684 119.542 530.684 121.717V256.449H513.962V121.717C513.962 99.345 504.52 88.228 485.772 88.228C473.085 88.228 461.222 90.4031 450.028 94.874C438.835 99.345 428.586 104.489 418.869 110.6V256.449V256.311H418.886Z" fill="#212121"/>
<path d="M418.88 248.18H402.158L410.244 256.31V73.4676L402.158 81.5981H418.88L410.793 73.4676V107.63L422.657 101.398C431.962 96.5128 442.211 91.9037 453.267 87.709C463.654 83.7732 474.573 81.7362 485.629 81.7362C493.99 81.7362 501.269 83.2208 507.072 86.3453C512.325 89.0554 516.102 93.5264 518.677 99.7581L522.591 109.511L530.952 103.141C539.588 96.6336 549.03 91.3513 559.005 87.4155C568.722 83.6178 578.834 81.5808 589.083 81.5808C595.023 81.5808 600.551 82.5303 605.53 84.291C610.251 85.9137 614.166 88.4858 617.531 92.1454C620.895 95.6669 623.728 100.414 625.754 105.973C627.78 111.807 628.861 118.988 628.861 127.257V256.293L636.948 248.162H620.226L628.312 256.293V127.395C628.312 112.48 624.672 100.828 617.651 92.6978C610.371 84.1529 600.654 79.9582 589.066 79.9582C577.478 79.9582 565.46 82.2713 554.541 86.6042C543.76 90.937 533.768 96.7717 524.463 103.953L520.961 106.801L521.493 111.272L522.025 116.554C522.162 118.177 522.3 119.938 522.3 121.698V256.431L530.386 248.3H513.664L521.75 256.431V121.698C521.75 85.3786 498.951 80.079 485.474 80.079C471.997 80.079 458.778 82.513 446.76 87.3983C435.155 92.0073 424.373 97.5658 414.399 103.797L410.622 106.231V256.552L418.708 248.421L418.845 248.145L418.88 248.18ZM423.189 117.383C432.356 111.686 442.331 106.68 452.992 102.347C463.104 98.2735 474.161 96.2538 485.629 96.2538C495.603 96.2538 505.715 99.2402 505.715 121.595V264.458H538.626V121.595C538.626 119.299 538.626 116.986 538.232 114.811L537.699 109.39L534.592 116.71C542.558 110.478 551.314 105.455 560.619 101.657C569.649 97.9973 579.229 96.2366 589.203 96.2366C596.088 96.2366 601.341 98.5497 605.53 103.418C609.977 108.562 612.14 116.572 612.14 127.412V264.441H645.051V127.274C645.051 117.107 643.712 108.165 640.999 100.569C638.166 92.715 634.252 86.2072 629.256 80.9249C624.14 75.6426 618.063 71.5687 611.058 68.9966C604.311 66.5626 597.032 65.337 589.203 65.337C576.928 65.337 564.79 67.6329 553.202 72.2419C541.734 76.7129 531.09 82.8065 521.373 90.143L533.785 93.5264C529.733 83.6351 523.398 76.3158 514.626 71.7068C506.539 67.5121 496.685 65.337 485.629 65.337C472.547 65.337 459.739 67.771 447.464 72.38C435.859 76.851 424.94 81.7362 415.103 86.8804L426.966 94.0615V65.1816H394.055V264.303H426.966V110.323L423.189 117.245V117.383Z" fill="#212121"/>
<path d="M167.609 70.0673C167.214 64.2326 165.325 58.5533 161.806 52.9949C158.303 47.4364 153.582 42.4303 147.642 37.9594C141.702 33.4884 134.697 29.9669 126.611 27.1186C118.525 24.2704 109.752 22.9239 100.173 22.9239C90.5929 22.9239 81.4252 24.0114 73.2017 25.9103C64.9782 27.8091 57.9565 30.7955 52.0336 34.5932C46.0934 38.3909 41.3722 42.8619 37.7326 48.1441C34.2304 53.4264 32.0672 59.2611 31.535 65.6309C31.0028 72.0007 31.947 78.0943 34.2304 84.067C36.651 90.0398 40.5653 95.3221 45.9561 100.19C51.4842 105.075 58.2312 109.132 66.592 112.533C74.8155 115.916 84.3953 118.229 95.3141 119.576L112.036 121.872C139.676 125.669 160.175 133.8 173.806 145.866C187.3 158.071 194.03 172.847 194.03 190.455C194.03 200.346 191.609 209.426 186.751 217.971C181.892 226.516 175.145 233.835 166.785 239.929C158.286 246.16 148.586 250.907 137.393 254.567C126.337 258.089 114.336 259.849 101.649 259.849C88.9619 259.849 76.8413 258.227 65.3731 255.102C53.9049 251.857 43.7929 247.248 35.0201 241.137C26.2472 235.043 19.38 227.586 14.3841 218.644C9.38826 209.702 7.24226 199.673 7.77446 188.28H25.0455C24.6334 197.912 26.6593 206.44 31.1229 213.5C35.5695 220.681 41.3722 226.516 48.5141 231.263C55.656 235.872 63.8967 239.393 73.3391 241.568C82.6441 243.744 92.0865 244.952 101.666 244.952C112.585 244.952 122.577 243.588 131.745 240.757C140.912 237.909 148.741 234.249 155.488 229.502C162.235 224.755 167.488 219.335 171.128 212.965C174.905 206.733 176.793 200.225 176.793 193.441C176.793 186.657 175.849 180.563 174.098 174.608C172.347 168.635 168.982 163.215 163.986 158.347C159.128 153.462 152.518 149.267 144.157 145.607C135.796 141.948 124.998 139.099 111.795 136.942L95.606 134.646C66.6092 130.451 45.5612 122.303 32.2217 110.513C19.0023 98.5847 12.942 83.8081 14.0236 66.0452C14.5558 57.3622 17.131 49.5079 21.7149 42.3267C26.1614 35.1456 32.2389 29.0348 39.7928 23.8906C47.3467 18.7464 56.2397 14.8106 66.3689 11.9623C76.4808 9.11404 87.6743 7.76758 99.8121 7.76758C111.95 7.76758 123.006 9.39024 133.393 12.6528C143.642 15.8981 152.415 20.3863 159.831 25.9275C167.248 31.486 173.051 37.9939 177.36 45.5893C181.669 53.0466 183.97 61.1772 184.365 69.8602H167.094L167.626 70.1364L167.609 70.0673Z" fill="#212121"/>
<path d="M175.698 69.5326C175.166 62.4896 172.866 55.4293 168.694 48.8006C164.78 42.4308 159.252 36.5961 152.505 31.452C145.895 26.5667 138.066 22.5101 129.311 19.3856C120.418 16.2611 110.563 14.7765 100.176 14.7765C89.7898 14.7765 80.0727 15.8641 71.317 18.0219C62.424 20.1969 54.458 23.4422 47.8484 27.7751C40.964 32.1079 35.4359 37.5283 31.2641 43.7773C26.9549 50.2851 24.3797 57.3282 23.7102 65.0617C23.0406 72.6571 24.1222 80.1144 27.0751 87.2956C29.9078 94.3386 34.629 100.708 41.1013 106.405C47.1788 111.825 54.8529 116.434 64.0206 120.094C72.9137 123.754 83.3003 126.326 94.9059 127.689L111.49 129.985C137.38 133.645 156.676 140.964 168.951 152.081C180.815 162.646 186.48 175.264 186.48 190.576C186.48 198.983 184.454 206.699 180.282 214.018C175.973 221.476 170.033 227.983 162.479 233.542C154.788 239.239 145.62 243.709 135.371 246.955C125.122 250.2 113.928 251.961 102.202 251.961C90.4765 251.961 78.8709 250.476 68.0723 247.49C57.5483 244.504 48.1059 240.309 40.1571 234.75C32.4658 229.468 26.4055 222.684 22.0792 214.968C17.77 207.372 16.0017 198.845 16.5511 188.936L8.46497 196.67H25.7188L17.6327 188.263C17.2207 199.518 19.6585 209.547 24.9119 218.075C29.9078 226.205 36.6377 233.128 44.8783 238.41C52.8271 243.554 62.012 247.352 72.1239 249.803C82.0985 252.116 92.2277 253.325 102.34 253.325C114.065 253.325 125.001 251.84 134.839 248.716C144.676 245.729 153.449 241.534 160.865 236.252C168.557 230.832 174.617 224.462 178.806 217.281C183.252 209.685 185.553 201.831 185.553 193.562C185.553 186.243 184.471 179.062 182.445 172.416C180.282 165.097 176.111 158.589 170.308 152.754C164.78 147.196 157.226 142.449 148.058 138.392C139.028 134.456 127.834 131.349 113.67 129.174L97.3437 126.878C70.0981 122.942 50.2691 115.485 38.2686 104.644C26.9377 94.4767 21.8217 82.0133 22.8861 66.8224C23.4183 59.5032 25.4441 52.9953 29.2211 46.9017C33.1354 40.8081 38.3888 35.3878 44.9985 30.9168C51.8828 26.3078 59.969 22.6482 69.274 20.0761C78.7164 17.504 89.2404 16.1403 100.571 16.1403C111.902 16.1403 122.289 17.6248 131.594 20.6112C140.899 23.5976 148.985 27.6542 155.732 32.6776C162.204 37.5628 167.338 43.3802 171.115 49.8881C174.754 56.2579 176.78 63.042 177.055 70.4821L185.141 61.9372H167.87L175.956 69.5326H175.681H175.698ZM192.969 69.8088C192.557 59.9175 189.725 50.4232 184.883 41.8784C180.025 33.4716 173.415 26.0143 165.192 19.7826C157.106 13.689 147.388 8.80378 136.332 5.28227C125.276 1.76076 113.276 0 100.331 0C87.3863 0 75.6434 1.48456 64.8619 4.47094C53.943 7.45732 44.0886 11.7902 35.8651 17.4867C27.3669 23.1833 20.4826 30.2263 15.3665 38.2188C10.1131 46.4874 7.14303 55.7055 6.47348 65.7349C5.11721 86.0699 12.1389 103.142 27.2468 116.831C41.8224 129.985 63.9348 138.513 94.82 142.984L111.009 145.28C123.422 147.317 133.671 150.027 141.362 153.41C148.779 156.673 154.582 160.453 158.754 164.527C162.668 168.463 165.363 172.658 166.702 177.267C168.316 182.411 169.123 187.969 169.123 193.666C169.123 198.948 167.647 203.972 164.677 208.978C161.569 214.26 156.985 219.007 151.32 222.943C145.38 227.138 138.101 230.538 129.877 233.11C121.516 235.682 112.211 236.908 102.099 236.908C93.2062 236.908 84.296 235.821 75.6605 233.784C67.2997 231.747 59.7458 228.639 53.4108 224.566C47.2132 220.63 42.2173 215.486 38.4403 209.392C34.8007 203.557 33.3071 196.79 33.5818 188.798L33.9938 180.391H0.516185L0.104153 188.125C-0.565399 201.002 1.99263 212.793 7.79542 222.96C13.3235 232.851 21.0148 241.258 30.7147 248.042C40.1571 254.688 51.2133 259.694 63.4884 263.095C75.6262 266.478 88.5709 268.101 101.928 268.101C115.284 268.101 128.229 266.202 140.092 262.405C151.955 258.607 162.616 253.325 171.784 246.541C181.089 239.756 188.643 231.488 194.034 222.011C199.562 212.258 202.395 201.676 202.395 190.421C202.395 170.5 194.703 153.41 179.338 139.721C164.642 126.567 142.393 117.764 113.258 113.69L96.5368 111.394C86.2875 110.168 77.2572 107.872 69.7032 104.886C62.2867 101.899 56.2092 98.2399 51.3678 94.0451C46.9213 90.1093 43.5392 85.6384 41.6507 81.0293C39.7622 76.2822 39.0927 71.5351 39.4876 66.529C39.8824 61.5229 41.5134 57.0347 44.3461 52.84C47.3162 48.5071 51.2305 44.7094 56.2092 41.5849C61.3424 38.3396 67.6774 35.7503 74.9566 33.8687C82.5106 31.9698 90.8714 31.0204 99.9017 31.0204C108.932 31.0204 116.623 32.246 123.765 34.8181C131.044 37.2521 137.379 40.6528 142.65 44.4332C147.783 48.2309 151.818 52.5638 154.651 57.1728C157.346 61.6438 158.822 65.9766 159.234 70.4648L159.767 78.0602H193.072L192.66 69.5154L192.935 69.7916L192.969 69.8088Z" fill="#212121"/>
<path d="M355.082 142.725V135.803C355.082 117.919 350.224 105.041 340.644 97.1697C331.064 89.3153 315.956 85.5176 295.2 85.5176C285.62 85.5176 277.26 86.7432 269.98 89.1772C262.839 91.6112 256.898 94.8738 252.177 98.9304C247.456 102.987 243.954 107.596 241.653 112.896C239.37 118.178 238.151 123.598 238.151 129.433V134.042H221.429V126.447C221.429 119.542 223.043 112.619 226.013 105.973C229.121 99.3274 233.704 93.3719 240.039 87.9516C246.237 82.6693 254.066 78.4573 263.233 75.212C272.401 71.9494 283.062 70.4648 295.2 70.4648C321.09 70.4648 340.386 75.7471 352.919 86.4498C365.469 97.0143 371.804 112.602 371.804 133.075V256.691H355.082V229.451C353.606 232.713 350.773 236.097 346.721 239.756C342.67 243.278 337.691 246.661 331.888 249.786C326.085 252.91 319.338 255.344 311.785 257.243C304.231 259.142 296.282 260.091 288.041 260.091C277.242 260.091 267.543 259.004 258.632 257.105C249.86 255.068 242.185 251.961 235.833 247.611C229.498 243.416 224.502 238.117 221 232.023C217.498 225.791 215.609 218.472 215.609 210.065C215.609 192.717 222.494 179.304 236.383 169.948C250.272 160.591 270.238 154.084 296.539 150.7L354.928 142.846L355.065 142.708L355.082 142.725ZM296.677 165.494C286.702 166.858 277.792 168.618 269.843 170.638C262.014 172.675 255.285 175.385 249.757 178.907C244.228 182.428 239.902 186.64 236.949 191.646C233.979 196.67 232.503 202.763 232.503 209.944C232.503 221.596 237.361 230.418 246.941 236.235C256.521 242.19 270.272 245.039 288.076 245.039C295.904 245.039 303.853 243.951 311.819 241.793C319.785 239.618 326.927 236.511 333.399 232.299C339.871 228.104 345.005 222.943 349.039 216.849C353.091 210.756 355.117 203.834 355.117 196.117V157.484L296.711 165.339V165.477L296.677 165.494Z" fill="#212121"/>
<path d="M363.308 142.725V135.802C363.308 115.329 357.505 100.294 345.916 90.7996C334.723 81.7196 318.139 77.2486 295.34 77.2486C284.953 77.2486 275.51 78.5951 267.562 81.3053C259.338 84.0155 252.454 87.8132 247.063 92.5603C241.398 97.4456 237.209 103.125 234.376 109.374C231.681 115.606 230.204 122.252 230.204 129.156V133.765L238.29 125.635H221.569L229.655 133.765V126.17C229.655 120.473 231.011 114.777 233.569 109.218C236.127 103.66 240.179 98.5158 245.432 94.0449C250.823 89.4358 257.845 85.6381 266.068 82.7898C274.429 79.9416 284.283 78.457 295.34 78.457C319.203 78.457 336.886 83.2041 347.805 92.5603C358.586 101.64 363.72 114.794 363.72 132.954V256.57L371.806 248.439H355.084L363.17 256.57V229.33L347.805 225.808C347.135 227.293 345.384 229.882 341.47 233.404C337.968 236.528 333.504 239.497 328.251 242.207C322.997 244.918 316.782 247.214 309.915 248.992C303.031 250.752 295.752 251.564 288.198 251.564C278.086 251.564 268.918 250.614 260.694 248.715C252.866 246.955 246.136 244.106 240.608 240.447C235.354 236.925 231.166 232.592 228.333 227.431C225.5 222.546 224.161 216.452 224.161 209.53C224.161 194.891 229.826 183.913 241.295 176.179C253.965 167.513 273.124 161.541 297.932 158.295L356.32 150.441L363.342 149.491V142.31V142.725H363.308ZM295.614 142.466C268.231 146.125 246.788 153.03 231.955 163.06C215.903 174.038 207.68 189.764 207.68 209.961C207.68 219.853 209.843 228.674 214.152 236.114C218.324 243.433 224.127 249.527 231.543 254.412C238.685 259.159 247.183 262.819 257.038 264.976C266.48 267.151 276.867 268.222 288.198 268.222C297.091 268.222 305.726 267.134 313.967 265.097C322.19 263.06 329.469 260.35 335.942 256.967C342.277 253.583 347.805 249.924 352.389 245.85C357.385 241.517 360.75 237.305 362.775 232.972L347.393 229.451V264.821H380.304V133.075C380.304 110.168 373.025 92.405 358.586 80.2178C344.56 68.4276 323.392 62.334 295.597 62.334C282.652 62.334 271.047 64.0947 261.072 67.6163C250.96 71.1378 242.325 75.8849 235.32 81.8404C228.178 87.934 222.77 94.8562 219.268 102.572C215.766 110.306 213.877 118.298 213.877 126.429V142.155H246.788V129.415C246.788 124.668 247.733 120.335 249.621 116.141C251.372 112.067 254.205 108.286 257.982 105.024C261.896 101.64 267.012 98.9301 273.09 96.8932C279.425 94.7181 286.979 93.6478 295.752 93.6478C314.499 93.6478 328.113 97.0313 336.079 103.539C343.633 109.633 347.41 120.612 347.41 135.802V142.725L354.432 134.732L296.026 142.587L295.614 142.448V142.466Z" fill="#212121"/>
<path d="M295.613 157.363C285.364 158.727 276.059 160.487 267.973 162.645C259.337 164.82 251.783 167.927 245.585 171.863C238.976 176.058 233.722 181.219 230.083 187.451C226.306 193.683 224.555 201.278 224.555 209.961C224.555 224.323 230.89 235.855 242.77 243.174C253.826 249.958 268.659 253.203 288.214 253.203C296.712 253.203 305.485 251.978 314.103 249.682C322.876 247.369 330.962 243.847 337.966 239.238C345.246 234.491 351.461 228.535 356.044 221.475C360.903 214.018 363.461 205.473 363.461 196.255V148.266L354.293 149.491L295.905 157.346H295.63L295.613 157.363ZM346.997 157.639V196.272C346.997 202.504 345.52 207.786 342.276 212.533C338.911 217.677 334.447 222.028 328.919 225.549C323.254 229.209 316.781 232.057 309.639 233.956C302.36 235.855 295.081 236.942 287.922 236.942C271.732 236.942 259.2 234.37 250.976 229.209C243.834 224.738 240.452 218.644 240.452 209.823C240.452 204.127 241.534 199.379 243.817 195.72C246.101 191.784 249.483 188.539 253.929 185.69C258.788 182.704 264.848 180.27 271.87 178.371C279.424 176.472 288.059 174.712 297.759 173.486L356.165 165.632L346.997 157.639Z" fill="#212121"/>
<path d="M418.886 256.311H402.164V73.4688H418.886V94.2008C428.465 89.1947 438.989 84.4476 450.44 80.0975C461.909 75.7646 473.634 73.5896 485.635 73.5896C495.472 73.5896 503.85 75.4884 510.855 79.148C517.859 82.8077 522.992 88.6423 526.237 96.7729C535.405 89.868 545.379 84.1714 556.178 79.9594C566.96 75.7646 578.033 73.5896 589.347 73.5896C596.231 73.5896 602.703 74.6771 608.506 76.7141C614.309 78.8891 619.425 82.1344 623.614 86.6054C627.786 91.0763 631.168 96.6348 633.589 103.419C636.009 110.203 637.228 118.195 637.228 127.414V256.449H620.507V127.552C620.507 114.674 617.674 104.921 611.871 98.2747C606.068 91.6287 598.652 88.2453 589.484 88.2453C578.565 88.2453 568.041 90.2823 557.929 94.3389C547.817 98.3955 538.512 103.833 529.877 110.462C530.014 112.223 530.289 113.983 530.409 115.744C530.546 117.643 530.684 119.542 530.684 121.717V256.449H513.962V121.717C513.962 99.345 504.52 88.228 485.772 88.228C473.085 88.228 461.222 90.4031 450.028 94.874C438.835 99.345 428.586 104.489 418.869 110.6V256.449V256.311H418.886Z" fill="#212121"/>
<path d="M418.88 248.18H402.158L410.244 256.31V73.4676L402.158 81.5981H418.88L410.793 73.4676V107.63L422.657 101.398C431.962 96.5128 442.211 91.9037 453.267 87.709C463.654 83.7732 474.573 81.7362 485.629 81.7362C493.99 81.7362 501.269 83.2208 507.072 86.3453C512.325 89.0554 516.102 93.5264 518.677 99.7581L522.591 109.511L530.952 103.141C539.588 96.6336 549.03 91.3513 559.005 87.4155C568.722 83.6178 578.834 81.5808 589.083 81.5808C595.023 81.5808 600.551 82.5303 605.53 84.291C610.251 85.9137 614.166 88.4858 617.531 92.1454C620.895 95.6669 623.728 100.414 625.754 105.973C627.78 111.807 628.861 118.988 628.861 127.257V256.293L636.948 248.162H620.226L628.312 256.293V127.395C628.312 112.48 624.672 100.828 617.651 92.6978C610.371 84.1529 600.654 79.9582 589.066 79.9582C577.478 79.9582 565.46 82.2713 554.541 86.6042C543.76 90.937 533.768 96.7717 524.463 103.953L520.961 106.801L521.493 111.272L522.025 116.554C522.162 118.177 522.3 119.938 522.3 121.698V256.431L530.386 248.3H513.664L521.75 256.431V121.698C521.75 85.3786 498.951 80.079 485.474 80.079C471.997 80.079 458.778 82.513 446.76 87.3983C435.155 92.0073 424.373 97.5658 414.399 103.797L410.622 106.231V256.552L418.708 248.421L418.845 248.145L418.88 248.18ZM423.189 117.383C432.356 111.686 442.331 106.68 452.992 102.347C463.104 98.2735 474.161 96.2538 485.629 96.2538C495.603 96.2538 505.715 99.2402 505.715 121.595V264.458H538.626V121.595C538.626 119.299 538.626 116.986 538.232 114.811L537.699 109.39L534.592 116.71C542.558 110.478 551.314 105.455 560.619 101.657C569.649 97.9973 579.229 96.2366 589.203 96.2366C596.088 96.2366 601.341 98.5497 605.53 103.418C609.977 108.562 612.14 116.572 612.14 127.412V264.441H645.051V127.274C645.051 117.107 643.712 108.165 640.999 100.569C638.166 92.715 634.252 86.2072 629.256 80.9249C624.14 75.6426 618.063 71.5687 611.058 68.9966C604.311 66.5626 597.032 65.337 589.203 65.337C576.928 65.337 564.79 67.6329 553.202 72.2419C541.734 76.7129 531.09 82.8065 521.373 90.143L533.785 93.5264C529.733 83.6351 523.398 76.3158 514.626 71.7068C506.539 67.5121 496.685 65.337 485.629 65.337C472.547 65.337 459.739 67.771 447.464 72.38C435.859 76.851 424.94 81.7362 415.103 86.8804L426.966 94.0615V65.1816H394.055V264.303H426.966V110.323L423.189 117.245V117.383Z" fill="#212121"/>
</g>
<defs>
<clipPath id="clip0_7745_1123">
<rect width="645" height="270" fill="white"/>
</clipPath>
</defs>
</svg>
