<svg width="83" height="102" viewBox="0 0 83 102" fill="none" xmlns="http://www.w3.org/2000/svg">
<path d="M38.3167 62.0369L16.1934 78.169C14.8121 79.1751 14 80.7695 14 82.4697V96.6544C14 101.026 19.0092 103.544 22.56 100.955L41.5 87.1411L60.44 100.955C63.9908 103.544 69 101.026 69 96.6544V82.4697C69 80.7695 68.1879 79.1751 66.8066 78.169L44.6833 62.0369C42.7864 60.6544 40.2077 60.6544 38.3167 62.0369Z" fill="url(#paint0_linear_7745_460)"/>
<foreignObject x="-18" y="-18" width="119" height="120"><div xmlns="http://www.w3.org/1999/xhtml" style="backdrop-filter:blur(9px);clip-path:url(#bgblur_0_7745_460_clip_path);height:100%;width:100%"></div></foreignObject><g data-figma-bg-blur-radius="18">
<path d="M41.5 1C63.8563 1 82 19.345 82 42C82 64.655 63.8563 83 41.5 83C19.1437 83 1 64.655 1 42C1 19.345 19.1437 1 41.5 1Z" fill="url(#paint1_linear_7745_460)"/>
<path d="M41.5 1C63.8563 1 82 19.345 82 42C82 64.655 63.8563 83 41.5 83C19.1437 83 1 64.655 1 42C1 19.345 19.1437 1 41.5 1Z" fill="url(#paint2_linear_7745_460)"/>
<path d="M41.5 1C63.8563 1 82 19.345 82 42C82 64.655 63.8563 83 41.5 83C19.1437 83 1 64.655 1 42C1 19.345 19.1437 1 41.5 1Z" stroke="url(#paint3_linear_7745_460)" stroke-width="2"/>
</g>
<path d="M43.6415 54.3424L58.5245 44.1123C59.4537 43.4743 60 42.4633 60 41.385L60 32.3899C60 29.6178 56.6302 28.021 54.2414 29.6626L41.5 38.4227L28.7586 29.6626C26.3698 28.021 23 29.6178 23 32.3899L23 41.385C23 42.4633 23.5463 43.4743 24.4755 44.1123L39.3585 54.3424C40.6346 55.2192 42.3694 55.2192 43.6415 54.3424Z" fill="url(#paint4_linear_7745_460)"/>
<defs>
<clipPath id="bgblur_0_7745_460_clip_path" transform="translate(18 18)"><path d="M41.5 1C63.8563 1 82 19.345 82 42C82 64.655 63.8563 83 41.5 83C19.1437 83 1 64.655 1 42C1 19.345 19.1437 1 41.5 1Z"/>
</clipPath><linearGradient id="paint0_linear_7745_460" x1="42.1106" y1="103.373" x2="40.2946" y2="61.7945" gradientUnits="userSpaceOnUse">
<stop stop-color="#905B42"/>
<stop offset="1" stop-color="#DDA489"/>
</linearGradient>
<linearGradient id="paint1_linear_7745_460" x1="4.68583" y1="79.2577" x2="79.1959" y2="5.63465" gradientUnits="userSpaceOnUse">
<stop stop-color="white" stop-opacity="0.2"/>
<stop offset="1" stop-color="white" stop-opacity="0.49"/>
</linearGradient>
<linearGradient id="paint2_linear_7745_460" x1="4.68583" y1="79.2577" x2="79.1959" y2="5.63465" gradientUnits="userSpaceOnUse">
<stop stop-color="white" stop-opacity="0.4"/>
<stop offset="1" stop-color="white" stop-opacity="0.6"/>
</linearGradient>
<linearGradient id="paint3_linear_7745_460" x1="5.85887" y1="6.60644" x2="76.1261" y2="80.8439" gradientUnits="userSpaceOnUse">
<stop stop-color="white"/>
<stop offset="1" stop-color="white" stop-opacity="0"/>
</linearGradient>
<linearGradient id="paint4_linear_7745_460" x1="41.0892" y1="28.1292" x2="42.175" y2="54.5018" gradientUnits="userSpaceOnUse">
<stop stop-color="#905B42"/>
<stop offset="1" stop-color="#DDA489"/>
</linearGradient>
</defs>
</svg>
