<svg width="20" height="20" viewBox="0 0 20 20" fill="none" xmlns="http://www.w3.org/2000/svg">
<path opacity="0.99" d="M8.59695 13.4116C8.48738 13.4117 8.37887 13.3902 8.27763 13.3483C8.17639 13.3064 8.08441 13.2449 8.00695 13.1674L5.66361 10.8233C5.51182 10.6661 5.42782 10.4556 5.42972 10.2371C5.43162 10.0186 5.51926 9.80961 5.67377 9.6551C5.82827 9.50059 6.03728 9.41295 6.25578 9.41106C6.47428 9.40916 6.68478 9.49315 6.84195 9.64495L8.59611 11.4L13.1636 6.83328C13.3214 6.68513 13.5306 6.60416 13.747 6.60752C13.9634 6.61088 14.17 6.69831 14.3231 6.85129C14.4762 7.00428 14.5638 7.21082 14.5673 7.42723C14.5708 7.64363 14.49 7.85291 14.3419 8.01078L9.18528 13.1674C9.02904 13.3237 8.81794 13.4116 8.59695 13.4116Z" fill="white"/>
<path opacity="0.5" d="M9.9974 1.66602C8.34922 1.66602 6.73806 2.15476 5.36765 3.07044C3.99724 3.98611 2.92913 5.2876 2.2984 6.81032C1.66767 8.33304 1.50265 10.0086 1.82419 11.6251C2.14573 13.2416 2.93941 14.7265 4.10484 15.8919C5.27028 17.0573 6.75514 17.851 8.37165 18.1726C9.98816 18.4941 11.6637 18.3291 13.1864 17.6983C14.7091 17.0676 16.0106 15.9995 16.9263 14.6291C17.842 13.2587 18.3307 11.6475 18.3307 9.99935C18.3285 7.78989 17.4498 5.67155 15.8875 4.10923C14.3252 2.5469 12.2069 1.66822 9.9974 1.66602ZM14.3366 8.01018L9.1799 13.1668C9.02363 13.3231 8.8117 13.4108 8.59073 13.4108C8.36976 13.4108 8.15784 13.3231 8.00157 13.1668L5.65823 10.8227C5.50643 10.6655 5.42244 10.455 5.42434 10.2365C5.42624 10.018 5.51388 9.80901 5.66838 9.6545C5.82289 9.49999 6.0319 9.41235 6.2504 9.41045C6.4689 9.40856 6.6794 9.49255 6.83657 9.64435L8.59073 11.3993L13.1582 6.83268C13.316 6.68452 13.5252 6.60356 13.7416 6.60692C13.958 6.61028 14.1646 6.6977 14.3177 6.85069C14.4708 7.00368 14.5584 7.21022 14.5619 7.42662C14.5654 7.64303 14.4846 7.85231 14.3366 8.01018Z" fill="white"/>
</svg>
