<svg width="64" height="64" viewBox="0 0 64 64" fill="none" xmlns="http://www.w3.org/2000/svg">
<path fill-rule="evenodd" clip-rule="evenodd" d="M32 5C46.9121 5 59 17.0879 59 32C59 46.9121 46.9121 59 32 59C17.0879 59 5 46.9121 5 32C5 17.0879 17.0879 5 32 5ZM32 37.4C28.7102 37.3945 25.5325 38.5952 23.0684 40.775C22.5313 41.2491 22.2046 41.917 22.16 42.632C22.1155 43.347 22.3568 44.0503 22.8308 44.5874C23.3048 45.1245 23.9728 45.4512 24.6878 45.4958C25.4028 45.5403 26.1061 45.299 26.6432 44.825C28.1227 43.5202 30.0274 42.8002 32 42.8C34.0547 42.8 35.9285 43.5614 37.3568 44.825C37.8939 45.299 38.5972 45.5403 39.3122 45.4958C40.0272 45.4512 40.6952 45.1245 41.1692 44.5874C41.6432 44.0503 41.8845 43.347 41.84 42.632C41.7954 41.917 41.4687 41.2491 40.9316 40.775C38.4675 38.5952 35.2898 37.3945 32 37.4ZM23.1089 21.9911C22.623 21.5069 21.971 21.2257 21.2854 21.2048C20.5997 21.1838 19.9318 21.4247 19.4172 21.8784C18.9027 22.3321 18.5802 22.9646 18.5151 23.6475C18.4501 24.3304 18.6474 25.0124 19.067 25.5551L19.2911 25.8089L20.0822 26.6L19.2911 27.3911C18.8069 27.877 18.5257 28.529 18.5048 29.2146C18.4838 29.9003 18.7247 30.5682 19.1784 31.0828C19.6321 31.5973 20.2646 31.9198 20.9475 31.9849C21.6304 32.0499 22.3124 31.8526 22.8551 31.433L23.1089 31.2089L23.9 30.4178L24.6911 31.2089C25.177 31.6931 25.829 31.9743 26.5146 31.9952C27.2003 32.0162 27.8682 31.7753 28.3828 31.3216C28.8973 30.8679 29.2198 30.2354 29.2849 29.5525C29.3499 28.8696 29.1526 28.1876 28.733 27.6449L28.5089 27.3911L27.7178 26.6L28.5089 25.8089C28.9931 25.323 29.2743 24.671 29.2952 23.9854C29.3162 23.2997 29.0753 22.6318 28.6216 22.1172C28.1679 21.6027 27.5354 21.2802 26.8525 21.2151C26.1696 21.1501 25.4876 21.3474 24.9449 21.767L24.6911 21.9911L23.9 22.7822L23.1089 21.9911ZM35.4911 21.9911C34.9849 22.4974 34.7006 23.1841 34.7006 23.9C34.7006 24.6159 34.9849 25.3026 35.4911 25.8089L36.2822 26.6L35.4911 27.3911C34.9993 27.9003 34.7271 28.5824 34.7333 29.2903C34.7394 29.9982 35.0234 30.6754 35.524 31.176C36.0246 31.6766 36.7018 31.9606 37.4097 31.9667C38.1176 31.9729 38.7997 31.7007 39.3089 31.2089L40.1 30.4178L40.8911 31.2089C41.4003 31.7007 42.0824 31.9729 42.7903 31.9667C43.4982 31.9606 44.1754 31.6766 44.676 31.176C45.1766 30.6754 45.4606 29.9982 45.4667 29.2903C45.4729 28.5824 45.2007 27.9003 44.7089 27.3911L43.9178 26.6L44.7089 25.8089C45.2007 25.2997 45.4729 24.6176 45.4667 23.9097C45.4606 23.2018 45.1766 22.5246 44.676 22.024C44.1754 21.5234 43.4982 21.2394 42.7903 21.2333C42.0824 21.2271 41.4003 21.4993 40.8911 21.9911L40.1 22.7822L39.3089 21.9911C38.8026 21.4849 38.1159 21.2006 37.4 21.2006C36.6841 21.2006 35.9974 21.4849 35.4911 21.9911Z" fill="#D9D9D9"/>
</svg>
