<svg width="64" height="64" viewBox="0 0 64 64" fill="none" xmlns="http://www.w3.org/2000/svg">
<path d="M33 60C47.9133 60 60 47.9133 60 33C60 18.0867 47.9133 6 33 6C18.0867 6 6 18.0867 6 33C6 47.9133 18.0867 60 33 60ZM23.3707 40.6676C25.691 38.3473 29.0555 37.5 33 37.5C36.9445 37.5 40.309 38.3473 42.6293 40.6676C43.8 41.8383 44.7492 43.1355 45.4137 44.4012C46.0676 45.6352 46.5 46.9746 46.5 48.1875C46.5 48.7359 46.2258 49.2633 45.7723 49.5797C45.3188 49.8961 44.7387 49.9699 44.2219 49.7695L42.0598 48.9574C39.2227 47.8922 36.2063 47.3438 33.1688 47.3438H32.8312C29.7937 47.3438 26.7879 47.8922 23.9402 48.9574L21.7781 49.7695C21.2613 49.9594 20.6812 49.8961 20.2277 49.5797C19.7742 49.2633 19.5 48.7359 19.5 48.1875C19.5 46.9641 19.943 45.6352 20.5863 44.4012C21.2508 43.1355 22.2 41.8383 23.3707 40.6676ZM18.9305 22.7906C19.4051 22.0734 20.3332 21.8203 21.1031 22.2105L29.4984 26.4293C30.068 26.7141 30.4266 27.2941 30.4266 27.9375C30.4266 28.5809 30.068 29.1609 29.4984 29.4457L21.1031 33.6645C20.3332 34.0441 19.4051 33.8016 18.9305 33.0844C18.4559 32.3672 18.6035 31.4074 19.2574 30.859L22.7695 27.9375L19.268 25.016C18.6141 24.4676 18.4664 23.5078 18.941 22.7906H18.9305ZM46.732 25.016L43.2305 27.9375L46.732 30.859C47.3859 31.4074 47.5336 32.3672 47.059 33.0844C46.5844 33.8016 45.6562 34.0547 44.8863 33.6645L36.491 29.4457C35.9215 29.1609 35.5629 28.5809 35.5629 27.9375C35.5629 27.2941 35.9215 26.7141 36.491 26.4293L44.8863 22.2105C45.6562 21.8309 46.5844 22.0734 47.059 22.7906C47.5336 23.5078 47.3859 24.4676 46.732 25.016Z" fill="#D9D9D9"/>
</svg>
