<svg width="29" height="28" viewBox="0 0 29 28" fill="none" xmlns="http://www.w3.org/2000/svg">
<path fill-rule="evenodd" clip-rule="evenodd" d="M14.5012 16.4765L20.9089 22.6634C21.249 22.9917 21.7101 23.1761 22.191 23.1761C22.6718 23.1761 23.133 22.9917 23.473 22.6634C23.813 22.3351 24.0041 21.8898 24.0041 21.4255C24.0041 20.9613 23.813 20.516 23.473 20.1877L17.0628 14.0009L23.4718 7.81403C23.6401 7.65147 23.7736 7.45851 23.8646 7.24615C23.9557 7.03379 24.0025 6.8062 24.0024 6.57637C24.0024 6.34653 23.9554 6.11896 23.8643 5.90664C23.7731 5.69433 23.6396 5.50142 23.4712 5.33894C23.3029 5.17647 23.103 5.0476 22.8831 4.95969C22.6631 4.87179 22.4274 4.82658 22.1893 4.82663C21.9513 4.82668 21.7156 4.87201 21.4957 4.96001C21.2758 5.04801 21.076 5.17697 20.9077 5.33953L14.5012 11.5264L8.09336 5.33953C7.92624 5.17231 7.72631 5.0389 7.50522 4.94709C7.28413 4.85527 7.04632 4.80689 6.80566 4.80476C6.565 4.80263 6.32631 4.8468 6.10352 4.93469C5.88073 5.02258 5.6783 5.15243 5.50804 5.31667C5.33778 5.4809 5.2031 5.67623 5.11186 5.89126C5.02062 6.10628 4.97465 6.3367 4.97662 6.56906C4.9786 6.80143 5.02849 7.03108 5.12337 7.24463C5.21826 7.45818 5.35624 7.65135 5.52927 7.81286L11.9395 14.0009L5.53048 20.1889C5.35745 20.3504 5.21947 20.5435 5.12458 20.7571C5.0297 20.9706 4.97981 21.2003 4.97783 21.4327C4.97585 21.665 5.02183 21.8954 5.11307 22.1105C5.20431 22.3255 5.33898 22.5208 5.50924 22.6851C5.6795 22.8493 5.88194 22.9791 6.10473 23.067C6.32752 23.1549 6.56621 23.1991 6.80687 23.197C7.04753 23.1948 7.28534 23.1465 7.50643 23.0546C7.72752 22.9628 7.92745 22.8294 8.09457 22.6622L14.5012 16.4765Z" fill="#B5B5B5"/>
</svg>
