<svg width="304" height="346" viewBox="0 0 304 346" fill="none" xmlns="http://www.w3.org/2000/svg">
<path d="M210.982 76.4368C248.871 96.9571 273.788 132.183 282.663 171.172C285.735 166.726 288.807 162.28 291.197 157.834C319.186 105.849 299.73 40.8685 247.847 12.8242C195.964 -15.2202 131.11 4.27405 103.12 56.2586C101.413 59.6787 99.7067 63.0987 98 66.8608C134.182 54.5486 175.142 56.9426 211.324 76.4368H210.982Z" fill="url(#paint0_linear_7745_515)"/>
<path d="M282.687 170.834C248.553 219.399 171.752 268.305 123.965 242.655C75.154 216.321 74.4713 121.586 97.6822 66.8652C64.2312 78.1514 35.2176 101.408 17.1267 134.582C-20.4203 204.351 5.86262 291.22 75.4953 328.84C145.128 366.461 231.827 340.126 269.374 270.358C286.441 238.551 290.196 203.325 282.687 170.492V170.834Z" fill="url(#paint1_linear_7745_515)"/>
<path d="M123.988 242.648C171.434 268.299 248.576 219.392 282.709 170.827C273.835 131.839 248.917 96.6126 211.029 76.0924C174.847 56.5982 133.887 54.5462 97.7051 66.5163C74.8355 121.237 75.5182 215.972 123.988 242.306V242.648Z" fill="url(#paint2_linear_7745_515)"/>
<defs>
<linearGradient id="paint0_linear_7745_515" x1="152.005" y1="11.5595" x2="292.822" y2="188.764" gradientUnits="userSpaceOnUse">
<stop stop-color="#915B41"/>
<stop offset="1" stop-color="#845D4A"/>
</linearGradient>
<linearGradient id="paint1_linear_7745_515" x1="194.092" y1="78.197" x2="142.992" y2="345.964" gradientUnits="userSpaceOnUse">
<stop stop-color="#1FBDFF"/>
<stop offset="1" stop-color="#6DBDDE"/>
</linearGradient>
<linearGradient id="paint2_linear_7745_515" x1="182.913" y1="249.708" x2="395.785" y2="155.341" gradientUnits="userSpaceOnUse">
<stop stop-color="#F2B819"/>
<stop offset="1" stop-color="#F7E6B0"/>
</linearGradient>
</defs>
</svg>
