<svg width="143" height="86" viewBox="0 0 143 86" fill="none" xmlns="http://www.w3.org/2000/svg">
<path d="M17.5706 10.9793H0V8.783H7.39817V7.85824C6.24221 7.62705 5.43303 7.16465 4.73945 6.47107C4.04587 5.77749 3.81468 4.96831 3.81468 4.04355C3.81468 3.11878 4.04588 2.54081 4.50826 1.96283C4.97065 1.38485 5.54863 0.922448 6.24221 0.575659C7.05138 0.22887 7.86056 0.113281 8.90092 0.113281C9.94129 0.113281 10.7504 0.22887 11.5596 0.575659C12.3688 0.922448 12.9468 1.38485 13.2936 1.96283C13.7559 2.54081 13.9871 3.23437 13.9871 4.04355C13.9871 4.85272 13.6404 5.77749 13.0624 6.47107C12.3688 7.16465 11.5596 7.62705 10.4037 7.85824V8.783H17.8018V10.9793H17.5706ZM16.1835 17.9151V20.1114H1.73394V14.794H13.0624V13.9848H1.73394V11.7885H15.8367V16.8747H4.50826V17.7995H16.1835V17.9151ZM10.4037 5.31511C10.866 4.96832 11.0972 4.50592 11.0972 3.92794C11.0972 3.34996 10.866 2.8876 10.4037 2.54081C9.94127 2.19402 9.4789 1.96283 8.78532 1.96283C8.09174 1.96283 7.51377 2.19402 7.16698 2.54081C6.70459 2.8876 6.589 3.34996 6.589 3.92794C6.589 4.50592 6.82019 4.96832 7.16698 5.31511C7.62936 5.6619 8.09174 5.89309 8.78532 5.89309C9.4789 5.89309 10.0569 5.6619 10.4037 5.31511Z" fill="#8A8A8A"/>
<path d="M37.5862 8.2059V10.6334H20.0156V8.2059H26.3734V5.31599H29.2633V8.2059H37.5862ZM35.5055 0.460938V7.04993H32.6156V3.00407H21.634V0.576541H35.5055V0.460938ZM36.4303 17.5692V19.9967H21.634V11.7894H35.9679V14.2169H24.5239V17.4536H36.4303V17.5692Z" fill="#8A8A8A"/>
<path d="M57.5863 9.94128V12.3688H40.0156V9.94128H57.5863ZM56.4303 17.455V19.8826H41.634V13.5248H44.5239V17.3394H56.4303V17.455ZM46.0266 8.43854C45.2175 8.09175 44.6395 7.51375 44.1771 6.82017C43.7147 6.12659 43.4835 5.31742 43.4835 4.50824C43.4835 3.69907 43.7147 2.8899 44.1771 2.19632C44.6395 1.50274 45.2175 1.04037 46.0266 0.577981C46.8358 0.231192 47.7606 0 48.8009 0C49.8413 0 50.6505 0.231192 51.4596 0.577981C52.2688 0.92477 52.9624 1.50274 53.4248 2.19632C53.8872 2.8899 54.1184 3.69907 54.1184 4.50824C54.1184 5.31742 53.8872 6.12659 53.4248 6.82017C52.9624 7.51375 52.3844 8.09175 51.4596 8.43854C50.6505 8.78533 49.7257 9.01652 48.8009 9.01652C47.8762 9.01652 46.8358 8.78533 46.0266 8.43854ZM50.5349 6.01102C50.9973 5.66423 51.2285 5.08623 51.2285 4.50824C51.2285 3.93026 50.9973 3.46789 50.5349 3.00551C50.0725 2.65872 49.4945 2.42753 48.8009 2.42753C48.1074 2.42753 47.5294 2.65872 47.067 3.00551C46.6046 3.3523 46.3734 3.93026 46.3734 4.50824C46.3734 5.08623 46.6046 5.54863 47.067 6.01102C47.5294 6.35781 48.1074 6.589 48.8009 6.589C49.4945 6.589 50.0725 6.35781 50.5349 6.01102Z" fill="#8A8A8A"/>
<path d="M82.0862 8.43869V10.8662H64.5156V8.43869H70.989V5.08637H73.8789V8.43869H82.0862ZM80.0055 0.578125V7.16712H77.1156V3.00565H66.2496V0.578125H80.0055ZM70.411 19.9983C69.6018 19.6515 68.9083 19.0735 68.4459 18.3799C67.9835 17.6864 67.7523 16.8772 67.7523 16.068C67.7523 15.2588 67.9835 14.4497 68.4459 13.7561C68.9083 13.0625 69.6018 12.4845 70.411 12.1377C71.2202 11.791 72.1449 11.5598 73.3009 11.5598C74.4569 11.5598 75.266 11.791 76.1908 12.1377C77 12.4845 77.6936 13.0625 78.156 13.7561C78.6183 14.4497 78.8495 15.1432 78.8495 16.068C78.8495 16.9928 78.6183 17.6864 78.156 18.3799C77.6936 19.0735 77 19.6515 76.1908 19.9983C75.3816 20.3451 74.4569 20.5763 73.3009 20.5763C72.1449 20.5763 71.3358 20.3451 70.411 19.9983ZM75.1505 17.6864C75.6128 17.3396 75.844 16.7616 75.844 16.1836C75.844 15.6056 75.6128 15.0277 75.1505 14.6809C74.6881 14.3341 73.9945 14.1029 73.3009 14.1029C72.6073 14.1029 71.9138 14.3341 71.4514 14.6809C70.989 15.0277 70.7578 15.6056 70.7578 16.1836C70.7578 16.7616 70.989 17.3396 71.4514 17.6864C71.9138 18.0332 72.6073 18.2644 73.3009 18.2644C73.9945 18.2644 74.6881 18.0332 75.1505 17.6864Z" fill="#8A8A8A"/>
<path d="M94.6787 13.9864V20.113H91.7888V13.9864H84.3906V11.5589H101.961V13.9864H94.5631H94.6787ZM100.343 0.230469V9.82494H86.2402V0.230469H89.1301V2.77356H97.453V0.230469H100.343ZM97.453 5.20109H89.1301V7.28184H97.453V5.20109Z" fill="#8A8A8A"/>
<path d="M122.055 8.8986V11.3261H104.484V8.8986H122.055ZM105.872 5.43071C107.605 5.19952 109.108 4.73712 110.149 4.04355C111.189 3.34997 111.767 2.3096 111.767 1.15364V0.113281H114.541V1.15364C114.541 2.3096 115.119 3.34997 116.16 4.04355C117.2 4.73712 118.703 5.19952 120.437 5.43071V7.85824C118.818 7.74265 117.316 7.28026 116.044 6.70228C114.772 6.1243 113.732 5.3151 113.154 4.50592C112.461 5.43069 111.536 6.1243 110.264 6.70228C108.993 7.28026 107.49 7.74265 105.872 7.85824V5.43071ZM120.437 12.3665V19.8802H106.103V12.3665H108.993V13.8692H117.662V12.3665H120.552H120.437ZM117.547 16.2968H108.877V17.5683H117.547V16.2968Z" fill="#8A8A8A"/>
<path d="M123.922 10.1702C125.425 10.1702 126.581 10.1702 127.274 10.1702V6.1243H130.164V10.0546C132.707 9.93896 134.672 9.70776 136.291 9.36098V11.7885C135.019 12.0197 133.516 12.2509 131.551 12.4821C129.586 12.5977 127.621 12.7133 125.425 12.7133H123.922V10.2857V10.1702ZM134.904 1.03804V7.85824H132.014V3.46556H124.731V1.03804H134.904ZM140.452 17.3371V19.7646H126.003V14.1004H128.892V17.3371H140.452ZM140.221 8.08941V14.4472H137.331V0.113281H140.221V5.66188H142.995V8.08941H140.221Z" fill="#8A8A8A"/>
<path d="M17.5706 10.9793H0V8.783H7.39817V7.85824C6.24221 7.62705 5.43303 7.16465 4.73945 6.47107C4.04587 5.77749 3.81468 4.96831 3.81468 4.04355C3.81468 3.11878 4.04588 2.54081 4.50826 1.96283C4.97065 1.38485 5.54863 0.922448 6.24221 0.575659C7.05138 0.22887 7.86056 0.113281 8.90092 0.113281C9.94129 0.113281 10.7504 0.22887 11.5596 0.575659C12.3688 0.922448 12.9468 1.38485 13.2936 1.96283C13.7559 2.54081 13.9871 3.23437 13.9871 4.04355C13.9871 4.85272 13.6404 5.77749 13.0624 6.47107C12.3688 7.16465 11.5596 7.62705 10.4037 7.85824V8.783H17.8018V10.9793H17.5706ZM16.1835 17.9151V20.1114H1.73394V14.794H13.0624V13.9848H1.73394V11.7885H15.8367V16.8747H4.50826V17.7995H16.1835V17.9151ZM10.4037 5.31511C10.866 4.96832 11.0972 4.50592 11.0972 3.92794C11.0972 3.34996 10.866 2.8876 10.4037 2.54081C9.94127 2.19402 9.4789 1.96283 8.78532 1.96283C8.09174 1.96283 7.51377 2.19402 7.16698 2.54081C6.70459 2.8876 6.589 3.34996 6.589 3.92794C6.589 4.50592 6.82019 4.96832 7.16698 5.31511C7.62936 5.6619 8.09174 5.89309 8.78532 5.89309C9.4789 5.89309 10.0569 5.6619 10.4037 5.31511Z" fill="#8A8A8A"/>
<path d="M37.5862 8.2059V10.6334H20.0156V8.2059H26.3734V5.31599H29.2633V8.2059H37.5862ZM35.5055 0.460938V7.04993H32.6156V3.00407H21.634V0.576541H35.5055V0.460938ZM36.4303 17.5692V19.9967H21.634V11.7894H35.9679V14.2169H24.5239V17.4536H36.4303V17.5692Z" fill="#8A8A8A"/>
<path d="M57.5863 9.94128V12.3688H40.0156V9.94128H57.5863ZM56.4303 17.455V19.8826H41.634V13.5248H44.5239V17.3394H56.4303V17.455ZM46.0266 8.43854C45.2175 8.09175 44.6395 7.51375 44.1771 6.82017C43.7147 6.12659 43.4835 5.31742 43.4835 4.50824C43.4835 3.69907 43.7147 2.8899 44.1771 2.19632C44.6395 1.50274 45.2175 1.04037 46.0266 0.577981C46.8358 0.231192 47.7606 0 48.8009 0C49.8413 0 50.6505 0.231192 51.4596 0.577981C52.2688 0.92477 52.9624 1.50274 53.4248 2.19632C53.8872 2.8899 54.1184 3.69907 54.1184 4.50824C54.1184 5.31742 53.8872 6.12659 53.4248 6.82017C52.9624 7.51375 52.3844 8.09175 51.4596 8.43854C50.6505 8.78533 49.7257 9.01652 48.8009 9.01652C47.8762 9.01652 46.8358 8.78533 46.0266 8.43854ZM50.5349 6.01102C50.9973 5.66423 51.2285 5.08623 51.2285 4.50824C51.2285 3.93026 50.9973 3.46789 50.5349 3.00551C50.0725 2.65872 49.4945 2.42753 48.8009 2.42753C48.1074 2.42753 47.5294 2.65872 47.067 3.00551C46.6046 3.3523 46.3734 3.93026 46.3734 4.50824C46.3734 5.08623 46.6046 5.54863 47.067 6.01102C47.5294 6.35781 48.1074 6.589 48.8009 6.589C49.4945 6.589 50.0725 6.35781 50.5349 6.01102Z" fill="#8A8A8A"/>
<path d="M82.0862 8.43869V10.8662H64.5156V8.43869H70.989V5.08637H73.8789V8.43869H82.0862ZM80.0055 0.578125V7.16712H77.1156V3.00565H66.2496V0.578125H80.0055ZM70.411 19.9983C69.6018 19.6515 68.9083 19.0735 68.4459 18.3799C67.9835 17.6864 67.7523 16.8772 67.7523 16.068C67.7523 15.2588 67.9835 14.4497 68.4459 13.7561C68.9083 13.0625 69.6018 12.4845 70.411 12.1377C71.2202 11.791 72.1449 11.5598 73.3009 11.5598C74.4569 11.5598 75.266 11.791 76.1908 12.1377C77 12.4845 77.6936 13.0625 78.156 13.7561C78.6183 14.4497 78.8495 15.1432 78.8495 16.068C78.8495 16.9928 78.6183 17.6864 78.156 18.3799C77.6936 19.0735 77 19.6515 76.1908 19.9983C75.3816 20.3451 74.4569 20.5763 73.3009 20.5763C72.1449 20.5763 71.3358 20.3451 70.411 19.9983ZM75.1505 17.6864C75.6128 17.3396 75.844 16.7616 75.844 16.1836C75.844 15.6056 75.6128 15.0277 75.1505 14.6809C74.6881 14.3341 73.9945 14.1029 73.3009 14.1029C72.6073 14.1029 71.9138 14.3341 71.4514 14.6809C70.989 15.0277 70.7578 15.6056 70.7578 16.1836C70.7578 16.7616 70.989 17.3396 71.4514 17.6864C71.9138 18.0332 72.6073 18.2644 73.3009 18.2644C73.9945 18.2644 74.6881 18.0332 75.1505 17.6864Z" fill="#8A8A8A"/>
<path d="M94.6787 13.9864V20.113H91.7888V13.9864H84.3906V11.5589H101.961V13.9864H94.5631H94.6787ZM100.343 0.230469V9.82494H86.2402V0.230469H89.1301V2.77356H97.453V0.230469H100.343ZM97.453 5.20109H89.1301V7.28184H97.453V5.20109Z" fill="#8A8A8A"/>
<path d="M122.055 8.8986V11.3261H104.484V8.8986H122.055ZM105.872 5.43071C107.605 5.19952 109.108 4.73712 110.149 4.04355C111.189 3.34997 111.767 2.3096 111.767 1.15364V0.113281H114.541V1.15364C114.541 2.3096 115.119 3.34997 116.16 4.04355C117.2 4.73712 118.703 5.19952 120.437 5.43071V7.85824C118.818 7.74265 117.316 7.28026 116.044 6.70228C114.772 6.1243 113.732 5.3151 113.154 4.50592C112.461 5.43069 111.536 6.1243 110.264 6.70228C108.993 7.28026 107.49 7.74265 105.872 7.85824V5.43071ZM120.437 12.3665V19.8802H106.103V12.3665H108.993V13.8692H117.662V12.3665H120.552H120.437ZM117.547 16.2968H108.877V17.5683H117.547V16.2968Z" fill="#8A8A8A"/>
<path d="M123.922 10.1702C125.425 10.1702 126.581 10.1702 127.274 10.1702V6.1243H130.164V10.0546C132.707 9.93896 134.672 9.70776 136.291 9.36098V11.7885C135.019 12.0197 133.516 12.2509 131.551 12.4821C129.586 12.5977 127.621 12.7133 125.425 12.7133H123.922V10.2857V10.1702ZM134.904 1.03804V7.85824H132.014V3.46556H124.731V1.03804H134.904ZM140.452 17.3371V19.7646H126.003V14.1004H128.892V17.3371H140.452ZM140.221 8.08941V14.4472H137.331V0.113281H140.221V5.66188H142.995V8.08941H140.221Z" fill="#8A8A8A"/>
<path d="M2.83369 61.2188H1.34375V81.8544H43.6579V61.2188H2.83369ZM7.37799 76.2671V66.806H37.6237V76.2671H7.37799Z" fill="#8A8A8A"/>
<path d="M39.1108 35.0703H37.6209V36.5602V44.8294H33.8216V36.5602V35.0703H32.3316H29.2773H27.7873V36.5602V56.9724L23.392 36.2623L23.1685 35.0703H21.9766H17.7302H16.5383L16.3148 36.2623L14.2289 46.8408L12.143 36.2623L11.9195 35.0703H10.653H6.40672H5.28927L4.99128 36.2623L0.372484 58.3878L0 60.1012H1.78792H4.91678H6.10874L6.33223 58.9838L8.64162 46.6918L11.249 58.9838L11.4725 60.1012H12.6645H15.7933H16.9853L17.2088 58.9838L19.8161 46.6918L22.1256 58.9838L22.349 60.1012H23.541H26.6699H27.7873V61.0697H29.2773H32.3316H33.8216V59.5798V50.4167H37.6209V59.5798V61.0697H39.1108H42.1652H43.6551V59.5798V36.5602V35.0703H42.1652H39.1108Z" fill="#8A8A8A"/>
<path d="M78.4536 44.3802H79.869V42.9647V40.2828V38.7929H78.4536H66.9066V35.0681V33.5781H65.4911H62.3623H60.9468V35.0681V38.7929H49.3998H47.9844V40.2828V42.9647V44.3802H49.3998H78.4536Z" fill="#8A8A8A"/>
<path d="M89.7764 53.5453V36.6345V35.1445H88.2865H85.1576H83.7422V36.6345V80.4386V81.9286H85.1576H88.2865H89.7764V80.4386V59.1325H94.9912H96.4811V57.7171V55.0352V53.5453H94.9912H89.7764Z" fill="#8A8A8A"/>
<path d="M139.084 76.2637H118.523V55.1811V53.7656H117.033H113.979H112.489V55.1811V76.2637H98.1107H96.6953V77.7536V80.4355V81.9254H98.1107H139.084H140.574V80.4355V77.7536V76.2637H139.084Z" fill="#8A8A8A"/>
<path d="M133.947 40.6576C133.798 44.0844 133.5 47.5858 133.053 51.3106C132.531 55.5569 131.861 60.0267 131.041 64.571L130.743 66.2845H136.927L137.15 65.0925C137.597 62.7831 137.97 60.5482 138.268 58.2388C138.64 56.0039 138.938 53.62 139.162 51.3106C139.46 49.0012 139.609 46.5428 139.832 44.1589C139.981 41.775 140.13 39.2421 140.279 36.5602V35.0703H138.789H96.9219V40.6576H133.947Z" fill="#8A8A8A"/>
<path d="M72.6464 48.1812C68.6236 45.8718 63.9303 45.2014 59.386 46.4678C54.9162 47.6598 51.1169 50.5651 48.8075 54.588C45.5296 60.2497 44.4122 69.4873 46.1256 75.9686C47.1686 79.7679 49.18 82.6732 51.9363 84.2377C56.0337 86.5471 61.5464 86.1001 67.5062 82.8222C72.3485 80.1404 76.8183 76.043 79.1277 72.0202C81.4371 67.9974 82.1075 63.3041 80.8411 58.7598C79.6491 54.2155 76.7438 50.4906 72.7209 48.1812H72.6464ZM73.9874 69.1148C72.1995 72.1692 68.5491 75.5216 64.6008 77.682C60.578 79.9169 56.9276 80.4384 54.7672 79.1719C53.0538 78.2034 52.1598 76.043 51.7129 74.4041C50.2229 68.8169 51.6384 61.2927 53.7988 57.4933C55.3632 54.8114 57.8216 52.8745 60.876 52.0551C63.8558 51.2356 66.9847 51.6826 69.7411 53.1725C72.423 54.737 74.3599 57.1954 75.1794 60.2497C75.9988 63.2296 75.5518 66.3585 73.9874 69.1148Z" fill="#8A8A8A"/>
</svg>
