<svg width="34" height="38" viewBox="0 0 34 38" fill="none" xmlns="http://www.w3.org/2000/svg">
<path d="M23.6028 8.39488C27.8382 10.6486 30.6237 14.5174 31.6158 18.7994C31.9592 18.3111 32.3027 17.8228 32.5698 17.3345C35.6987 11.6252 33.5237 4.48849 27.7238 1.40845C21.9238 -1.67159 14.6739 0.469409 11.545 6.17875C11.3542 6.55437 11.1634 6.92998 10.9727 7.34316C15.0173 5.99095 19.5962 6.25387 23.6409 8.39488H23.6028Z" fill="url(#paint0_linear_7745_546)"/>
<path d="M31.6011 18.7624C27.7853 24.0962 19.1999 29.4675 13.8578 26.6503C8.40133 23.7581 8.32502 13.3536 10.9197 7.34375C7.18029 8.58328 3.93691 11.1375 1.91457 14.7809C-2.28275 22.4435 0.655372 31.9841 8.43949 36.1158C16.2236 40.2476 25.9156 37.3554 30.1129 29.6928C32.0208 26.1996 32.4405 22.3308 31.6011 18.7249V18.7624Z" fill="url(#paint1_linear_7745_546)"/>
<path d="M13.8658 26.6509C19.1696 29.468 27.7932 24.0967 31.609 18.763C30.6169 14.481 27.8314 10.6122 23.5959 8.35846C19.5512 6.21746 14.9723 5.9921 10.9276 7.30675C8.37108 13.3166 8.4474 23.7211 13.8658 26.6133V26.6509Z" fill="url(#paint2_linear_7745_546)"/>
<defs>
<linearGradient id="paint0_linear_7745_546" x1="17.0098" y1="1.26955" x2="32.4114" y2="20.997" gradientUnits="userSpaceOnUse">
<stop stop-color="#915B41"/>
<stop offset="1" stop-color="#845D4A"/>
</linearGradient>
<linearGradient id="paint1_linear_7745_546" x1="21.6972" y1="8.58829" x2="16.1767" y2="38.0325" gradientUnits="userSpaceOnUse">
<stop stop-color="#1FBDFF"/>
<stop offset="1" stop-color="#6DBDDE"/>
</linearGradient>
<linearGradient id="paint2_linear_7745_546" x1="20.4529" y1="27.4263" x2="44.1096" y2="16.752" gradientUnits="userSpaceOnUse">
<stop stop-color="#F2B819"/>
<stop offset="1" stop-color="#F7E6B0"/>
</linearGradient>
</defs>
</svg>
