<svg width="591" height="595" viewBox="0 0 591 595" fill="none" xmlns="http://www.w3.org/2000/svg">
<g filter="url(#filter0_f_7745_981)">
<path d="M497.417 128.888C548.891 183.379 548.861 271.846 497.417 326.304L349.386 483.011C319.551 514.595 271.152 514.595 241.317 483.011L108.836 342.766L310.902 128.856C362.375 74.366 445.944 74.3979 497.387 128.856L497.417 128.888Z" fill="url(#paint0_linear_7745_981)"/>
</g>
<path d="M497.417 128.888C548.891 183.379 548.861 271.846 497.417 326.304L349.386 483.011C319.551 514.595 271.152 514.595 241.317 483.011L108.836 342.766L310.902 128.856C362.375 74.366 445.944 74.3979 497.387 128.856L497.417 128.888Z" fill="url(#paint1_linear_7745_981)"/>
<foreignObject x="36.6484" y="70.0586" width="463.176" height="454.699"><div xmlns="http://www.w3.org/1999/xhtml" style="backdrop-filter:blur(9px);clip-path:url(#bgblur_0_7745_981_clip_path);height:100%;width:100%"></div></foreignObject><path data-figma-bg-blur-radius="18" d="M93.9291 129.674L93.9593 129.642C145.053 75.5531 228.007 75.5842 279.071 129.641L480.451 342.824L348.657 482.343C319.201 513.525 271.416 513.525 241.96 482.343L93.9291 325.635C42.8355 271.546 42.8654 183.731 93.9291 129.674Z" fill="url(#paint2_linear_7745_981)" stroke="url(#paint3_linear_7745_981)" stroke-width="2"/>
<defs>
<filter id="filter0_f_7745_981" x="20.8359" y="0" width="603.176" height="594.699" filterUnits="userSpaceOnUse" color-interpolation-filters="sRGB">
<feFlood flood-opacity="0" result="BackgroundImageFix"/>
<feBlend mode="normal" in="SourceGraphic" in2="BackgroundImageFix" result="shape"/>
<feGaussianBlur stdDeviation="44" result="effect1_foregroundBlur_7745_981"/>
</filter>
<clipPath id="bgblur_0_7745_981_clip_path" transform="translate(-36.6484 -70.0586)"><path d="M93.9291 129.674L93.9593 129.642C145.053 75.5531 228.007 75.5842 279.071 129.641L480.451 342.824L348.657 482.343C319.201 513.525 271.416 513.525 241.96 482.343L93.9291 325.635C42.8355 271.546 42.8654 183.731 93.9291 129.674Z"/>
</clipPath><linearGradient id="paint0_linear_7745_981" x1="515.241" y1="125.531" x2="178.72" y2="418.136" gradientUnits="userSpaceOnUse">
<stop stop-color="#A1E3FF"/>
<stop offset="1" stop-color="#19A5E0"/>
</linearGradient>
<linearGradient id="paint1_linear_7745_981" x1="515.241" y1="125.531" x2="178.72" y2="418.136" gradientUnits="userSpaceOnUse">
<stop stop-color="#A1E3FF"/>
<stop offset="1" stop-color="#19A5E0"/>
</linearGradient>
<linearGradient id="paint2_linear_7745_981" x1="289.167" y1="511.476" x2="386.259" y2="105.279" gradientUnits="userSpaceOnUse">
<stop stop-color="white" stop-opacity="0.2"/>
<stop offset="1" stop-color="white" stop-opacity="0.49"/>
</linearGradient>
<linearGradient id="paint3_linear_7745_981" x1="36.3914" y1="238.303" x2="422.368" y2="167.642" gradientUnits="userSpaceOnUse">
<stop stop-color="white"/>
<stop offset="1" stop-color="white" stop-opacity="0"/>
</linearGradient>
</defs>
</svg>
