<svg width="284" height="243" viewBox="0 0 284 243" fill="none" xmlns="http://www.w3.org/2000/svg">
<path d="M150.743 238.938C47.2116 235.696 -2.20092 180.185 1.16054 131.561C4.52191 82.9375 41.4972 53.2235 59.9849 38.3666C80.1532 22.1587 135.617 -7.8256 196.121 1.89897C256.627 11.6237 273.43 36.3408 280.156 76.86C286.882 117.379 254.273 242.179 150.743 238.938Z" fill="#2C7FEB"/>
<path d="M129.814 238.33C29.1888 209.345 -9.61238 142.809 1.98423 96.1612C13.5808 49.5119 54.7955 29.7132 75.4027 19.8138C97.8833 9.01441 157.212 -6.43807 214.68 18.1478C272.149 42.7338 284.346 71.0637 283.993 112.313C283.64 153.563 230.44 267.314 129.814 238.33Z" fill="#2C7FEB" fill-opacity="0.3"/>
</svg>
