<svg width="44" height="44" viewBox="0 0 44 44" fill="none" xmlns="http://www.w3.org/2000/svg">
<circle cx="22" cy="22" r="22" fill="#E2E1E6"/>
<path d="M17.7748 12.5481C17.4826 12.8403 17.3185 13.2366 17.3185 13.6498C17.3185 14.063 17.4826 14.4593 17.7748 14.7515L25.4885 22.4653L17.7748 30.179C17.4909 30.4729 17.3338 30.8666 17.3374 31.2752C17.3409 31.6838 17.5048 32.0746 17.7937 32.3635C18.0827 32.6525 18.4735 32.8164 18.8821 32.8199C19.2907 32.8235 19.6843 32.6664 19.9782 32.3825L28.7937 23.567C29.0859 23.2748 29.25 22.8785 29.25 22.4653C29.25 22.0521 29.0859 21.6558 28.7937 21.3635L19.9782 12.5481C19.686 12.2559 19.2897 12.0918 18.8765 12.0918C18.4633 12.0918 18.067 12.2559 17.7748 12.5481Z" fill="#8A8A8A"/>
</svg>
