<svg width="410" height="250" viewBox="0 0 410 250" fill="none" xmlns="http://www.w3.org/2000/svg">
<path d="M111.983 0H298.017C359.863 0 410 51.8585 410 115.829V134.171C410 198.142 359.863 250 298.017 250H111.983C50.1367 250 0 198.142 0 134.171V115.829C0 51.8585 50.1367 0 111.983 0Z" fill="white"/>
<path d="M111.978 237.923H112.965C113.642 237.923 114.19 237.356 114.19 236.655C114.19 235.954 113.642 235.387 112.965 235.387H111.978C109.33 235.387 106.659 235.277 104.039 235.058C103.363 234.999 102.773 235.521 102.719 236.219C102.665 236.917 103.167 237.528 103.842 237.584C106.527 237.808 109.264 237.923 111.978 237.923ZM121.996 237.923H131.029C131.706 237.923 132.255 237.356 132.255 236.655C132.255 235.954 131.706 235.387 131.029 235.387H121.996C121.319 235.387 120.771 235.954 120.771 236.655C120.771 237.356 121.319 237.923 121.996 237.923ZM140.062 237.923H149.095C149.772 237.923 150.321 237.356 150.321 236.655C150.321 235.954 149.772 235.387 149.095 235.387H140.062C139.385 235.387 138.836 235.954 138.836 236.655C138.836 237.356 139.385 237.923 140.062 237.923ZM158.128 237.923H167.16C167.838 237.923 168.386 237.356 168.386 236.655C168.386 235.954 167.838 235.387 167.16 235.387H158.128C157.45 235.387 156.902 235.954 156.902 236.655C156.902 237.356 157.45 237.923 158.128 237.923ZM176.192 237.923H185.225C185.902 237.923 186.451 237.356 186.451 236.655C186.451 235.954 185.902 235.387 185.225 235.387H176.192C175.515 235.387 174.966 235.954 174.966 236.655C174.966 237.356 175.515 237.923 176.192 237.923ZM194.258 237.923H203.291C203.968 237.923 204.516 237.356 204.516 236.655C204.516 235.954 203.968 235.387 203.291 235.387H194.258C193.58 235.387 193.032 235.954 193.032 236.655C193.032 237.356 193.58 237.923 194.258 237.923ZM212.323 237.923H221.356C222.034 237.923 222.582 237.356 222.582 236.655C222.582 235.954 222.034 235.387 221.356 235.387H212.323C211.646 235.387 211.098 235.954 211.098 236.655C211.098 237.356 211.646 237.923 212.323 237.923ZM230.388 237.923H239.421C240.098 237.923 240.646 237.356 240.646 236.655C240.646 235.954 240.098 235.387 239.421 235.387H230.388C229.71 235.387 229.162 235.954 229.162 236.655C229.162 237.356 229.71 237.923 230.388 237.923ZM248.453 237.923H257.486C258.164 237.923 258.712 237.356 258.712 236.655C258.712 235.954 258.164 235.387 257.486 235.387H248.453C247.776 235.387 247.228 235.954 247.228 236.655C247.228 237.356 247.776 237.923 248.453 237.923ZM266.519 237.923H275.552C276.229 237.923 276.778 237.356 276.778 236.655C276.778 235.954 276.229 235.387 275.552 235.387H266.519C265.842 235.387 265.293 235.954 265.293 236.655C265.293 237.356 265.842 237.923 266.519 237.923ZM284.585 237.923H293.618C294.295 237.923 294.843 237.356 294.843 236.655C294.843 235.954 294.295 235.387 293.618 235.387H284.585C283.907 235.387 283.359 235.954 283.359 236.655C283.359 237.356 283.907 237.923 284.585 237.923ZM302.647 237.812C302.666 237.812 302.685 237.812 302.705 237.812C305.747 237.667 308.81 237.374 311.808 236.945C312.479 236.849 312.948 236.208 312.854 235.515C312.761 234.821 312.141 234.337 311.472 234.433C308.548 234.852 305.56 235.138 302.592 235.279C301.916 235.311 301.394 235.905 301.425 236.604C301.456 237.284 301.998 237.813 302.648 237.813L302.647 237.812ZM94.9855 236.41C95.57 236.41 96.0873 235.976 96.1918 235.359C96.3079 234.669 95.8615 234.013 95.1958 233.893C92.2786 233.365 89.3511 232.69 86.4945 231.887C85.8417 231.704 85.1682 232.102 84.9902 232.777C84.8121 233.452 85.1979 234.149 85.8507 234.333C88.7808 235.158 91.7831 235.85 94.7739 236.391C94.8448 236.404 94.9158 236.41 94.9868 236.41H94.9855ZM320.515 235.246C320.608 235.246 320.702 235.235 320.796 235.212C323.748 234.496 326.707 233.626 329.59 232.626C330.232 232.403 330.579 231.685 330.363 231.021C330.148 230.357 329.454 229.998 328.811 230.221C326 231.196 323.115 232.044 320.236 232.744C319.577 232.904 319.168 233.586 319.323 234.268C319.456 234.852 319.959 235.246 320.515 235.246ZM77.5778 231.511C78.0746 231.511 78.5416 231.196 78.7261 230.687C78.9635 230.032 78.641 229.301 78.0075 229.055C76.6773 228.54 75.338 227.987 74.0272 227.411C72.6105 226.788 71.19 226.123 69.8055 225.434C69.1953 225.13 68.4637 225.396 68.1695 226.027C67.8754 226.658 68.1321 227.415 68.7424 227.719C70.1616 228.425 71.617 229.107 73.0685 229.745C74.4129 230.336 75.7857 230.903 77.1495 231.43C77.2914 231.485 77.4359 231.511 77.5791 231.511H77.5778ZM337.623 229.323C337.788 229.323 337.956 229.289 338.116 229.215C340.9 227.949 343.656 226.537 346.308 225.021C346.9 224.682 347.114 223.91 346.786 223.298C346.459 222.685 345.713 222.464 345.121 222.801C342.535 224.281 339.845 225.659 337.129 226.894C336.51 227.176 336.228 227.925 336.501 228.565C336.702 229.04 337.152 229.323 337.623 229.323ZM61.3236 223.414C61.7403 223.414 62.1468 223.194 62.3764 222.797C62.7248 222.197 62.5351 221.417 61.9545 221.058C59.4167 219.485 56.9162 217.77 54.5229 215.962C53.9758 215.548 53.2094 215.672 52.8094 216.237C52.4095 216.803 52.5295 217.595 53.0752 218.009C55.528 219.864 58.0916 221.622 60.694 223.234C60.8914 223.357 61.1082 223.414 61.3223 223.414H61.3236ZM353.409 220.29C353.646 220.29 353.885 220.219 354.097 220.071C356.602 218.311 359.065 216.405 361.416 214.409C361.939 213.964 362.015 213.165 361.585 212.624C361.156 212.084 360.383 212.005 359.86 212.449C357.566 214.398 355.164 216.256 352.719 217.974C352.159 218.368 352.013 219.157 352.394 219.736C352.631 220.098 353.017 220.291 353.409 220.291V220.29ZM46.757 212.407C47.0976 212.407 47.4357 212.261 47.6783 211.977C48.1247 211.451 48.0756 210.65 47.5673 210.187C45.9726 208.737 44.3972 207.207 42.8851 205.643C42.2967 205.035 41.7084 204.41 41.1381 203.791C40.6711 203.284 39.8956 203.264 39.4054 203.747C38.9151 204.23 38.8957 205.032 39.3628 205.539C39.9472 206.174 40.5498 206.812 41.1523 207.437C42.7019 209.04 44.3146 210.605 45.9493 212.092C46.1816 212.304 46.4706 212.408 46.7583 212.408L46.757 212.407ZM367.352 208.453C367.662 208.453 367.973 208.331 368.212 208.09C368.425 207.872 368.638 207.654 368.849 207.436C370.792 205.426 372.673 203.319 374.44 201.171C374.878 200.638 374.816 199.838 374.3 199.384C373.784 198.931 373.011 198.995 372.573 199.529C370.849 201.624 369.013 203.682 367.116 205.643C366.91 205.857 366.702 206.07 366.493 206.283C366.011 206.774 366.004 207.576 366.478 208.075C366.718 208.327 367.035 208.454 367.352 208.454V208.453ZM34.3245 198.885C34.5916 198.885 34.8599 198.796 35.0857 198.61C35.616 198.175 35.705 197.377 35.2831 196.829C33.4381 194.425 31.6821 191.91 30.0616 189.351C29.69 188.766 28.93 188.601 28.3649 188.986C27.7985 189.37 27.6398 190.155 28.0114 190.741C29.6719 193.363 31.4731 195.941 33.3632 198.405C33.6058 198.72 33.9632 198.884 34.3245 198.884V198.885ZM379.041 194.24C379.425 194.24 379.804 194.053 380.043 193.703C381.795 191.136 383.452 188.456 384.968 185.737C385.306 185.132 385.105 184.356 384.519 184.005C383.932 183.656 383.182 183.864 382.844 184.47C381.366 187.121 379.749 189.736 378.041 192.241C377.651 192.813 377.783 193.603 378.335 194.008C378.549 194.164 378.797 194.24 379.041 194.24ZM24.4401 183.278C24.6336 183.278 24.831 183.23 25.0142 183.13C25.6116 182.802 25.8387 182.034 25.5213 181.415C24.1911 178.827 22.9525 176.141 21.8403 173.432L21.6971 173.081C21.4351 172.435 20.7165 172.132 20.092 172.404C19.4676 172.676 19.1747 173.418 19.4379 174.064L19.5837 174.423C20.7242 177.201 21.9938 179.954 23.3576 182.605C23.5782 183.034 24.0027 183.278 24.4414 183.278H24.4401ZM388.055 178.077C388.519 178.077 388.962 177.804 389.169 177.341C389.597 176.381 390.016 175.399 390.418 174.423C391.206 172.504 391.947 170.539 392.618 168.583C392.845 167.924 392.51 167.198 391.873 166.965C391.236 166.731 390.534 167.075 390.308 167.735C389.653 169.642 388.931 171.558 388.162 173.432C387.772 174.383 387.361 175.342 386.943 176.278C386.659 176.914 386.928 177.668 387.543 177.961C387.71 178.04 387.884 178.079 388.055 178.079V178.077ZM17.4496 166.076C17.5722 166.076 17.6961 166.057 17.8199 166.016C18.465 165.805 18.8224 165.092 18.6186 164.425C17.7245 161.502 16.953 158.505 16.3259 155.514C16.1827 154.83 15.5298 154.395 14.8679 154.544C14.206 154.692 13.7867 155.368 13.93 156.052C14.5738 159.119 15.3647 162.194 16.2807 165.19C16.4459 165.73 16.9284 166.076 17.4496 166.076ZM394.09 160.492C394.637 160.492 395.136 160.111 395.277 159.537C396.024 156.494 396.643 153.376 397.114 150.272C397.218 149.581 396.762 148.931 396.093 148.823C395.425 148.715 394.797 149.187 394.692 149.879C394.232 152.905 393.629 155.944 392.9 158.912C392.734 159.591 393.13 160.28 393.787 160.454C393.888 160.48 393.989 160.492 394.09 160.492ZM13.6241 147.842C13.6732 147.842 13.7235 147.84 13.7738 147.833C14.446 147.749 14.9247 147.116 14.8421 146.421C14.486 143.39 14.2602 140.297 14.1725 137.223C14.1519 136.523 13.5906 135.972 12.9106 135.994C12.2346 136.016 11.7017 136.599 11.7224 137.299C11.8127 140.449 12.0436 143.622 12.4088 146.728C12.4849 147.371 13.0126 147.842 13.6241 147.842ZM396.895 142.061C397.536 142.061 398.075 141.546 398.116 140.875C398.253 138.661 398.323 136.405 398.323 134.171V131.456C398.323 130.755 397.775 130.188 397.097 130.188C396.42 130.188 395.872 130.755 395.872 131.456V134.171C395.872 136.351 395.803 138.551 395.67 140.712C395.626 141.411 396.14 142.013 396.815 142.058C396.842 142.06 396.868 142.061 396.895 142.061ZM12.9029 129.185C13.5803 129.185 14.1287 128.618 14.1287 127.918V118.575C14.1287 117.874 13.5803 117.307 12.9029 117.307C12.2256 117.307 11.6772 117.874 11.6772 118.575V127.918C11.6772 128.618 12.2256 129.185 12.9029 129.185ZM397.099 123.38C397.776 123.38 398.324 122.813 398.324 122.112V115.828C398.324 114.801 398.309 113.758 398.279 112.732C398.258 112.031 397.696 111.483 397.017 111.503C396.341 111.524 395.808 112.108 395.829 112.808C395.857 113.81 395.873 114.826 395.873 115.83V122.114C395.873 122.814 396.421 123.382 397.099 123.382V123.38ZM13.1094 110.505C13.7506 110.505 14.2899 109.99 14.3312 109.318C14.5221 106.258 14.8511 103.173 15.3105 100.15C15.415 99.4589 14.9583 98.8089 14.2899 98.7008C13.6229 98.5914 12.9945 99.0652 12.8887 99.7565C12.4178 102.855 12.0797 106.017 11.8849 109.156C11.841 109.855 12.3533 110.457 13.0294 110.502C13.0565 110.503 13.0823 110.505 13.1094 110.505ZM396.372 104.725C396.421 104.725 396.471 104.722 396.522 104.716C397.194 104.631 397.673 103.999 397.59 103.304C397.222 100.182 396.711 97.0447 396.069 93.9793C395.926 93.2947 395.273 92.8609 394.611 93.0077C393.949 93.1559 393.53 93.8311 393.673 94.5144C394.299 97.5051 394.798 100.565 395.157 103.609C395.233 104.252 395.761 104.724 396.372 104.724V104.725ZM15.9117 92.0722C16.4587 92.0722 16.9581 91.6892 17.0987 91.1154C17.8251 88.1514 18.696 85.1821 19.6869 82.2901C19.9127 81.6296 19.5798 80.9049 18.9411 80.6714C18.3025 80.4378 17.6019 80.7821 17.3761 81.4427C16.3594 84.408 15.4666 87.4534 14.7221 90.4922C14.5557 91.1714 14.9531 91.8601 15.6085 92.0322C15.7092 92.0589 15.8111 92.0709 15.9104 92.0709L15.9117 92.0722ZM392.556 86.4886C392.678 86.4886 392.802 86.4699 392.925 86.4299C393.57 86.219 393.928 85.5064 393.725 84.8391C392.811 81.8471 391.752 78.8617 390.575 75.9618C390.313 75.3159 389.595 75.013 388.97 75.2839C388.346 75.5548 388.053 76.2981 388.315 76.944C389.463 79.7719 390.496 82.6852 391.387 85.6024C391.552 86.1429 392.034 86.4886 392.556 86.4886ZM21.9345 74.4845C22.3977 74.4845 22.8415 74.2109 23.0479 73.7478C23.6905 72.3079 24.3756 70.8639 25.0826 69.4573C25.7393 68.1508 26.4348 66.8403 27.1508 65.5592C27.4902 64.9533 27.2889 64.1779 26.7031 63.8269C26.1174 63.4773 25.3677 63.6841 25.0284 64.29C24.2956 65.6019 23.582 66.9471 22.9086 68.2869C22.1835 69.7296 21.4816 71.2095 20.8223 72.6855C20.5384 73.3208 20.8068 74.0748 21.4223 74.3684C21.5887 74.4471 21.7629 74.4858 21.9345 74.4858V74.4845ZM385.572 69.2852C385.766 69.2852 385.963 69.2371 386.147 69.1357C386.744 68.8074 386.972 68.0387 386.653 67.4208C385.928 66.0116 385.16 64.5996 384.372 63.2251C383.612 61.9012 382.813 60.5747 381.996 59.2855C381.625 58.6997 380.866 58.5355 380.3 58.9199C379.733 59.3029 379.575 60.0889 379.946 60.6748C380.744 61.9332 381.523 63.2264 382.265 64.5196C383.034 65.8608 383.782 67.238 384.49 68.6126C384.711 69.0409 385.136 69.2852 385.573 69.2852H385.572ZM30.9583 58.326C31.3428 58.326 31.7221 58.1392 31.9608 57.7895C33.6665 55.29 35.5063 52.8371 37.4261 50.4977C37.8648 49.9638 37.8016 49.1645 37.2855 48.7107C36.7694 48.257 35.9966 48.3224 35.5579 48.8562C33.5903 51.2517 31.7066 53.7659 29.9584 56.3269C29.5674 56.8994 29.7003 57.6894 30.2525 58.0938C30.4667 58.2513 30.7144 58.326 30.9583 58.326ZM375.687 53.6738C375.954 53.6738 376.223 53.5844 376.447 53.3989C376.978 52.9639 377.067 52.1672 376.647 51.6173C374.763 49.1578 372.747 46.757 370.654 44.4789C370.188 43.9718 369.412 43.9505 368.921 44.4336C368.431 44.9153 368.41 45.7187 368.878 46.2258C370.919 48.4478 372.888 50.7913 374.726 53.1921C374.969 53.5084 375.326 53.6725 375.687 53.6725V53.6738ZM42.6386 44.1039C42.9496 44.1039 43.2592 43.9825 43.4979 43.7396C45.6139 41.5857 47.8447 39.5105 50.1297 37.5701C50.6522 37.1257 50.7283 36.3263 50.2987 35.7858C49.869 35.2453 49.0975 35.1666 48.5737 35.611C46.2319 37.5994 43.9456 39.7267 41.7781 41.9327C41.2955 42.4238 41.2891 43.2271 41.7639 43.7249C42.0039 43.9771 42.3212 44.1039 42.6374 44.1039H42.6386ZM363.257 40.1484C363.598 40.1484 363.936 40.0029 364.179 39.7173C364.625 39.1915 364.576 38.3908 364.068 37.9277C361.786 35.8539 359.388 33.8641 356.938 32.0118C356.391 31.5981 355.624 31.7222 355.224 32.288C354.824 32.8539 354.944 33.6466 355.491 34.0603C357.882 35.8672 360.223 37.809 362.448 39.8334C362.681 40.0456 362.97 40.1484 363.257 40.1484ZM56.5846 32.264C56.822 32.264 57.062 32.1933 57.2723 32.0451C59.7263 30.3196 62.2823 28.6928 64.8679 27.2101C65.4601 26.8712 65.6743 26.0985 65.3453 25.4873C65.0175 24.8747 64.2705 24.6532 63.6783 24.9935C61.0282 26.5135 58.409 28.1803 55.8944 29.9486C55.3344 30.3423 55.1886 31.131 55.5692 31.7102C55.8066 32.0705 56.1924 32.2653 56.5846 32.2653V32.264ZM348.689 29.1399C349.106 29.1399 349.511 28.921 349.741 28.5246C350.089 27.9241 349.901 27.1461 349.32 26.7857C348.811 26.4695 348.291 26.1532 347.775 25.8449C346.01 24.7933 344.856 24.0713 344.012 23.5442C342.93 22.8676 342.277 22.4592 341.434 22.0442C340.823 21.7426 340.091 22.0121 339.801 22.6434C339.509 23.2759 339.77 24.0326 340.38 24.3329C341.113 24.6932 341.691 25.0562 342.743 25.7141C343.594 26.2479 344.762 26.9779 346.549 28.0429C347.052 28.3431 347.559 28.6514 348.057 28.961C348.255 29.0838 348.473 29.1425 348.687 29.1425L348.689 29.1399ZM72.3627 23.2199C72.5279 23.2199 72.6956 23.1852 72.8556 23.1118C75.5664 21.8773 78.3649 20.759 81.1737 19.7861C81.8162 19.5646 82.162 18.8453 81.9465 18.182C81.7323 17.5174 81.0382 17.1598 80.3957 17.3827C77.5172 18.3795 74.6478 19.5259 71.8686 20.791C71.2493 21.0726 70.968 21.8213 71.2403 22.4619C71.4428 22.937 71.8918 23.2199 72.3627 23.2199Z" fill="#E3CBFF"/>
</svg>
