<svg width="523" height="138" viewBox="0 0 523 138" fill="none" xmlns="http://www.w3.org/2000/svg">
<path d="M437.119 14.0089C437.119 14.0089 428.79 -1.87445 417.657 0.18411C406.524 2.24267 407.989 9.55567 408.919 11.3201C409.85 13.0846 413.817 17.0457 420.034 13.0276C426.252 9.00952 427.243 18.198 427.775 25.4C428.309 32.602 428.152 43.4109 434.521 54.0098C434.521 54.0098 434.258 60.7016 440.711 58.511C443.104 57.6978 444.95 55.7173 443.808 47.399C443.539 45.4365 446.243 43.765 446.243 43.765L467.887 40.7192C467.887 40.7192 475.791 40.5661 477.751 47.345C477.751 47.345 478.489 49.7396 479.28 50.3488C480.075 50.955 488.057 52.2513 487.289 42.3516C486.661 34.2494 486.903 34.7565 486.903 34.7565C486.903 34.7565 489.857 33.2801 492.456 35.4077C499.685 41.3313 501.679 39.6329 500.836 35.8368C500.561 34.6005 495.966 18.9512 479.969 15.1432C459.987 10.3869 437.116 14.0089 437.116 14.0089H437.119Z" fill="#FF6464"/>
<path d="M116.15 46.0938H7.87305V108.274H116.15V46.0938Z" fill="#FF6464"/>
<path d="M6.49558 35.5332H117.531C121.114 35.5332 124.026 38.423 124.026 41.985V43.6834C124.026 47.2424 121.117 50.1352 117.531 50.1352H6.49558C2.91244 50.1352 0 47.2454 0 43.6834V41.985C0 38.426 2.90942 35.5332 6.49558 35.5332Z" fill="#E52C2C"/>
<path d="M115.078 103.973H8.94603C6.83196 103.973 5.11816 105.675 5.11816 107.775V108.774C5.11816 110.874 6.83196 112.576 8.94603 112.576H115.078C117.192 112.576 118.906 110.874 118.906 108.774V107.775C118.906 105.675 117.192 103.973 115.078 103.973Z" fill="#E52C2C"/>
<path d="M93.2944 124.38C99.8551 122.842 103.918 116.312 102.37 109.796C100.821 103.279 94.2476 99.2435 87.6869 100.782C81.1261 102.32 77.0629 108.849 78.6114 115.366C80.1599 121.882 86.7337 125.918 93.2944 124.38Z" fill="#474747"/>
<path d="M91.2526 115.549C92.9285 115.156 93.9664 113.488 93.5709 111.824C93.1753 110.159 91.4961 109.128 89.8202 109.521C88.1442 109.914 87.1063 111.582 87.5019 113.246C87.8974 114.911 89.5767 115.942 91.2526 115.549Z" fill="white"/>
<path d="M35.0708 124.38C41.6315 122.842 45.6947 116.312 44.1463 109.796C42.5978 103.279 36.024 99.2435 29.4632 100.782C22.9025 102.32 18.8393 108.849 20.3877 115.366C21.9362 121.882 28.51 125.918 35.0708 124.38Z" fill="#474747"/>
<path d="M34.5227 114.723C35.7403 113.514 35.7403 111.553 34.5227 110.343C33.3051 109.134 31.331 109.134 30.1134 110.343C28.8958 111.553 28.8958 113.514 30.1134 114.723C31.331 115.932 33.3051 115.932 34.5227 114.723Z" fill="white"/>
<path d="M253.437 54.8038L146.069 40.8965L137.973 102.554L245.341 116.462L253.437 54.8038Z" fill="#FFE164"/>
<path d="M254.279 58.9828L144.175 44.7229C140.619 44.2638 138.111 41.0259 138.573 37.491L138.794 35.8075C139.256 32.2755 142.516 29.7849 146.075 30.244L256.18 44.5039C259.736 44.963 262.243 48.2009 261.781 51.7358L261.56 53.4193C261.098 56.9513 257.838 59.4419 254.279 58.9828Z" fill="#FFC700"/>
<path d="M243.72 120.586L138.477 106.957C136.38 106.687 134.903 104.778 135.177 102.695L135.307 101.702C135.579 99.6196 137.501 98.1522 139.597 98.4253L244.841 112.055C246.938 112.325 248.415 114.234 248.14 116.316L248.01 117.309C247.738 119.392 245.817 120.859 243.72 120.586Z" fill="#FFC700"/>
<path d="M230.519 122.312C233.232 116.182 230.428 109.029 224.257 106.334C218.086 103.64 210.884 106.425 208.172 112.554C205.459 118.683 208.262 125.837 214.433 128.531C220.605 131.226 227.806 128.441 230.519 122.312Z" fill="#474747"/>
<path d="M170.24 118.526C175.006 113.791 175.006 106.115 170.24 101.381C165.473 96.6462 157.745 96.6462 152.978 101.381C148.212 106.115 148.212 113.791 152.978 118.526C157.745 123.26 165.473 123.26 170.24 118.526Z" fill="#474747"/>
<path d="M158.568 109.514C158.344 111.209 159.55 112.764 161.257 112.986C162.964 113.208 164.529 112.01 164.752 110.315C164.976 108.619 163.77 107.065 162.063 106.843C160.356 106.621 158.791 107.818 158.568 109.514Z" fill="white"/>
<path d="M383.56 53.3945H275.283V115.574H383.56V53.3945Z" fill="#7DCC4A"/>
<path d="M384.937 42.8359H273.902C270.314 42.8359 267.406 45.7245 267.406 49.2877V50.9832C267.406 54.5464 270.314 57.4349 273.902 57.4349H384.937C388.524 57.4349 391.433 54.5464 391.433 50.9832V49.2877C391.433 45.7245 388.524 42.8359 384.937 42.8359Z" fill="#56A842"/>
<path d="M276.352 111.271H382.487C384.599 111.271 386.315 112.976 386.315 115.074V116.076C386.315 118.173 384.599 119.878 382.487 119.878H276.352C274.24 119.878 272.524 118.173 272.524 116.076V115.074C272.524 112.976 274.24 111.271 276.352 111.271Z" fill="#56A842"/>
<path d="M366.53 128.446C371.296 123.711 371.296 116.035 366.53 111.301C361.763 106.566 354.035 106.566 349.268 111.301C344.502 116.035 344.502 123.711 349.268 128.446C354.035 133.18 361.763 133.18 366.53 128.446Z" fill="#474747"/>
<path d="M308.309 128.447C313.076 123.713 313.076 116.037 308.309 111.303C303.542 106.568 295.814 106.568 291.048 111.303C286.281 116.037 286.281 123.713 291.048 128.447C295.814 133.182 303.542 133.182 308.309 128.447Z" fill="#474747"/>
<path d="M513.775 41.2343L406.068 52.252L412.482 114.105L520.189 103.087L513.775 41.2343Z" fill="#5CCAFF"/>
<path d="M403.607 41.8898L514.058 30.5915C517.622 30.2269 520.817 32.8052 521.185 36.3484L521.36 38.0379C521.727 41.5782 519.131 44.7518 515.564 45.1167L405.113 56.415C401.549 56.7796 398.354 54.2014 397.986 50.6581L397.811 48.9686C397.444 45.4284 400.04 42.2547 403.607 41.8898Z" fill="#3B93EA"/>
<path d="M519.565 107.485L413.989 118.282C411.886 118.498 410.007 116.98 409.789 114.891L409.687 113.895C409.469 111.806 410.998 109.94 413.101 109.724L518.676 98.9267C520.779 98.7107 522.658 100.229 522.876 102.318L522.979 103.314C523.196 105.402 521.667 107.269 519.565 107.485Z" fill="#3B93EA"/>
<path d="M495.944 122.066C502.669 121.608 507.747 115.822 507.286 109.142C506.825 102.463 501 97.4186 494.275 97.8763C487.55 98.334 482.471 104.12 482.932 110.8C483.393 117.48 489.218 122.524 495.944 122.066Z" fill="#474747"/>
<path d="M495.713 113.026C497.407 112.715 498.526 111.1 498.213 109.418C497.9 107.736 496.273 106.624 494.58 106.935C492.887 107.246 491.768 108.861 492.081 110.543C492.394 112.225 494.02 113.337 495.713 113.026Z" fill="white"/>
<path d="M443.208 126.43C449.073 123.129 451.133 115.731 447.809 109.906C444.486 104.08 437.037 102.034 431.172 105.335C425.308 108.636 423.247 116.035 426.571 121.86C429.895 127.685 437.343 129.731 443.208 126.43Z" fill="#474747"/>
<path d="M439.651 117.808C440.737 116.481 440.535 114.531 439.199 113.451C437.863 112.372 435.899 112.573 434.813 113.9C433.726 115.227 433.929 117.178 435.265 118.257C436.601 119.336 438.564 119.135 439.651 117.808Z" fill="white"/>
<path d="M416.416 78.7314L374.172 81.4595C371.755 81.6156 369.922 83.6889 370.08 86.0902L370.155 87.2371C370.312 89.6384 372.399 91.4585 374.817 91.3024L417.061 88.5743C419.478 88.4182 421.311 86.345 421.154 83.9436L421.079 82.7967C420.921 80.3954 418.834 78.5753 416.416 78.7314Z" fill="#B7B7B7"/>
<path d="M282.153 90.8785L241.086 87.9287C238.361 87.7336 236.294 85.36 236.49 82.6532C236.687 79.9465 239.077 77.8939 241.802 78.089L282.869 81.0388C285.594 81.2339 287.661 83.6075 287.464 86.3142C287.268 89.021 284.878 91.0735 282.153 90.8785Z" fill="#B7B7B7"/>
<path d="M148.664 79.4053L107.522 81.0077C104.794 81.1127 102.473 78.9822 102.368 76.2724C102.262 73.5627 104.407 71.2581 107.135 71.153L148.278 69.5506C151.006 69.4456 153.326 71.5761 153.432 74.2859C153.538 76.9956 151.393 79.3003 148.664 79.4053Z" fill="#B7B7B7"/>
<path d="M216.599 117.027C216.375 118.723 217.581 120.277 219.288 120.499C220.995 120.721 222.56 119.524 222.783 117.829C223.007 116.133 221.801 114.579 220.094 114.357C218.388 114.135 216.823 115.332 216.599 117.027Z" fill="white"/>
<path d="M296.634 119.432C296.41 121.127 297.616 122.682 299.322 122.904C301.029 123.126 302.594 121.928 302.818 120.233C303.042 118.537 301.836 116.983 300.129 116.761C298.422 116.539 296.857 117.736 296.634 119.432Z" fill="white"/>
<path d="M360.245 122.296C361.61 121.253 361.865 119.309 360.815 117.953C359.765 116.598 357.808 116.344 356.443 117.387C355.078 118.43 354.823 120.374 355.873 121.73C356.923 123.086 358.88 123.339 360.245 122.296Z" fill="white"/>
</svg>
