<svg width="315" height="135" viewBox="0 0 315 135" fill="none" xmlns="http://www.w3.org/2000/svg">
<path d="M70.2551 97.006L12.5798 58.7468L14.1191 41.1577L77.5749 13.3398L70.2551 97.006Z" fill="#FEE9BB"/>
<path d="M76.9506 38.145L77.0778 39.2578L12.4504 46.5929L12.3232 45.4801L76.9506 38.145Z" fill="white"/>
<path d="M11.8835 53.092L74.2681 71.377L73.948 72.4512L11.5634 54.1663L11.8835 53.092Z" fill="white"/>
<path d="M3.34671 52.6222C2.30889 51.9344 1.7226 50.4931 1.85611 48.9633C1.98963 47.4335 2.81884 46.1139 3.95916 45.614L14.1192 41.1602L12.5798 58.7493L3.34494 52.6242L3.34671 52.6222Z" fill="#4AAB78"/>
<path d="M70.2487 97.0769L77.5681 13.4102L268.844 29.7616L261.525 113.428L70.2487 97.0769Z" fill="#52BD85"/>
<path d="M261.518 113.499L268.837 29.832L280.628 30.8399L273.308 114.507L261.518 113.499Z" fill="#B3705A"/>
<path d="M280.628 30.8574L273.309 114.524L290.034 115.954C296.831 116.535 302.828 111.526 303.418 104.776L308.598 45.5705C309.188 38.8191 304.149 32.8681 297.353 32.2872L280.628 30.8574Z" fill="#BDEEBF"/>
<path d="M72.4556 71.8577L75.3624 38.6309L266.639 54.9823L263.732 88.2091L72.4556 71.8577Z" fill="#4AAB78"/>
</svg>
