<svg width="100" height="100" viewBox="0 0 100 100" fill="none" xmlns="http://www.w3.org/2000/svg">
<path fill-rule="evenodd" clip-rule="evenodd" d="M85.4344 14.5333C76.031 5.16667 63.5294 0.00416667 50.2114 0C22.7674 0 0.431233 22.225 0.418673 49.55C0.414486 58.2833 2.70881 66.8083 7.0672 74.325L0 100L26.3931 93.1083C33.6655 97.0583 41.8547 99.1375 50.1863 99.1417H50.2072C77.647 99.1417 99.9874 76.9125 100 49.5875C100.008 36.35 94.8336 23.8958 85.4344 14.5333ZM50.2114 90.7708H50.1947C42.7674 90.7708 35.4867 88.7833 29.1312 85.0292L27.6198 84.1375L11.9573 88.225L16.1398 73.025L15.156 71.4667C11.0111 64.9083 8.82562 57.3292 8.82981 49.55C8.83818 26.8417 27.4063 8.36667 50.2324 8.36667C61.2853 8.36667 71.6768 12.6583 79.4892 20.4417C87.3016 28.2292 91.6014 38.575 91.5972 49.5792C91.5847 72.2958 73.0207 90.7708 50.2114 90.7708ZM72.9119 59.925C71.6684 59.3042 65.5516 56.3083 64.4086 55.8958C63.2698 55.4833 62.4409 55.275 61.6077 56.5125C60.7745 57.75 58.3965 60.5417 57.668 61.3708C56.9437 62.1958 56.2152 62.3 54.9717 61.6792C53.7283 61.0583 49.7174 59.7542 44.9655 55.5333C41.2686 52.25 38.7691 48.1958 38.0448 46.9542C37.3205 45.7125 37.9694 45.0458 38.5891 44.4292C39.1501 43.875 39.8325 42.9833 40.4563 42.2583C41.0844 41.5417 41.2895 41.025 41.7082 40.1958C42.1227 39.3708 41.9175 38.6458 41.6035 38.025C41.2895 37.4083 38.8026 31.3125 37.7685 28.8333C36.7595 26.4167 35.7337 26.7458 34.9675 26.7083C34.2432 26.6708 33.4143 26.6667 32.5811 26.6667C31.7521 26.6667 30.404 26.975 29.2652 28.2167C28.1264 29.4583 24.911 32.4542 24.911 38.5458C24.911 44.6417 29.3699 50.5292 29.9895 51.3542C30.6092 52.1792 38.7607 64.6875 51.2414 70.05C54.2097 71.325 56.5292 72.0875 58.3337 72.6583C61.3146 73.6 64.0276 73.4667 66.1712 73.15C68.5619 72.7958 73.5315 70.1542 74.5698 67.2625C75.6081 64.3708 75.6081 61.8875 75.2941 61.375C74.9843 60.8542 74.1553 60.5458 72.9119 59.925Z" fill="#3A3A3A"/>
</svg>
