<svg width="100" height="100" viewBox="0 0 100 100" fill="none" xmlns="http://www.w3.org/2000/svg">
<path d="M77.7341 3.87563L26.9341 54.6756C24.9938 56.6054 23.4556 58.9009 22.4086 61.4291C21.3615 63.9574 20.8263 66.6683 20.8341 69.4048V75.0006C20.8341 76.1057 21.2731 77.1655 22.0545 77.9469C22.8359 78.7283 23.8957 79.1673 25.0007 79.1673H30.5966C33.3331 79.175 36.0439 78.6399 38.5722 77.5928C41.1005 76.5457 43.396 75.0075 45.3257 73.0673L96.1257 22.2673C98.5607 19.8263 99.9282 16.5193 99.9282 13.0715C99.9282 9.62365 98.5607 6.31658 96.1257 3.87563C93.6494 1.50852 90.3556 0.1875 86.9299 0.1875C83.5042 0.1875 80.2104 1.50852 77.7341 3.87563ZM90.2341 16.3756L39.4341 67.1756C37.0846 69.5108 33.9091 70.8253 30.5966 70.834H29.1674V69.4048C29.1761 66.0923 30.4906 62.9168 32.8257 60.5673L83.6257 9.76729C84.5157 8.91711 85.6991 8.44268 86.9299 8.44268C88.1607 8.44268 89.3441 8.91711 90.2341 9.76729C91.1088 10.6444 91.6001 11.8327 91.6001 13.0715C91.6001 14.3102 91.1088 15.4985 90.2341 16.3756Z" fill="#3A3A3A"/>
<path d="M95.8333 37.4125C94.7283 37.4125 93.6685 37.8515 92.8871 38.6329C92.1057 39.4143 91.6667 40.4741 91.6667 41.5792V62.5H75C71.6848 62.5 68.5054 63.817 66.1612 66.1612C63.817 68.5054 62.5 71.6848 62.5 75V91.6667H20.8333C17.5181 91.6667 14.3387 90.3497 11.9945 88.0055C9.65029 85.6613 8.33333 82.4819 8.33333 79.1667V20.8333C8.33333 17.5181 9.65029 14.3387 11.9945 11.9945C14.3387 9.65029 17.5181 8.33333 20.8333 8.33333H58.5083C59.6134 8.33333 60.6732 7.89435 61.4546 7.11295C62.236 6.33154 62.675 5.27174 62.675 4.16667C62.675 3.0616 62.236 2.00179 61.4546 1.22039C60.6732 0.438987 59.6134 0 58.5083 0L20.8333 0C15.31 0.00661607 10.0148 2.20368 6.10925 6.10925C2.20368 10.0148 0.00661607 15.31 0 20.8333L0 79.1667C0.00661607 84.69 2.20368 89.9852 6.10925 93.8908C10.0148 97.7963 15.31 99.9934 20.8333 100H68.0958C70.833 100.008 73.5445 99.4727 76.0735 98.4257C78.6024 97.3786 80.8986 95.8404 82.8292 93.9L93.8958 82.825C95.8365 80.8953 97.3752 78.5999 98.4229 76.0717C99.4707 73.5435 100.007 70.8326 100 68.0958V41.5792C100 40.4741 99.561 39.4143 98.7796 38.6329C97.9982 37.8515 96.9384 37.4125 95.8333 37.4125ZM76.9375 88.0083C75.2626 89.6792 73.1445 90.8358 70.8333 91.3417V75C70.8333 73.8949 71.2723 72.8351 72.0537 72.0537C72.8351 71.2723 73.8949 70.8333 75 70.8333H91.3542C90.8387 73.1396 89.6834 75.2539 88.0208 76.9333L76.9375 88.0083Z" fill="#3A3A3A"/>
</svg>
