<svg width="100" height="100" viewBox="0 0 100 100" fill="none" xmlns="http://www.w3.org/2000/svg">
<g clip-path="url(#clip0_166_21229)">
<path d="M79.1667 8.33333H75V4.16667C75 3.0616 74.561 2.00179 73.7796 1.22039C72.9982 0.438987 71.9384 0 70.8333 0C69.7283 0 68.6685 0.438987 67.887 1.22039C67.1056 2.00179 66.6667 3.0616 66.6667 4.16667V8.33333H33.3333V4.16667C33.3333 3.0616 32.8943 2.00179 32.1129 1.22039C31.3315 0.438987 30.2717 0 29.1667 0C28.0616 0 27.0018 0.438987 26.2204 1.22039C25.439 2.00179 25 3.0616 25 4.16667V8.33333H20.8333C15.31 8.33995 10.0148 10.537 6.10925 14.4426C2.20367 18.3482 0.00661607 23.6434 0 29.1667L0 79.1667C0.00661607 84.69 2.20367 89.9852 6.10925 93.8908C10.0148 97.7963 15.31 99.9934 20.8333 100H79.1667C84.69 99.9934 89.9852 97.7963 93.8908 93.8908C97.7963 89.9852 99.9934 84.69 100 79.1667V29.1667C99.9934 23.6434 97.7963 18.3482 93.8908 14.4426C89.9852 10.537 84.69 8.33995 79.1667 8.33333ZM8.33333 29.1667C8.33333 25.8515 9.65029 22.672 11.9945 20.3278C14.3387 17.9836 17.5181 16.6667 20.8333 16.6667H79.1667C82.4819 16.6667 85.6613 17.9836 88.0055 20.3278C90.3497 22.672 91.6667 25.8515 91.6667 29.1667V33.3333H8.33333V29.1667ZM79.1667 91.6667H20.8333C17.5181 91.6667 14.3387 90.3497 11.9945 88.0055C9.65029 85.6613 8.33333 82.4819 8.33333 79.1667V41.6667H91.6667V79.1667C91.6667 82.4819 90.3497 85.6613 88.0055 88.0055C85.6613 90.3497 82.4819 91.6667 79.1667 91.6667Z" fill="#3A3A3A"/>
<path d="M50 68.75C53.4518 68.75 56.25 65.9518 56.25 62.5C56.25 59.0482 53.4518 56.25 50 56.25C46.5482 56.25 43.75 59.0482 43.75 62.5C43.75 65.9518 46.5482 68.75 50 68.75Z" fill="#3A3A3A"/>
<path d="M29.1667 68.75C32.6184 68.75 35.4167 65.9518 35.4167 62.5C35.4167 59.0482 32.6184 56.25 29.1667 56.25C25.7149 56.25 22.9167 59.0482 22.9167 62.5C22.9167 65.9518 25.7149 68.75 29.1667 68.75Z" fill="#3A3A3A"/>
<path d="M70.8333 68.75C74.2851 68.75 77.0833 65.9518 77.0833 62.5C77.0833 59.0482 74.2851 56.25 70.8333 56.25C67.3816 56.25 64.5833 59.0482 64.5833 62.5C64.5833 65.9518 67.3816 68.75 70.8333 68.75Z" fill="#3A3A3A"/>
</g>
<defs>
<clipPath id="clip0_166_21229">
<rect width="100" height="100" fill="white"/>
</clipPath>
</defs>
</svg>
