<svg width="100" height="100" viewBox="0 0 100 100" fill="none" xmlns="http://www.w3.org/2000/svg">
<path d="M37.3611 100H16.6698C12.2487 100 8.00865 98.244 4.88246 95.1184C1.75627 91.9928 0 87.7536 0 83.3333V62.5C0 58.0797 1.75627 53.8405 4.88246 50.7149C8.00865 47.5893 12.2487 45.8333 16.6698 45.8333H53.5808C55.8362 45.8344 58.0532 46.4176 60.0171 47.5263C61.9811 48.6351 63.6255 50.232 64.7912 52.1625L78.1979 37.4333C79.3068 36.2141 80.6452 35.2254 82.1365 34.5236C83.6278 33.8218 85.2429 33.4208 86.8893 33.3434C88.5357 33.266 90.1813 33.5138 91.7319 34.0725C93.2825 34.6313 94.7077 35.4902 95.9262 36.6C98.3573 38.833 99.8143 41.9312 99.9834 45.2276C100.153 48.524 99.0204 51.755 96.8305 54.225L68.4919 86.0458C64.5791 90.4334 59.7831 93.9447 54.4182 96.3495C49.0532 98.7543 43.2406 99.9983 37.3611 100ZM16.6698 54.1667C14.4592 54.1667 12.3392 55.0446 10.7761 56.6074C9.21302 58.1702 8.33488 60.2899 8.33488 62.5V83.3333C8.33488 85.5435 9.21302 87.6631 10.7761 89.2259C12.3392 90.7887 14.4592 91.6667 16.6698 91.6667H37.3611C42.0617 91.6648 46.7088 90.6697 50.9978 88.7468C55.2869 86.8238 59.1211 84.0163 62.2491 80.5083L90.6085 48.6833C91.3448 47.8541 91.726 46.769 91.6698 45.6616C91.6137 44.5541 91.1248 43.513 90.3085 42.7625C89.4784 42.0163 88.39 41.6232 87.2746 41.6667C86.7216 41.6901 86.1789 41.8233 85.678 42.0587C85.1772 42.294 84.7282 42.6268 84.3574 43.0375L65.9123 63.3333C65.1025 65.574 63.6994 67.5529 61.8527 69.0587C60.0061 70.5645 57.7852 71.5408 55.427 71.8833L33.9188 74.9583C32.8246 75.1152 31.7128 74.8311 30.8281 74.1685C29.9434 73.5059 29.3582 72.519 29.2013 71.425C29.0443 70.331 29.3285 69.2194 29.9912 68.3349C30.654 67.4503 31.641 66.8653 32.7353 66.7083L54.2476 63.6375C55.4417 63.4706 56.528 62.8568 57.2869 61.92C58.0458 60.9832 58.4208 59.7934 58.3361 58.5909C58.2515 57.3883 57.7135 56.2628 56.8308 55.4415C55.9481 54.6203 54.7865 54.1647 53.5808 54.1667H16.6698ZM45.8419 37.8083C43.953 37.8134 42.1192 37.1724 40.6451 35.9917C33.5104 30.2667 25.0047 21.6667 25.0047 13.3333C24.9023 9.90986 26.1602 6.58519 28.5031 4.08652C30.8461 1.58785 34.0834 0.118551 37.507 0C40.6215 0.0121284 43.6097 1.23257 45.8419 3.40417C48.0741 1.23257 51.0622 0.0121284 54.1768 0C57.6003 0.118551 60.8376 1.58785 63.1806 4.08652C65.5235 6.58519 66.7814 9.90986 66.6791 13.3333C66.6791 21.6667 58.1733 30.2667 51.0345 35.9958C49.5609 37.1741 47.7288 37.8136 45.8419 37.8083ZM37.507 8.33333C36.2957 8.45484 35.1805 9.04675 34.4012 9.98177C33.6219 10.9168 33.2407 12.1202 33.3395 13.3333C33.3395 17.0833 38.1363 23.2917 45.8669 29.4958C53.5475 23.2917 58.3442 17.0833 58.3442 13.3333C58.4431 12.1202 58.0619 10.9168 57.2825 9.98177C56.5032 9.04675 55.388 8.45484 54.1768 8.33333C52.9655 8.45484 51.8503 9.04675 51.071 9.98177C50.2916 10.9168 49.9104 12.1202 50.0093 13.3333C50.0093 14.4384 49.5702 15.4982 48.7887 16.2796C48.0071 17.061 46.9471 17.5 45.8419 17.5C44.7366 17.5 43.6766 17.061 42.895 16.2796C42.1135 15.4982 41.6744 14.4384 41.6744 13.3333C41.7733 12.1202 41.3921 10.9168 40.6128 9.98177C39.8334 9.04675 38.7182 8.45484 37.507 8.33333Z" fill="#3A3A3A"/>
</svg>
