<svg width="360" height="128" viewBox="0 0 360 128" fill="none" xmlns="http://www.w3.org/2000/svg">
<path d="M39.8665 106.788C43.1036 50.9056 103.501 6.35255 177.541 6.35255C251.582 6.35255 311.979 50.9056 315.217 106.788H323.553C320.303 47.3885 256.182 0 177.541 0C98.9013 0 34.7796 47.3885 31.5303 106.788H39.8665Z" fill="#FFA98B"/>
<path d="M48.2022 106.788C51.4393 54.4094 108.101 12.7041 177.541 12.7041C246.981 12.7041 303.655 54.4094 306.88 106.788H315.216C311.979 50.9046 251.581 6.35156 177.541 6.35156C103.501 6.35156 43.1031 50.9046 39.866 106.788H48.2022Z" fill="#FFEE55"/>
<path d="M56.5391 106.787C59.7641 57.9255 112.702 19.0557 177.554 19.0557C242.406 19.0557 295.344 57.9133 298.569 106.787H306.905C303.668 54.4084 247.006 12.7031 177.566 12.7031C108.126 12.7031 51.44 54.4084 48.2029 106.787H56.5391Z" fill="#81D988"/>
<path d="M64.8874 106.789C68.1002 61.4332 117.314 25.4233 177.554 25.4233C237.794 25.4233 287.008 61.4454 290.22 106.789H298.569C295.344 57.9284 242.406 19.0586 177.554 19.0586C112.702 19.0586 59.764 57.9284 56.5391 106.789H64.8874Z" fill="#81A6E0"/>
<path d="M73.2239 106.788C76.4245 64.9488 121.902 31.7744 177.542 31.7744C233.182 31.7744 278.659 64.9488 281.86 106.788H290.208C286.996 61.4318 237.782 25.4219 177.542 25.4219C117.302 25.4219 68.1005 61.4318 64.8877 106.788H73.2361H73.2239Z" fill="#925BFF"/>
<path d="M13.2607 91.5928C13.2607 91.5928 13.3342 91.5267 13.3709 91.512C13.5032 91.4607 13.6282 91.3946 13.7605 91.3506C13.8928 91.3065 14.0545 91.3359 14.1868 91.2918C14.3192 91.2478 14.4368 91.145 14.5691 91.101C14.7014 91.057 14.8558 91.0863 14.9954 91.0496C15.1277 91.0129 15.2454 90.9175 15.385 90.8808C15.5173 90.8441 15.6423 90.7487 15.782 90.7193C15.9143 90.6826 16.0539 90.6312 16.1862 90.6019C16.3259 90.5725 16.4729 90.5872 16.6126 90.5578C16.7522 90.5285 16.8919 90.5211 17.0316 90.4991C17.1712 90.4698 17.2962 90.4037 17.4359 90.3817C17.5755 90.3597 17.7372 90.4844 17.8769 90.4624C18.0166 90.4404 18.1342 90.2569 18.2738 90.2422C18.4135 90.2275 18.5679 90.3376 18.7075 90.323C18.8472 90.3083 18.9795 90.2422 19.1192 90.2275C19.2588 90.2129 19.4059 90.2863 19.5455 90.2789C19.6852 90.2716 19.8248 90.2936 19.9645 90.2789C20.1042 90.2716 20.2365 90.1101 20.3762 90.1101C20.5158 90.1101 20.6555 90.1468 20.7951 90.1468C20.9348 90.1468 21.0745 90.0294 21.2141 90.0294C21.3538 90.0294 21.5008 90.0294 21.6405 90.0367C21.7801 90.0367 21.9198 90.1174 22.0595 90.1174C22.1991 90.1174 22.3388 90.1615 22.4785 90.1688C22.6181 90.1762 22.7578 90.2129 22.8974 90.2275C23.0371 90.2349 23.1768 90.2642 23.3164 90.2789C23.4561 90.2936 23.6105 90.1615 23.7501 90.1835C23.8898 90.1982 24.0074 90.4184 24.1397 90.4331C24.2794 90.4477 24.4484 90.2569 24.5881 90.2716C24.7278 90.2936 24.8454 90.4257 24.9851 90.4477C25.1247 90.4698 25.257 90.5138 25.3967 90.5358C25.5364 90.5652 25.6834 90.5211 25.823 90.5505C25.9627 90.5799 26.1024 90.5799 26.242 90.6166C26.3817 90.6459 26.514 90.69 26.6537 90.7193C26.7933 90.756 26.9403 90.7413 27.0727 90.778C27.205 90.8147 27.3373 90.8808 27.4696 90.9175C27.6019 90.9542 27.7195 91.0716 27.8518 91.1157C27.9841 91.1597 28.1238 91.1891 28.2561 91.2331C28.3884 91.2772 28.484 91.4386 28.6163 91.4827C28.7486 91.5267 28.925 91.4607 29.0573 91.5047C29.1897 91.5561 29.3146 91.6221 29.4469 91.6735C29.5792 91.7249 29.741 91.6955 29.8659 91.7543C29.9982 91.8056 30.1085 91.9011 30.2408 91.9524C30.3658 92.0112 30.4246 92.2314 30.5495 92.2901C30.6745 92.3488 30.9097 92.1947 31.0347 92.2534C31.1597 92.3121 31.2699 92.4075 31.3949 92.4736C31.5198 92.5396 31.5639 92.7525 31.6889 92.8186C31.8139 92.8846 32.027 92.7892 32.1446 92.8626C32.2696 92.9287 32.3872 93.0094 32.5048 93.0828C32.6224 93.1562 32.7548 93.2149 32.8724 93.2883C32.99 93.3617 32.99 93.6186 33.1076 93.6994C33.2252 93.7728 33.4457 93.6994 33.556 93.7801C33.6736 93.8609 33.7765 93.9489 33.8941 94.0297C34.0117 94.1104 34.0485 94.2939 34.1587 94.3747C34.269 94.4554 34.4454 94.4627 34.5557 94.5435C34.6659 94.6316 34.7394 94.7563 34.8497 94.8444C34.8865 94.8738 34.9306 94.9031 34.9673 94.9325C34.9894 94.8664 35.0114 94.8004 35.0555 94.7637C35.1658 94.6756 35.2908 94.6095 35.401 94.5215C35.5113 94.4334 35.5921 94.3086 35.7024 94.2205C35.8127 94.1398 36.0626 94.2425 36.1802 94.1618C36.2905 94.0811 36.2831 93.8242 36.4007 93.7434C36.5183 93.6627 36.6874 93.67 36.805 93.5966C36.9226 93.5232 37.0182 93.4058 37.1358 93.3324C37.2534 93.259 37.3784 93.1929 37.5033 93.1268C37.6209 93.0534 37.7459 92.98 37.8635 92.914C37.9885 92.8479 38.084 92.7231 38.2016 92.6571C38.3266 92.591 38.5398 92.7011 38.6647 92.6351C38.7897 92.569 38.9147 92.5103 39.0396 92.4516C39.1646 92.3928 39.2454 92.246 39.3778 92.18C39.5027 92.1213 39.613 92.0185 39.7453 91.9671C39.8702 91.9084 40.0026 91.857 40.1349 91.7983C40.2672 91.7469 40.3921 91.6882 40.5245 91.6368C40.6568 91.5854 40.767 91.4827 40.8993 91.4386C41.0317 91.3873 41.1934 91.424 41.3257 91.3799C41.458 91.3359 41.5903 91.2772 41.7226 91.2331C41.8549 91.1891 42.0093 91.2184 42.149 91.1744C42.2813 91.1304 42.4062 91.0643 42.5459 91.0276C42.6782 90.9909 42.7958 90.8735 42.9281 90.8368C43.0605 90.8001 43.2222 90.8661 43.3618 90.8368C43.4941 90.8001 43.6044 90.6606 43.7441 90.6312C43.8837 90.6019 44.0161 90.5652 44.1557 90.5358C44.2954 90.5065 44.4571 90.6239 44.5968 90.6019C44.7364 90.5725 44.8687 90.5505 45.0084 90.5285C45.1481 90.5065 45.273 90.4184 45.4127 90.3964C45.5524 90.3743 45.692 90.3743 45.8317 90.3523C45.9713 90.3376 46.1037 90.2496 46.2433 90.2349C46.383 90.2202 46.5226 90.2055 46.6623 90.1908C46.802 90.1762 46.9416 90.1541 47.0813 90.1395C47.221 90.1321 47.368 90.1835 47.5076 90.1762C47.6473 90.1688 47.7796 90.0587 47.9266 90.0514C48.0663 90.0514 48.206 90.0514 48.3456 90.0514C48.4853 90.0514 48.6249 90.1174 48.7646 90.1174C48.9043 90.1174 49.0439 90.1321 49.1836 90.1395C49.3233 90.1395 49.4629 90.1908 49.6026 90.1982C49.7423 90.1982 49.8893 90.0514 50.0289 90.0587C50.1686 90.0661 50.3009 90.1688 50.4406 90.1835C50.5802 90.1908 50.7199 90.2055 50.8596 90.2202C50.9992 90.2349 51.1389 90.2275 51.2786 90.2422C51.4182 90.2569 51.5652 90.2349 51.7049 90.2496C51.8446 90.2642 51.9622 90.4477 52.0945 90.4624C52.2342 90.4844 52.3812 90.4257 52.5208 90.4477C52.6605 90.4698 52.8075 90.4477 52.9398 90.4698C53.0795 90.4991 53.2191 90.5211 53.3515 90.5505C53.4911 90.5799 53.6161 90.6679 53.7484 90.6973C53.8881 90.7267 54.013 90.7854 54.1527 90.8147C54.2924 90.8514 54.4541 90.7634 54.5864 90.8001C54.7187 90.8368 54.8363 90.9542 54.9686 90.9982C55.1009 91.0349 55.2259 91.101 55.3656 91.145C55.4979 91.1891 55.6228 91.2551 55.7551 91.2992C55.8875 91.3432 56.0124 91.4093 56.1447 91.4533C56.277 91.4974 56.4461 91.4386 56.5784 91.49C56.7107 91.5414 56.8504 91.5634 56.9827 91.6148C57.115 91.6662 57.2253 91.7616 57.3576 91.813C57.4899 91.8644 57.5634 92.0405 57.6957 92.0919C57.8207 92.1506 58.0412 92.0185 58.1662 92.0772C58.2911 92.1359 58.4087 92.2314 58.5337 92.2901C58.6587 92.3488 58.7616 92.4662 58.8865 92.5323C59.0115 92.5984 59.0997 92.7231 59.2247 92.7892C59.3496 92.8553 59.4893 92.8846 59.6143 92.9507C59.7392 93.0167 59.8715 93.0608 59.9892 93.1342C60.1068 93.2076 60.2905 93.1856 60.4081 93.259C60.5258 93.3324 60.636 93.4278 60.7536 93.5012C60.8712 93.5746 60.9962 93.648 61.1065 93.7287C61.2241 93.8095 61.2829 93.971 61.3931 94.0517C61.5108 94.1324 61.6357 94.1912 61.746 94.2792C61.8562 94.36 62.0106 94.3967 62.1209 94.4848C62.2311 94.5728 62.2973 94.7123 62.4075 94.8004C62.4443 94.8297 62.481 94.8518 62.5178 94.8738C62.5546 94.8518 62.5987 94.8371 62.6281 94.8151C62.7383 94.727 62.8927 94.6976 63.0029 94.6169C63.1132 94.5288 63.2161 94.4334 63.3264 94.3526C63.4366 94.2719 63.5543 94.1985 63.6719 94.1178C63.7895 94.037 63.8409 93.8682 63.9585 93.7875C64.0762 93.7067 64.282 93.7654 64.3996 93.692C64.5172 93.6186 64.5613 93.4351 64.6863 93.3617C64.8039 93.2883 64.9215 93.2149 65.0464 93.1415C65.1641 93.0681 65.3184 93.0534 65.436 92.98C65.561 92.914 65.6051 92.7085 65.7301 92.6424C65.855 92.5763 66.0167 92.5763 66.1343 92.5103C66.2593 92.4442 66.399 92.4149 66.5239 92.3561C66.6489 92.2974 66.7739 92.2314 66.8988 92.1653C67.0238 92.1066 67.1267 91.9965 67.259 91.9378C67.384 91.879 67.5383 91.8717 67.6633 91.8203C67.7956 91.7689 67.9573 91.8056 68.0896 91.7543C68.222 91.7029 68.3616 91.6809 68.4939 91.6295C68.6262 91.5781 68.7218 91.4386 68.8541 91.3873C68.9864 91.3432 69.1408 91.3726 69.2731 91.3212C69.4054 91.2772 69.5377 91.2405 69.67 91.1964C69.8024 91.1524 69.8759 90.9102 70.0082 90.8661C70.1405 90.8294 70.2875 90.8221 70.4272 90.7854C70.5595 90.7487 70.6918 90.6753 70.8241 90.6459C70.9564 90.6092 71.1181 90.6679 71.2578 90.6386C71.3975 90.6092 71.5518 90.6753 71.6915 90.6386C71.8312 90.6092 71.9708 90.6166 72.1105 90.5945C72.2501 90.5652 72.3678 90.4404 72.5074 90.4184C72.6471 90.3964 72.7867 90.3964 72.9264 90.3743C73.0661 90.3523 73.2131 90.411 73.3528 90.389C73.4924 90.3743 73.6174 90.2642 73.757 90.2422C73.8967 90.2275 74.0437 90.2789 74.1834 90.2642C74.323 90.2496 74.448 90.0661 74.5877 90.0514C74.7273 90.044 74.867 90.0514 75.0067 90.044C75.1463 90.0367 75.286 90.0073 75.4257 90C75.5653 90 75.7123 90.0661 75.852 90.0661C75.9917 90.0661 76.1313 90.1248 76.271 90.1248C76.4107 90.1248 76.5503 90.0881 76.6973 90.0954C76.837 90.0954 76.9767 90.0734 77.1163 90.0734C77.256 90.0734 77.3957 90.1835 77.5353 90.1908C77.675 90.1982 77.8146 90.1615 77.9543 90.1688C78.094 90.1762 78.2336 90.2129 78.3733 90.2202C78.513 90.2349 78.6673 90.1395 78.7996 90.1541C78.9393 90.1688 79.0569 90.3376 79.1966 90.3523C79.3362 90.367 79.4979 90.2055 79.6376 90.2202C79.7773 90.2422 79.9096 90.323 80.0419 90.345C80.1816 90.367 80.3065 90.4551 80.4462 90.4844C80.5859 90.5138 80.7182 90.5725 80.8505 90.5945C80.9901 90.6239 81.1225 90.6606 81.2548 90.69C81.3944 90.7193 81.5194 90.7707 81.6591 90.8074C81.7987 90.8441 81.9751 90.6973 82.1148 90.734C82.2471 90.7707 82.3794 90.8441 82.5117 90.8808C82.6441 90.9175 82.7323 91.123 82.8646 91.1597C82.9969 91.2038 83.1586 91.1597 83.2909 91.2038C83.4232 91.2478 83.5408 91.3432 83.6732 91.3873C83.8055 91.4313 83.9451 91.4607 84.0774 91.512C84.2098 91.5634 84.3127 91.6809 84.445 91.7322C84.5773 91.7836 84.7243 91.791 84.8493 91.8423C84.9816 91.8937 85.1433 91.8717 85.2683 91.9304C85.3932 91.9891 85.4961 92.1066 85.6211 92.1726C85.7461 92.2314 85.9151 92.2093 86.0401 92.2754C86.165 92.3341 86.29 92.4075 86.415 92.4662C86.5399 92.5323 86.6502 92.6204 86.7752 92.6864C86.9001 92.7525 86.9589 92.936 87.0765 93.0021C87.2015 93.0681 87.4 93.0021 87.5176 93.0755C87.6352 93.1489 87.7822 93.1856 87.8998 93.259C88.0174 93.3324 88.0468 93.5526 88.1644 93.626C88.2821 93.6994 88.4144 93.7581 88.5246 93.8388C88.6422 93.9196 88.8113 93.9196 88.9216 94.0003C89.0392 94.0811 89.1862 94.1104 89.3038 94.1912C89.4141 94.2719 89.4214 94.4994 89.5317 94.5875C89.6419 94.6756 89.7963 94.705 89.9066 94.793C90.0168 94.8811 90.0756 95.0279 90.1785 95.116C90.2888 95.2041 90.3844 95.3068 90.4873 95.4023C90.5902 95.4977 90.7445 95.5344 90.8475 95.6298C90.9504 95.7252 91.1341 95.7326 91.237 95.828C91.34 95.9234 91.4355 96.0335 91.5311 96.1289C91.634 96.2243 91.6266 96.4299 91.7222 96.5326C91.8177 96.6354 91.9133 96.7381 92.0015 96.8409C92.0971 96.9437 92.2 97.0391 92.2955 97.1418C92.3911 97.2446 92.5308 97.3107 92.619 97.4134C92.7072 97.5235 92.7366 97.6777 92.8248 97.7878C92.913 97.8979 93.0012 98.0006 93.0894 98.1107C93.1776 98.2208 93.2658 98.3309 93.3467 98.441C93.4276 98.5511 93.4423 98.7126 93.5231 98.83C93.604 98.9475 93.8098 98.9695 93.8906 99.0869C93.9715 99.2044 94.1038 99.2851 94.1847 99.4026C94.2582 99.52 94.3243 99.6448 94.3979 99.7696C94.4714 99.887 94.442 100.071 94.5081 100.188C94.5816 100.313 94.6625 100.423 94.7286 100.548C94.7948 100.672 94.8683 100.79 94.9345 100.915C95.0006 101.039 95.1109 101.142 95.1697 101.267C95.2285 101.392 95.2064 101.561 95.2652 101.685C95.324 101.81 95.3828 101.942 95.4343 102.067C95.4931 102.199 95.5593 102.317 95.6181 102.449C95.6695 102.581 95.7136 102.713 95.7651 102.845C95.8165 102.977 95.8753 103.102 95.9194 103.234C95.9636 103.366 95.9342 103.52 95.9783 103.66C96.0224 103.792 96.0812 103.917 96.1179 104.056C96.1547 104.188 96.287 104.298 96.3237 104.438C96.3605 104.57 96.2723 104.739 96.3017 104.878C96.3384 105.01 96.5884 105.098 96.6178 105.238C96.6472 105.377 96.4928 105.554 96.5149 105.686C96.5443 105.825 96.6545 105.943 96.6839 106.082C96.706 106.221 96.7574 106.354 96.7721 106.493C96.7942 106.632 96.6913 106.787 96.706 106.926C96.7207 107.066 96.7354 107.205 96.7427 107.344C96.7574 107.484 96.8383 107.616 96.853 107.756C96.8603 107.895 96.8236 108.034 96.8309 108.174C96.8309 108.313 96.8456 108.453 96.853 108.592C96.853 108.732 96.8236 108.871 96.8236 109.011C96.8236 109.15 97 109.312 97 109.451C97 109.591 96.8383 109.73 96.8309 109.869C96.8309 110.009 96.8603 110.148 96.853 110.288C96.8456 110.427 96.8309 110.567 96.8162 110.706C96.8015 110.846 96.6913 110.97 96.6692 111.11C96.6545 111.249 96.6766 111.389 96.6619 111.528C96.6398 111.668 96.7721 111.829 96.7427 111.969C96.7207 112.108 96.6472 112.24 96.6178 112.372C96.5884 112.512 96.5296 112.644 96.5002 112.776C96.4708 112.916 96.5002 113.062 96.4634 113.202C96.4267 113.341 96.3164 113.451 96.2796 113.591C96.2429 113.723 96.1326 113.84 96.0959 113.973C96.0591 114.105 96.14 114.281 96.0959 114.413C96.0518 114.545 95.9268 114.655 95.8827 114.787C95.8386 114.919 95.6916 115.015 95.6401 115.147C95.5887 115.279 95.7504 115.492 95.6989 115.617C95.6475 115.749 95.596 115.881 95.5446 116.006C95.4858 116.13 95.2946 116.204 95.2358 116.329C95.177 116.453 95.2064 116.622 95.1476 116.747C95.0888 116.872 95.0815 117.026 95.0153 117.151C94.9492 117.276 94.7213 117.312 94.6551 117.437C94.589 117.562 94.6772 117.767 94.6037 117.892C94.5375 118.01 94.4272 118.112 94.3537 118.237C94.2802 118.354 94.0965 118.406 94.023 118.523C93.9495 118.641 93.9348 118.795 93.8539 118.912C93.773 119.03 93.7363 119.169 93.6554 119.287C93.5746 119.404 93.4864 119.507 93.3982 119.624C93.3173 119.734 93.1041 119.756 93.0233 119.867C92.9351 119.977 92.9792 120.19 92.891 120.3C92.8027 120.41 92.6704 120.483 92.5822 120.586C92.494 120.696 92.4352 120.828 92.347 120.938C92.2514 121.041 92.053 121.048 91.9574 121.151C91.8619 121.254 91.8177 121.401 91.7148 121.503C91.6193 121.606 91.5825 121.768 91.4796 121.863C91.3841 121.958 91.1488 121.922 91.0459 122.025C90.943 122.12 90.9504 122.333 90.8475 122.428C90.7445 122.524 90.5828 122.553 90.4726 122.641C90.3697 122.736 90.2815 122.847 90.1785 122.942C90.0683 123.03 89.936 123.089 89.8257 123.177C89.7154 123.265 89.5978 123.331 89.4876 123.419C89.3773 123.507 89.3479 123.705 89.2377 123.786C89.1274 123.867 89.0318 123.984 88.9216 124.065C88.804 124.146 88.5761 124.065 88.4585 124.138C88.3409 124.219 88.2747 124.359 88.1571 124.439C88.0395 124.513 87.9072 124.564 87.7822 124.638C87.6646 124.711 87.6058 124.894 87.4882 124.961C87.3706 125.034 87.2677 125.144 87.15 125.21C87.0251 125.276 86.8413 125.239 86.7237 125.305C86.5987 125.372 86.4811 125.445 86.3562 125.511C86.2312 125.577 86.1356 125.695 86.0107 125.753C85.8857 125.812 85.7461 125.849 85.6137 125.907C85.4888 125.966 85.3418 125.988 85.2168 126.047C85.0918 126.106 84.9742 126.186 84.8419 126.245C84.7096 126.296 84.5846 126.348 84.4523 126.399C84.32 126.451 84.1436 126.362 84.0113 126.414C83.879 126.465 83.7981 126.656 83.6658 126.7C83.5335 126.744 83.4085 126.825 83.2762 126.869C83.1439 126.913 82.9969 126.906 82.8572 126.95C82.7249 126.994 82.6073 127.082 82.4676 127.118C82.3353 127.155 82.1663 127.074 82.0266 127.118C81.8943 127.155 81.7693 127.229 81.6297 127.258C81.4973 127.295 81.3871 127.449 81.2474 127.485C81.1078 127.515 80.9313 127.368 80.799 127.397C80.6594 127.427 80.5197 127.405 80.38 127.434C80.2404 127.463 80.1081 127.508 79.9757 127.53C79.8361 127.552 79.7111 127.647 79.5715 127.662C79.4318 127.684 79.2995 127.742 79.1598 127.764C79.0202 127.779 78.8805 127.786 78.7408 127.801C78.6012 127.816 78.4615 127.786 78.3218 127.801C78.1822 127.816 78.0425 127.808 77.9028 127.823C77.7632 127.83 77.6309 127.97 77.4912 127.977C77.3515 127.985 77.2045 127.816 77.0649 127.823C76.9252 127.823 76.7855 127.948 76.6459 127.948C76.5062 127.948 76.3665 127.875 76.2269 127.875C76.0872 127.875 75.9476 127.963 75.8005 127.955C75.6609 127.955 75.5212 127.955 75.3815 127.941C75.2419 127.941 75.1022 127.941 74.9626 127.933C74.8229 127.926 74.6906 127.757 74.5509 127.75C74.4113 127.742 74.2495 127.955 74.1099 127.941C73.9702 127.926 73.8306 127.926 73.6909 127.904C73.5512 127.889 73.4116 127.882 73.2719 127.86C73.1322 127.845 73.0146 127.654 72.8823 127.632C72.7426 127.61 72.5956 127.647 72.456 127.632C72.3163 127.61 72.184 127.574 72.0443 127.544C71.9047 127.515 71.7724 127.485 71.6327 127.456C71.493 127.427 71.346 127.456 71.2063 127.419C71.0667 127.39 70.9564 127.265 70.8168 127.236C70.6771 127.199 70.5154 127.273 70.3831 127.236C70.2508 127.199 70.1405 127.06 70.0082 127.023C69.8759 126.986 69.7436 126.92 69.6112 126.884C69.4789 126.84 69.354 126.774 69.2217 126.729C69.0893 126.685 68.9129 126.766 68.7806 126.715C68.6483 126.671 68.5233 126.597 68.3984 126.546C68.2661 126.495 68.1558 126.399 68.0235 126.348C67.8912 126.296 67.7589 126.26 67.6265 126.208C67.4942 126.157 67.3325 126.179 67.2076 126.12C67.0826 126.062 66.987 125.937 66.8547 125.878C66.7298 125.819 66.5533 125.856 66.4284 125.797C66.3034 125.739 66.1785 125.658 66.0608 125.599C65.9359 125.533 65.9065 125.291 65.7889 125.217C65.6639 125.151 65.4875 125.181 65.3699 125.115C65.2449 125.049 65.1126 125.005 64.9876 124.931C64.87 124.858 64.8259 124.667 64.7083 124.594C64.5907 124.52 64.3702 124.608 64.2526 124.527C64.135 124.454 64.0835 124.278 63.9659 124.197C63.8483 124.116 63.6792 124.124 63.5616 124.043C63.444 123.962 63.3999 123.793 63.2896 123.705C63.1794 123.625 63.0765 123.522 62.9662 123.441C62.8559 123.353 62.6648 123.368 62.5546 123.28C62.4884 123.228 62.4516 123.14 62.4075 123.059C62.3634 123.089 62.312 123.111 62.2679 123.148C62.1576 123.236 62.1356 123.426 62.0253 123.515C61.915 123.603 61.7313 123.588 61.621 123.669C61.5107 123.749 61.4152 123.852 61.2976 123.933C61.18 124.014 61.1653 124.227 61.0477 124.307C60.93 124.388 60.7977 124.439 60.6801 124.513C60.5625 124.586 60.4522 124.682 60.3346 124.755C60.217 124.828 60.0112 124.755 59.8862 124.828C59.7686 124.902 59.7098 125.085 59.5922 125.151C59.4673 125.217 59.3276 125.254 59.2026 125.32C59.0777 125.386 58.9601 125.467 58.8351 125.526C58.7101 125.592 58.6072 125.695 58.4823 125.761C58.3573 125.819 58.2323 125.893 58.1074 125.959C57.9824 126.017 57.8648 126.113 57.7398 126.164C57.6149 126.223 57.4532 126.208 57.3208 126.26C57.1885 126.311 57.0709 126.384 56.9386 126.436C56.8063 126.487 56.6372 126.436 56.5049 126.487C56.3726 126.539 56.277 126.678 56.1447 126.722C56.0124 126.766 55.8801 126.81 55.7478 126.854C55.6155 126.898 55.4611 126.869 55.3215 126.913C55.1891 126.957 55.0421 126.957 54.9098 126.994C54.7775 127.03 54.6672 127.177 54.5349 127.214C54.4026 127.251 54.2482 127.236 54.1159 127.265C53.9836 127.302 53.8587 127.405 53.719 127.434C53.5793 127.463 53.4103 127.331 53.2706 127.353C53.1309 127.383 53.0133 127.5 52.881 127.53C52.7413 127.559 52.609 127.596 52.4694 127.618C52.3297 127.64 52.1827 127.61 52.043 127.632C51.9034 127.654 51.7564 127.618 51.624 127.632C51.4844 127.647 51.3668 127.838 51.2271 127.852C51.0874 127.867 50.9478 127.852 50.8081 127.867C50.6685 127.882 50.5288 127.919 50.3891 127.926C50.2495 127.933 50.1024 127.823 49.9628 127.83C49.8231 127.838 49.6835 127.83 49.5438 127.83C49.4041 127.83 49.2645 127.963 49.1248 127.963C48.9851 127.963 48.8455 127.823 48.7058 127.823C48.5661 127.823 48.4265 127.955 48.2795 127.955C48.1398 127.955 47.9928 128.007 47.8531 127.999C47.7135 127.999 47.5738 127.919 47.4341 127.911C47.2945 127.904 47.1475 127.955 47.0078 127.948C46.8681 127.941 46.7211 127.948 46.5888 127.933C46.4491 127.919 46.3315 127.698 46.1919 127.676C46.0522 127.662 45.9125 127.676 45.7729 127.662C45.6332 127.647 45.4935 127.654 45.3539 127.632C45.2142 127.61 45.0819 127.566 44.9422 127.544C44.8026 127.522 44.6629 127.522 44.5233 127.5C44.3836 127.471 44.2219 127.588 44.0822 127.559C43.9425 127.53 43.8029 127.5 43.6706 127.471C43.5309 127.441 43.4206 127.309 43.281 127.273C43.1413 127.236 43.0237 127.163 42.884 127.126C42.7517 127.089 42.6194 127.045 42.4798 127.008C42.3474 126.972 42.2078 126.942 42.0755 126.898C41.9431 126.854 41.7741 126.928 41.6418 126.884C41.5095 126.84 41.3698 126.818 41.2375 126.766C41.1052 126.722 41.0464 126.48 40.914 126.429C40.7817 126.377 40.5906 126.487 40.4583 126.436C40.326 126.384 40.179 126.37 40.054 126.318C39.9217 126.267 39.8482 126.084 39.7232 126.032C39.5983 125.973 39.4586 125.944 39.3263 125.885C39.2013 125.827 39.0764 125.753 38.9514 125.695C38.8264 125.636 38.7309 125.511 38.6059 125.445C38.481 125.379 38.3707 125.298 38.2457 125.225C38.1208 125.159 37.915 125.239 37.7973 125.173C37.6724 125.107 37.5915 124.975 37.4666 124.902C37.349 124.828 37.2387 124.733 37.1211 124.66C37.0035 124.586 36.8859 124.505 36.7682 124.432C36.6506 124.359 36.4742 124.366 36.3566 124.285C36.239 124.204 36.239 123.97 36.1214 123.889C36.0038 123.808 35.7686 123.889 35.6583 123.808C35.548 123.727 35.5701 123.463 35.4598 123.375C35.3496 123.287 35.107 123.375 34.9967 123.287C34.9673 123.265 34.9379 123.236 34.9085 123.206C34.8938 123.228 34.8791 123.25 34.8571 123.265C34.7468 123.353 34.5777 123.36 34.4675 123.448C34.3572 123.537 34.3058 123.698 34.1881 123.779C34.0779 123.86 33.8574 123.801 33.7471 123.882C33.6295 123.962 33.6148 124.182 33.4972 124.263C33.3796 124.344 33.1737 124.285 33.0561 124.359C32.9385 124.432 32.9018 124.63 32.7842 124.704C32.6665 124.777 32.4607 124.704 32.3358 124.777C32.2182 124.85 32.1667 125.041 32.0417 125.107C31.9168 125.173 31.8433 125.335 31.7183 125.401C31.5933 125.467 31.4316 125.46 31.3067 125.526C31.1817 125.592 31.042 125.614 30.9097 125.68C30.7848 125.739 30.6304 125.746 30.5054 125.805C30.3805 125.863 30.2776 125.973 30.1453 126.032C30.0203 126.091 29.8439 126.039 29.7189 126.091C29.5866 126.142 29.4984 126.282 29.3661 126.333C29.2338 126.384 29.1162 126.473 28.9912 126.524C28.8589 126.575 28.756 126.693 28.6237 126.744C28.4913 126.788 28.337 126.781 28.2047 126.825C28.0724 126.869 27.9253 126.884 27.793 126.92C27.6607 126.964 27.4916 126.891 27.3593 126.935C27.227 126.972 27.1021 127.06 26.9697 127.096C26.8374 127.133 26.7198 127.243 26.5802 127.28C26.4478 127.317 26.3302 127.449 26.1906 127.478C26.0509 127.508 25.8745 127.346 25.7348 127.375C25.5952 127.405 25.4702 127.471 25.3305 127.5C25.1909 127.53 25.0512 127.5 24.9115 127.53C24.7719 127.552 24.6469 127.647 24.5073 127.662C24.3676 127.684 24.2206 127.618 24.0809 127.64C23.9413 127.654 23.8163 127.764 23.6766 127.779C23.537 127.794 23.3973 127.823 23.2576 127.838C23.118 127.852 22.9783 127.838 22.8386 127.852C22.699 127.86 22.5667 127.955 22.427 127.97C22.2873 127.977 22.1477 127.97 22.008 127.97C21.8684 127.97 21.7287 127.948 21.589 127.955C21.4494 127.955 21.3097 127.955 21.17 127.955C21.0304 127.955 20.8907 127.911 20.751 127.904C20.6114 127.904 20.4717 127.801 20.332 127.794C20.1924 127.794 20.0454 127.875 19.9057 127.867C19.766 127.86 19.6264 127.897 19.4867 127.889C19.3471 127.882 19.2147 127.801 19.0751 127.786C18.9354 127.772 18.7957 127.75 18.6561 127.728C18.5164 127.713 18.3841 127.64 18.2444 127.625C18.1048 127.61 17.9431 127.757 17.8034 127.735C17.6637 127.713 17.5167 127.72 17.3844 127.698C17.2448 127.676 17.1124 127.603 16.9801 127.574C16.8405 127.544 16.7228 127.441 16.5832 127.419C16.4435 127.39 16.2892 127.441 16.1568 127.419C16.0172 127.39 15.9216 127.192 15.7893 127.155C15.6496 127.118 15.4953 127.163 15.363 127.133C15.2307 127.096 15.113 126.986 14.9807 126.95C14.8484 126.913 14.7088 126.891 14.5764 126.847C14.4441 126.803 14.2604 126.92 14.128 126.876C13.9957 126.832 13.8855 126.715 13.7532 126.671C13.6208 126.627 13.4885 126.575 13.3562 126.531C13.3121 126.517 13.2754 126.495 13.2313 126.473V91.5928H13.2607Z" fill="white"/>
<path d="M83.7393 91.5928C83.7393 91.5928 83.6658 91.5267 83.6291 91.512C83.4968 91.4607 83.3718 91.3946 83.2395 91.3506C83.1072 91.3065 82.9455 91.3359 82.8132 91.2918C82.6808 91.2478 82.5632 91.145 82.4309 91.101C82.2986 91.057 82.1442 91.0863 82.0046 91.0496C81.8723 91.0129 81.7546 90.9175 81.615 90.8808C81.4827 90.8441 81.3577 90.7487 81.218 90.7193C81.0857 90.6826 80.9461 90.6312 80.8138 90.6019C80.6741 90.5725 80.5271 90.5872 80.3874 90.5578C80.2478 90.5285 80.1081 90.5211 79.9684 90.4991C79.8288 90.4698 79.7038 90.4037 79.5641 90.3817C79.4245 90.3597 79.2628 90.4844 79.1231 90.4624C78.9834 90.4404 78.8658 90.2569 78.7262 90.2422C78.5865 90.2275 78.4321 90.3376 78.2925 90.323C78.1528 90.3083 78.0205 90.2422 77.8808 90.2275C77.7412 90.2129 77.5941 90.2863 77.4545 90.2789C77.3148 90.2716 77.1752 90.2936 77.0355 90.2789C76.8958 90.2716 76.7635 90.1101 76.6238 90.1101C76.4842 90.1101 76.3445 90.1468 76.2049 90.1468C76.0652 90.1468 75.9255 90.0294 75.7859 90.0294C75.6462 90.0294 75.4992 90.0294 75.3595 90.0367C75.2199 90.0367 75.0802 90.1174 74.9405 90.1174C74.8009 90.1174 74.6612 90.1615 74.5215 90.1688C74.3819 90.1762 74.2422 90.2129 74.1026 90.2275C73.9629 90.2349 73.8232 90.2642 73.6836 90.2789C73.5439 90.2936 73.3895 90.1615 73.2499 90.1835C73.1102 90.1982 72.9926 90.4184 72.8603 90.4331C72.7206 90.4477 72.5516 90.2569 72.4119 90.2716C72.2722 90.2936 72.1546 90.4257 72.015 90.4477C71.8753 90.4698 71.743 90.5138 71.6033 90.5358C71.4637 90.5652 71.3166 90.5211 71.177 90.5505C71.0373 90.5799 70.8976 90.5799 70.758 90.6166C70.6183 90.6459 70.486 90.69 70.3463 90.7193C70.2067 90.756 70.0597 90.7413 69.9273 90.778C69.795 90.8147 69.6627 90.8808 69.5304 90.9175C69.3981 90.9542 69.2805 91.0716 69.1482 91.1157C69.0159 91.1597 68.8762 91.1891 68.7439 91.2331C68.6116 91.2772 68.516 91.4386 68.3837 91.4827C68.2514 91.5267 68.075 91.4607 67.9427 91.5047C67.8103 91.5561 67.6854 91.6221 67.5531 91.6735C67.4208 91.7249 67.259 91.6955 67.1341 91.7543C67.0018 91.8056 66.8915 91.9011 66.7592 91.9524C66.6342 92.0112 66.5754 92.2314 66.4505 92.2901C66.3255 92.3488 66.0903 92.1947 65.9653 92.2534C65.8404 92.3121 65.7301 92.4075 65.6051 92.4736C65.4802 92.5396 65.4361 92.7525 65.3111 92.8186C65.1861 92.8846 64.973 92.7892 64.8554 92.8626C64.7304 92.9287 64.6128 93.0094 64.4952 93.0828C64.3776 93.1562 64.2452 93.2149 64.1276 93.2883C64.01 93.3617 64.01 93.6186 63.8924 93.6994C63.7748 93.7728 63.5543 93.6994 63.444 93.7801C63.3264 93.8609 63.2235 93.9489 63.1059 94.0297C62.9883 94.1104 62.9515 94.2939 62.8413 94.3747C62.731 94.4554 62.5546 94.4627 62.4443 94.5435C62.3341 94.6316 62.2606 94.7563 62.1503 94.8444C62.1135 94.8738 62.0694 94.9031 62.0327 94.9325C62.0106 94.8664 61.9886 94.8004 61.9445 94.7637C61.8342 94.6756 61.7093 94.6095 61.599 94.5215C61.4887 94.4334 61.4079 94.3086 61.2976 94.2205C61.1873 94.1398 60.9374 94.2425 60.8198 94.1618C60.7096 94.0811 60.7169 93.8242 60.5993 93.7434C60.4817 93.6627 60.3126 93.67 60.195 93.5966C60.0774 93.5232 59.9818 93.4058 59.8642 93.3324C59.7466 93.259 59.6216 93.1929 59.4967 93.1268C59.3791 93.0534 59.2541 92.98 59.1365 92.914C59.0115 92.8479 58.916 92.7231 58.7984 92.6571C58.6734 92.591 58.4602 92.7011 58.3353 92.6351C58.2103 92.569 58.0853 92.5103 57.9604 92.4516C57.8354 92.3928 57.7546 92.246 57.6223 92.18C57.4973 92.1213 57.387 92.0185 57.2547 91.9671C57.1298 91.9084 56.9974 91.857 56.8651 91.7983C56.7328 91.7469 56.6079 91.6882 56.4755 91.6368C56.3432 91.5854 56.233 91.4827 56.1007 91.4386C55.9683 91.3873 55.8066 91.424 55.6743 91.3799C55.542 91.3359 55.4097 91.2772 55.2774 91.2331C55.1451 91.1891 54.9907 91.2184 54.851 91.1744C54.7187 91.1304 54.5938 91.0643 54.4541 91.0276C54.3218 90.9909 54.2042 90.8735 54.0719 90.8368C53.9395 90.8001 53.7778 90.8661 53.6382 90.8368C53.5059 90.8001 53.3956 90.6606 53.2559 90.6312C53.1163 90.6019 52.984 90.5652 52.8443 90.5358C52.7046 90.5065 52.5429 90.6239 52.4032 90.6019C52.2636 90.5725 52.1313 90.5505 51.9916 90.5285C51.8519 90.5065 51.727 90.4184 51.5873 90.3964C51.4477 90.3743 51.308 90.3743 51.1683 90.3523C51.0287 90.3376 50.8964 90.2496 50.7567 90.2349C50.617 90.2202 50.4774 90.2055 50.3377 90.1908C50.198 90.1762 50.0584 90.1541 49.9187 90.1395C49.779 90.1321 49.632 90.1835 49.4924 90.1762C49.3527 90.1688 49.2204 90.0587 49.0734 90.0514C48.9337 90.0514 48.794 90.0514 48.6544 90.0514C48.5147 90.0514 48.3751 90.1174 48.2354 90.1174C48.0957 90.1174 47.9561 90.1321 47.8164 90.1395C47.6767 90.1395 47.5371 90.1908 47.3974 90.1982C47.2577 90.1982 47.1107 90.0514 46.9711 90.0587C46.8314 90.0661 46.6991 90.1688 46.5594 90.1835C46.4198 90.1908 46.2801 90.2055 46.1404 90.2202C46.0008 90.2349 45.8611 90.2275 45.7214 90.2422C45.5818 90.2569 45.4348 90.2349 45.2951 90.2496C45.1554 90.2642 45.0378 90.4477 44.9055 90.4624C44.7659 90.4844 44.6188 90.4257 44.4792 90.4477C44.3395 90.4698 44.1925 90.4477 44.0602 90.4698C43.9205 90.4991 43.7809 90.5211 43.6485 90.5505C43.5089 90.5799 43.3839 90.6679 43.2516 90.6973C43.1119 90.7267 42.987 90.7854 42.8473 90.8147C42.7077 90.8514 42.5459 90.7634 42.4136 90.8001C42.2813 90.8368 42.1637 90.9542 42.0314 90.9982C41.8991 91.0349 41.7741 91.101 41.6344 91.145C41.5021 91.1891 41.3772 91.2551 41.2449 91.2992C41.1125 91.3432 40.9876 91.4093 40.8553 91.4533C40.723 91.4974 40.5539 91.4386 40.4216 91.49C40.2893 91.5414 40.1496 91.5634 40.0173 91.6148C39.885 91.6662 39.7747 91.7616 39.6424 91.813C39.5101 91.8644 39.4366 92.0405 39.3043 92.0919C39.1793 92.1506 38.9588 92.0185 38.8338 92.0772C38.7089 92.1359 38.5913 92.2314 38.4663 92.2901C38.3413 92.3488 38.2384 92.4662 38.1135 92.5323C37.9885 92.5984 37.9003 92.7231 37.7753 92.7892C37.6504 92.8553 37.5107 92.8846 37.3857 92.9507C37.2608 93.0167 37.1285 93.0608 37.0108 93.1342C36.8932 93.2076 36.7095 93.1856 36.5919 93.259C36.4742 93.3324 36.364 93.4278 36.2464 93.5012C36.1288 93.5746 36.0038 93.648 35.8935 93.7287C35.7759 93.8095 35.7171 93.971 35.6069 94.0517C35.4893 94.1324 35.3643 94.1912 35.254 94.2792C35.1438 94.36 34.9894 94.3967 34.8791 94.4848C34.7689 94.5728 34.7027 94.7123 34.5925 94.8004C34.5557 94.8297 34.519 94.8518 34.4822 94.8738C34.4454 94.8518 34.4013 94.8371 34.3719 94.8151C34.2617 94.727 34.1073 94.6976 33.9971 94.6169C33.8868 94.5288 33.7839 94.4334 33.6736 94.3526C33.5634 94.2719 33.4458 94.1985 33.3281 94.1178C33.2105 94.037 33.1591 93.8682 33.0415 93.7875C32.9239 93.7067 32.718 93.7654 32.6004 93.692C32.4828 93.6186 32.4387 93.4351 32.3137 93.3617C32.1961 93.2883 32.0785 93.2149 31.9536 93.1415C31.8359 93.0681 31.6816 93.0534 31.564 92.98C31.439 92.914 31.3949 92.7085 31.2699 92.6424C31.145 92.5763 30.9833 92.5763 30.8657 92.5103C30.7407 92.4442 30.601 92.4149 30.4761 92.3561C30.3511 92.2974 30.2261 92.2314 30.1012 92.1653C29.9762 92.1066 29.8733 91.9965 29.741 91.9378C29.616 91.879 29.4617 91.8717 29.3367 91.8203C29.2044 91.7689 29.0427 91.8056 28.9104 91.7543C28.778 91.7029 28.6384 91.6809 28.5061 91.6295C28.3738 91.5781 28.2782 91.4386 28.1459 91.3873C28.0136 91.3432 27.8592 91.3726 27.7269 91.3212C27.5946 91.2772 27.4623 91.2405 27.33 91.1964C27.1976 91.1524 27.1241 90.9102 26.9918 90.8661C26.8595 90.8294 26.7125 90.8221 26.5728 90.7854C26.4405 90.7487 26.3082 90.6753 26.1759 90.6459C26.0436 90.6092 25.8819 90.6679 25.7422 90.6386C25.6025 90.6092 25.4482 90.6753 25.3085 90.6386C25.1688 90.6092 25.0292 90.6166 24.8895 90.5945C24.7499 90.5652 24.6322 90.4404 24.4926 90.4184C24.3529 90.3964 24.2133 90.3964 24.0736 90.3743C23.9339 90.3523 23.7869 90.411 23.6472 90.389C23.5076 90.3743 23.3826 90.2642 23.243 90.2422C23.1033 90.2275 22.9563 90.2789 22.8166 90.2642C22.677 90.2496 22.552 90.0661 22.4123 90.0514C22.2727 90.044 22.133 90.0514 21.9933 90.044C21.8537 90.0367 21.714 90.0073 21.5743 90C21.4347 90 21.2877 90.0661 21.148 90.0661C21.0083 90.0661 20.8687 90.1248 20.729 90.1248C20.5894 90.1248 20.4497 90.0881 20.3027 90.0954C20.163 90.0954 20.0233 90.0734 19.8837 90.0734C19.744 90.0734 19.6044 90.1835 19.4647 90.1908C19.325 90.1982 19.1854 90.1615 19.0457 90.1688C18.906 90.1762 18.7664 90.2129 18.6267 90.2202C18.487 90.2349 18.3327 90.1395 18.2004 90.1541C18.0607 90.1688 17.9431 90.3376 17.8034 90.3523C17.6638 90.367 17.5021 90.2055 17.3624 90.2202C17.2227 90.2422 17.0904 90.323 16.9581 90.345C16.8184 90.367 16.6935 90.4551 16.5538 90.4844C16.4141 90.5138 16.2818 90.5725 16.1495 90.5945C16.0099 90.6239 15.8775 90.6606 15.7452 90.69C15.6056 90.7193 15.4806 90.7707 15.3409 90.8074C15.2013 90.8441 15.0249 90.6973 14.8852 90.734C14.7529 90.7707 14.6206 90.8441 14.4883 90.8808C14.3559 90.9175 14.2677 91.123 14.1354 91.1597C14.0031 91.2038 13.8414 91.1597 13.7091 91.2038C13.5768 91.2478 13.4592 91.3432 13.3268 91.3873C13.1945 91.4313 13.0549 91.4607 12.9226 91.512C12.7902 91.5634 12.6873 91.6809 12.555 91.7322C12.4227 91.7836 12.2757 91.791 12.1507 91.8423C12.0184 91.8937 11.8567 91.8717 11.7317 91.9304C11.6068 91.9891 11.5039 92.1066 11.3789 92.1726C11.2539 92.2314 11.0849 92.2093 10.9599 92.2754C10.835 92.3341 10.71 92.4075 10.585 92.4662C10.4601 92.5323 10.3498 92.6204 10.2248 92.6864C10.0999 92.7525 10.0411 92.936 9.92346 93.0021C9.7985 93.0681 9.60003 93.0021 9.48242 93.0755C9.36481 93.1489 9.2178 93.1856 9.10019 93.259C8.98257 93.3324 8.95317 93.5526 8.83556 93.626C8.71795 93.6994 8.58563 93.7581 8.47537 93.8388C8.35776 93.9196 8.1887 93.9196 8.07844 94.0003C7.96082 94.0811 7.81381 94.1104 7.6962 94.1912C7.58594 94.2719 7.57859 94.4994 7.46833 94.5875C7.35807 94.6756 7.2037 94.705 7.09344 94.793C6.98318 94.8811 6.92437 95.0279 6.82146 95.116C6.7112 95.2041 6.61564 95.3068 6.51273 95.4023C6.40982 95.4977 6.25546 95.5344 6.15255 95.6298C6.04964 95.7252 5.86587 95.7326 5.76296 95.828C5.66005 95.9234 5.56449 96.0335 5.46893 96.1289C5.36602 96.2243 5.37337 96.4299 5.27781 96.5326C5.18225 96.6354 5.08669 96.7381 4.99849 96.8409C4.90293 96.9437 4.80002 97.0391 4.70446 97.1418C4.6089 97.2446 4.46923 97.3107 4.38103 97.4134C4.29282 97.5235 4.26341 97.6777 4.17521 97.7878C4.087 97.8979 3.99879 98.0006 3.91058 98.1107C3.82237 98.2208 3.73416 98.3309 3.65331 98.441C3.57245 98.5511 3.55775 98.7126 3.47689 98.83C3.39603 98.9475 3.19021 98.9695 3.10935 99.0869C3.02849 99.2044 2.89618 99.2851 2.81532 99.4026C2.74182 99.52 2.67566 99.6448 2.60215 99.7696C2.52865 99.887 2.55805 100.071 2.49189 100.188C2.41839 100.313 2.33753 100.423 2.27137 100.548C2.20521 100.672 2.13171 100.79 2.06555 100.915C1.99939 101.039 1.88913 101.142 1.83033 101.267C1.77152 101.392 1.79357 101.561 1.73477 101.685C1.67596 101.81 1.61716 101.942 1.5657 102.067C1.5069 102.199 1.44074 102.317 1.38193 102.449C1.33048 102.581 1.28638 102.713 1.23492 102.845C1.18347 102.977 1.12466 103.102 1.08056 103.234C1.03645 103.366 1.06585 103.52 1.02175 103.66C0.977645 103.792 0.918839 103.917 0.882086 104.056C0.845332 104.188 0.713019 104.298 0.676266 104.438C0.639512 104.57 0.727721 104.739 0.698318 104.878C0.661564 105.01 0.41164 105.098 0.382237 105.238C0.352834 105.377 0.507199 105.554 0.485147 105.686C0.455744 105.825 0.345484 105.943 0.316081 106.082C0.294029 106.221 0.242574 106.354 0.227872 106.493C0.20582 106.632 0.30873 106.787 0.294029 106.926C0.279327 107.066 0.264626 107.205 0.257275 107.344C0.242574 107.484 0.161716 107.616 0.147014 107.756C0.139664 107.895 0.176417 108.034 0.169066 108.174C0.169066 108.313 0.154365 108.453 0.147014 108.592C0.147014 108.732 0.176417 108.871 0.176417 109.011C0.176417 109.15 0 109.312 0 109.451C0 109.591 0.161716 109.73 0.169066 109.869C0.169066 110.009 0.139664 110.148 0.147014 110.288C0.154365 110.427 0.169066 110.567 0.183768 110.706C0.198469 110.846 0.30873 110.97 0.330782 111.11C0.345484 111.249 0.323431 111.389 0.338133 111.528C0.360185 111.668 0.227872 111.829 0.257275 111.969C0.279327 112.108 0.352834 112.24 0.382237 112.372C0.41164 112.512 0.470446 112.644 0.499849 112.776C0.529251 112.916 0.499849 113.062 0.536602 113.202C0.573356 113.341 0.683616 113.451 0.72037 113.591C0.757124 113.723 0.867384 113.84 0.904138 113.973C0.940892 114.105 0.860034 114.281 0.904138 114.413C0.948242 114.545 1.0732 114.655 1.11731 114.787C1.16141 114.919 1.30843 115.015 1.35988 115.147C1.41134 115.279 1.24962 115.492 1.30108 115.617C1.35253 115.749 1.40399 115.881 1.45544 116.006C1.51425 116.13 1.70537 116.204 1.76417 116.329C1.82298 116.453 1.79357 116.622 1.85238 116.747C1.91119 116.872 1.91854 117.026 1.98469 117.151C2.05085 117.276 2.27872 117.312 2.34488 117.437C2.41103 117.562 2.32283 117.767 2.39633 117.892C2.46249 118.01 2.57275 118.112 2.64626 118.237C2.71976 118.354 2.90353 118.406 2.97704 118.523C3.05055 118.641 3.06525 118.795 3.14611 118.912C3.22696 119.03 3.26372 119.169 3.34458 119.287C3.42543 119.404 3.51364 119.507 3.60185 119.624C3.68271 119.734 3.89588 119.756 3.97674 119.867C4.06495 119.977 4.02084 120.19 4.10905 120.3C4.19726 120.41 4.32957 120.483 4.41778 120.586C4.50599 120.696 4.56479 120.828 4.653 120.938C4.74856 121.041 4.94703 121.048 5.04259 121.151C5.13815 121.254 5.18225 121.401 5.28516 121.503C5.38072 121.606 5.41748 121.768 5.52039 121.863C5.61595 121.958 5.85117 121.922 5.95408 122.025C6.05699 122.12 6.04964 122.333 6.15255 122.428C6.25546 122.524 6.41717 122.553 6.52743 122.641C6.63034 122.736 6.71855 122.847 6.82146 122.942C6.93172 123.03 7.06404 123.089 7.1743 123.177C7.28456 123.265 7.40217 123.331 7.51243 123.419C7.62269 123.507 7.65209 123.705 7.76236 123.786C7.87262 123.867 7.96817 123.984 8.07844 124.065C8.19605 124.146 8.42392 124.065 8.54153 124.138C8.65914 124.219 8.7253 124.359 8.84291 124.439C8.96052 124.513 9.09283 124.564 9.2178 124.638C9.33541 124.711 9.39421 124.894 9.51182 124.961C9.62944 125.034 9.73235 125.144 9.84996 125.21C9.97492 125.276 10.1587 125.239 10.2763 125.305C10.4013 125.372 10.5189 125.445 10.6438 125.511C10.7688 125.577 10.8644 125.695 10.9893 125.753C11.1143 125.812 11.2539 125.849 11.3863 125.907C11.5112 125.966 11.6582 125.988 11.7832 126.047C11.9082 126.106 12.0258 126.186 12.1581 126.245C12.2904 126.296 12.4154 126.348 12.5477 126.399C12.68 126.451 12.8564 126.362 12.9887 126.414C13.121 126.465 13.2019 126.656 13.3342 126.7C13.4665 126.744 13.5915 126.825 13.7238 126.869C13.8561 126.913 14.0031 126.906 14.1428 126.95C14.2751 126.994 14.3927 127.082 14.5324 127.118C14.6647 127.155 14.8337 127.074 14.9734 127.118C15.1057 127.155 15.2307 127.229 15.3703 127.258C15.5027 127.295 15.6129 127.449 15.7526 127.485C15.8922 127.515 16.0687 127.368 16.201 127.397C16.3406 127.427 16.4803 127.405 16.62 127.434C16.7596 127.463 16.8919 127.508 17.0243 127.53C17.1639 127.552 17.2889 127.647 17.4285 127.662C17.5682 127.684 17.7005 127.742 17.8402 127.764C17.9798 127.779 18.1195 127.786 18.2592 127.801C18.3988 127.816 18.5385 127.786 18.6782 127.801C18.8178 127.816 18.9575 127.808 19.0972 127.823C19.2368 127.83 19.3691 127.97 19.5088 127.977C19.6485 127.985 19.7955 127.816 19.9351 127.823C20.0748 127.823 20.2145 127.948 20.3541 127.948C20.4938 127.948 20.6335 127.875 20.7731 127.875C20.9128 127.875 21.0524 127.963 21.1995 127.955C21.3391 127.955 21.4788 127.955 21.6185 127.941C21.7581 127.941 21.8978 127.941 22.0374 127.933C22.1771 127.926 22.3094 127.757 22.4491 127.75C22.5887 127.742 22.7505 127.955 22.8901 127.941C23.0298 127.926 23.1695 127.926 23.3091 127.904C23.4488 127.889 23.5884 127.882 23.7281 127.86C23.8678 127.845 23.9854 127.654 24.1177 127.632C24.2574 127.61 24.4044 127.647 24.544 127.632C24.6837 127.61 24.816 127.574 24.9557 127.544C25.0953 127.515 25.2277 127.485 25.3673 127.456C25.507 127.427 25.654 127.456 25.7937 127.419C25.9333 127.39 26.0436 127.265 26.1832 127.236C26.3229 127.199 26.4846 127.273 26.6169 127.236C26.7493 127.199 26.8595 127.06 26.9918 127.023C27.1241 126.986 27.2564 126.92 27.3888 126.884C27.5211 126.84 27.646 126.774 27.7784 126.729C27.9107 126.685 28.0871 126.766 28.2194 126.715C28.3517 126.671 28.4767 126.597 28.6016 126.546C28.7339 126.495 28.8442 126.399 28.9765 126.348C29.1088 126.296 29.2411 126.26 29.3735 126.208C29.5058 126.157 29.6675 126.179 29.7924 126.12C29.9174 126.062 30.013 125.937 30.1453 125.878C30.2702 125.819 30.4467 125.856 30.5716 125.797C30.6966 125.739 30.8215 125.658 30.9392 125.599C31.0641 125.533 31.0935 125.291 31.2111 125.217C31.3361 125.151 31.5125 125.181 31.6301 125.115C31.7551 125.049 31.8874 125.005 32.0124 124.931C32.13 124.858 32.1741 124.667 32.2917 124.594C32.4093 124.52 32.6298 124.608 32.7474 124.527C32.865 124.454 32.9165 124.278 33.0341 124.197C33.1517 124.116 33.3208 124.124 33.4384 124.043C33.556 123.962 33.6001 123.793 33.7104 123.705C33.8206 123.625 33.9235 123.522 34.0338 123.441C34.1441 123.353 34.3352 123.368 34.4455 123.28C34.5116 123.228 34.5484 123.14 34.5925 123.059C34.6366 123.089 34.688 123.111 34.7321 123.148C34.8424 123.236 34.8644 123.426 34.9747 123.515C35.085 123.603 35.2687 123.588 35.379 123.669C35.4893 123.749 35.5848 123.852 35.7024 123.933C35.82 124.014 35.8347 124.227 35.9523 124.307C36.07 124.388 36.2023 124.439 36.3199 124.513C36.4375 124.586 36.5478 124.682 36.6654 124.755C36.783 124.828 36.9888 124.755 37.1138 124.828C37.2314 124.902 37.2902 125.085 37.4078 125.151C37.5327 125.217 37.6724 125.254 37.7974 125.32C37.9223 125.386 38.0399 125.467 38.1649 125.526C38.2899 125.592 38.3928 125.695 38.5177 125.761C38.6427 125.819 38.7677 125.893 38.8926 125.959C39.0176 126.017 39.1352 126.113 39.2602 126.164C39.3851 126.223 39.5468 126.208 39.6792 126.26C39.8115 126.311 39.9291 126.384 40.0614 126.436C40.1937 126.487 40.3628 126.436 40.4951 126.487C40.6274 126.539 40.723 126.678 40.8553 126.722C40.9876 126.766 41.1199 126.81 41.2522 126.854C41.3845 126.898 41.5389 126.869 41.6786 126.913C41.8109 126.957 41.9579 126.957 42.0902 126.994C42.2225 127.03 42.3328 127.177 42.4651 127.214C42.5974 127.251 42.7518 127.236 42.8841 127.265C43.0164 127.302 43.1413 127.405 43.281 127.434C43.4207 127.463 43.5897 127.331 43.7294 127.353C43.8691 127.383 43.9867 127.5 44.119 127.53C44.2587 127.559 44.391 127.596 44.5306 127.618C44.6703 127.64 44.8173 127.61 44.957 127.632C45.0966 127.654 45.2436 127.618 45.376 127.632C45.5156 127.647 45.6332 127.838 45.7729 127.852C45.9126 127.867 46.0522 127.852 46.1919 127.867C46.3316 127.882 46.4712 127.919 46.6109 127.926C46.7505 127.933 46.8976 127.823 47.0372 127.83C47.1769 127.838 47.3165 127.83 47.4562 127.83C47.5959 127.83 47.7355 127.963 47.8752 127.963C48.0149 127.963 48.1545 127.823 48.2942 127.823C48.4339 127.823 48.5735 127.955 48.7205 127.955C48.8602 127.955 49.0072 128.007 49.1469 127.999C49.2865 127.999 49.4262 127.919 49.5659 127.911C49.7055 127.904 49.8525 127.955 49.9922 127.948C50.1319 127.941 50.2789 127.948 50.4112 127.933C50.5509 127.919 50.6685 127.698 50.8081 127.676C50.9478 127.662 51.0875 127.676 51.2271 127.662C51.3668 127.647 51.5065 127.654 51.6461 127.632C51.7858 127.61 51.9181 127.566 52.0578 127.544C52.1974 127.522 52.3371 127.522 52.4768 127.5C52.6164 127.471 52.7781 127.588 52.9178 127.559C53.0575 127.53 53.1971 127.5 53.3294 127.471C53.4691 127.441 53.5794 127.309 53.719 127.273C53.8587 127.236 53.9763 127.163 54.116 127.126C54.2483 127.089 54.3806 127.045 54.5203 127.008C54.6526 126.972 54.7922 126.942 54.9245 126.898C55.0569 126.854 55.2259 126.928 55.3582 126.884C55.4905 126.84 55.6302 126.818 55.7625 126.766C55.8948 126.722 55.9536 126.48 56.086 126.429C56.2183 126.377 56.4094 126.487 56.5417 126.436C56.674 126.384 56.821 126.37 56.946 126.318C57.0783 126.267 57.1518 126.084 57.2768 126.032C57.4017 125.973 57.5414 125.944 57.6737 125.885C57.7987 125.827 57.9236 125.753 58.0486 125.695C58.1736 125.636 58.2691 125.511 58.3941 125.445C58.519 125.379 58.6293 125.298 58.7543 125.225C58.8792 125.159 59.085 125.239 59.2027 125.173C59.3276 125.107 59.4085 124.975 59.5334 124.902C59.651 124.828 59.7613 124.733 59.8789 124.66C59.9965 124.586 60.1141 124.505 60.2318 124.432C60.3494 124.359 60.5258 124.366 60.6434 124.285C60.761 124.204 60.761 123.97 60.8786 123.889C60.9962 123.808 61.2315 123.889 61.3417 123.808C61.452 123.727 61.4299 123.463 61.5402 123.375C61.6504 123.287 61.893 123.375 62.0033 123.287C62.0327 123.265 62.0621 123.236 62.0915 123.206C62.1062 123.228 62.1209 123.25 62.1429 123.265C62.2532 123.353 62.4223 123.36 62.5325 123.448C62.6428 123.537 62.6942 123.698 62.8119 123.779C62.9221 123.86 63.1426 123.801 63.2529 123.882C63.3705 123.962 63.3852 124.182 63.5028 124.263C63.6204 124.344 63.8263 124.285 63.9439 124.359C64.0615 124.432 64.0982 124.63 64.2158 124.704C64.3335 124.777 64.5393 124.704 64.6642 124.777C64.7819 124.85 64.8333 125.041 64.9583 125.107C65.0832 125.173 65.1567 125.335 65.2817 125.401C65.4067 125.467 65.5684 125.46 65.6933 125.526C65.8183 125.592 65.958 125.614 66.0903 125.68C66.2152 125.739 66.3696 125.746 66.4946 125.805C66.6195 125.863 66.7224 125.973 66.8547 126.032C66.9797 126.091 67.1561 126.039 67.2811 126.091C67.4134 126.142 67.5016 126.282 67.6339 126.333C67.7662 126.384 67.8838 126.473 68.0088 126.524C68.1411 126.575 68.244 126.693 68.3763 126.744C68.5087 126.788 68.663 126.781 68.7953 126.825C68.9277 126.869 69.0747 126.884 69.207 126.92C69.3393 126.964 69.5084 126.891 69.6407 126.935C69.773 126.972 69.8979 127.06 70.0303 127.096C70.1626 127.133 70.2802 127.243 70.4199 127.28C70.5522 127.317 70.6698 127.449 70.8094 127.478C70.9491 127.508 71.1255 127.346 71.2652 127.375C71.4048 127.405 71.5298 127.471 71.6695 127.5C71.8091 127.53 71.9488 127.5 72.0885 127.53C72.2281 127.552 72.3531 127.647 72.4928 127.662C72.6324 127.684 72.7794 127.618 72.9191 127.64C73.0588 127.654 73.1837 127.764 73.3234 127.779C73.463 127.794 73.6027 127.823 73.7424 127.838C73.882 127.852 74.0217 127.838 74.1614 127.852C74.301 127.86 74.4333 127.955 74.573 127.97C74.7127 127.977 74.8523 127.97 74.992 127.97C75.1317 127.97 75.2713 127.948 75.411 127.955C75.5506 127.955 75.6903 127.955 75.83 127.955C75.9696 127.955 76.1093 127.911 76.249 127.904C76.3886 127.904 76.5283 127.801 76.668 127.794C76.8076 127.794 76.9546 127.875 77.0943 127.867C77.234 127.86 77.3736 127.897 77.5133 127.889C77.6529 127.882 77.7853 127.801 77.9249 127.786C78.0646 127.772 78.2043 127.75 78.3439 127.728C78.4836 127.713 78.6159 127.64 78.7556 127.625C78.8952 127.61 79.0569 127.757 79.1966 127.735C79.3363 127.713 79.4833 127.72 79.6156 127.698C79.7553 127.676 79.8876 127.603 80.0199 127.574C80.1595 127.544 80.2772 127.441 80.4168 127.419C80.5565 127.39 80.7109 127.441 80.8432 127.419C80.9828 127.39 81.0784 127.192 81.2107 127.155C81.3504 127.118 81.5047 127.163 81.637 127.133C81.7693 127.096 81.887 126.986 82.0193 126.95C82.1516 126.913 82.2913 126.891 82.4236 126.847C82.5559 126.803 82.7396 126.92 82.872 126.876C83.0043 126.832 83.1145 126.715 83.2468 126.671C83.3792 126.627 83.5115 126.575 83.6438 126.531C83.6879 126.517 83.7246 126.495 83.7687 126.473V91.5928H83.7393Z" fill="white"/>
<path d="M276.261 91.5928C276.261 91.5928 276.334 91.5267 276.371 91.512C276.503 91.4607 276.628 91.3946 276.761 91.3506C276.893 91.3065 277.055 91.3359 277.187 91.2918C277.319 91.2478 277.437 91.145 277.569 91.101C277.701 91.057 277.856 91.0863 277.995 91.0496C278.128 91.0129 278.245 90.9175 278.385 90.8808C278.517 90.8441 278.642 90.7487 278.782 90.7193C278.914 90.6826 279.054 90.6312 279.186 90.6019C279.326 90.5725 279.473 90.5872 279.613 90.5578C279.752 90.5285 279.892 90.5211 280.032 90.4991C280.171 90.4698 280.296 90.4037 280.436 90.3817C280.576 90.3597 280.737 90.4844 280.877 90.4624C281.017 90.4404 281.134 90.2569 281.274 90.2422C281.414 90.2275 281.568 90.3376 281.708 90.323C281.847 90.3083 281.98 90.2422 282.119 90.2275C282.259 90.2129 282.406 90.2863 282.546 90.2789C282.685 90.2716 282.825 90.2936 282.965 90.2789C283.104 90.2716 283.236 90.1101 283.376 90.1101C283.516 90.1101 283.655 90.1468 283.795 90.1468C283.935 90.1468 284.074 90.0294 284.214 90.0294C284.354 90.0294 284.501 90.0294 284.64 90.0367C284.78 90.0367 284.92 90.1174 285.059 90.1174C285.199 90.1174 285.339 90.1615 285.478 90.1688C285.618 90.1762 285.758 90.2129 285.897 90.2275C286.037 90.2349 286.177 90.2642 286.316 90.2789C286.456 90.2936 286.61 90.1615 286.75 90.1835C286.89 90.1982 287.007 90.4184 287.14 90.4331C287.279 90.4477 287.448 90.2569 287.588 90.2716C287.728 90.2936 287.845 90.4257 287.985 90.4477C288.125 90.4698 288.257 90.5138 288.397 90.5358C288.536 90.5652 288.683 90.5211 288.823 90.5505C288.963 90.5799 289.102 90.5799 289.242 90.6166C289.382 90.6459 289.514 90.69 289.654 90.7193C289.793 90.756 289.94 90.7413 290.073 90.778C290.205 90.8147 290.337 90.8808 290.47 90.9175C290.602 90.9542 290.72 91.0716 290.852 91.1157C290.984 91.1597 291.124 91.1891 291.256 91.2331C291.388 91.2772 291.484 91.4386 291.616 91.4827C291.749 91.5267 291.925 91.4607 292.057 91.5047C292.19 91.5561 292.315 91.6221 292.447 91.6735C292.579 91.7249 292.741 91.6955 292.866 91.7543C292.998 91.8056 293.108 91.9011 293.241 91.9524C293.366 92.0112 293.425 92.2314 293.55 92.2901C293.675 92.3488 293.91 92.1947 294.035 92.2534C294.16 92.3121 294.27 92.4075 294.395 92.4736C294.52 92.5396 294.564 92.7525 294.689 92.8186C294.814 92.8846 295.027 92.7892 295.145 92.8626C295.27 92.9287 295.387 93.0094 295.505 93.0828C295.622 93.1562 295.755 93.2149 295.872 93.2883C295.99 93.3617 295.99 93.6186 296.108 93.6994C296.225 93.7728 296.446 93.6994 296.556 93.7801C296.674 93.8609 296.777 93.9489 296.894 94.0297C297.012 94.1104 297.048 94.2939 297.159 94.3747C297.269 94.4554 297.445 94.4627 297.556 94.5435C297.666 94.6316 297.739 94.7563 297.85 94.8444C297.886 94.8738 297.931 94.9031 297.967 94.9325C297.989 94.8664 298.011 94.8004 298.056 94.7637C298.166 94.6756 298.291 94.6095 298.401 94.5215C298.511 94.4334 298.592 94.3086 298.702 94.2205C298.813 94.1398 299.063 94.2425 299.18 94.1618C299.29 94.0811 299.283 93.8242 299.401 93.7434C299.518 93.6627 299.687 93.67 299.805 93.5966C299.923 93.5232 300.018 93.4058 300.136 93.3324C300.253 93.259 300.378 93.1929 300.503 93.1268C300.621 93.0534 300.746 92.98 300.864 92.914C300.988 92.8479 301.084 92.7231 301.202 92.6571C301.327 92.591 301.54 92.7011 301.665 92.6351C301.79 92.569 301.915 92.5103 302.04 92.4516C302.165 92.3928 302.245 92.246 302.378 92.18C302.503 92.1213 302.613 92.0185 302.745 91.9671C302.87 91.9084 303.003 91.857 303.135 91.7983C303.267 91.7469 303.392 91.6882 303.524 91.6368C303.657 91.5854 303.767 91.4827 303.899 91.4386C304.032 91.3873 304.193 91.424 304.326 91.3799C304.458 91.3359 304.59 91.2772 304.723 91.2331C304.855 91.1891 305.009 91.2184 305.149 91.1744C305.281 91.1304 305.406 91.0643 305.546 91.0276C305.678 90.9909 305.796 90.8735 305.928 90.8368C306.06 90.8001 306.222 90.8661 306.362 90.8368C306.494 90.8001 306.604 90.6606 306.744 90.6312C306.884 90.6019 307.016 90.5652 307.156 90.5358C307.295 90.5065 307.457 90.6239 307.597 90.6019C307.736 90.5725 307.869 90.5505 308.008 90.5285C308.148 90.5065 308.273 90.4184 308.413 90.3964C308.552 90.3743 308.692 90.3743 308.832 90.3523C308.971 90.3376 309.104 90.2496 309.243 90.2349C309.383 90.2202 309.523 90.2055 309.662 90.1908C309.802 90.1762 309.942 90.1541 310.081 90.1395C310.221 90.1321 310.368 90.1835 310.508 90.1762C310.647 90.1688 310.78 90.0587 310.927 90.0514C311.066 90.0514 311.206 90.0514 311.346 90.0514C311.485 90.0514 311.625 90.1174 311.765 90.1174C311.904 90.1174 312.044 90.1321 312.184 90.1395C312.323 90.1395 312.463 90.1908 312.603 90.1982C312.742 90.1982 312.889 90.0514 313.029 90.0587C313.169 90.0661 313.301 90.1688 313.441 90.1835C313.58 90.1908 313.72 90.2055 313.86 90.2202C313.999 90.2349 314.139 90.2275 314.279 90.2422C314.418 90.2569 314.565 90.2349 314.705 90.2496C314.845 90.2642 314.962 90.4477 315.094 90.4624C315.234 90.4844 315.381 90.4257 315.521 90.4477C315.66 90.4698 315.808 90.4477 315.94 90.4698C316.079 90.4991 316.219 90.5211 316.351 90.5505C316.491 90.5799 316.616 90.6679 316.748 90.6973C316.888 90.7267 317.013 90.7854 317.153 90.8147C317.292 90.8514 317.454 90.7634 317.586 90.8001C317.719 90.8368 317.836 90.9542 317.969 90.9982C318.101 91.0349 318.226 91.101 318.366 91.145C318.498 91.1891 318.623 91.2551 318.755 91.2992C318.887 91.3432 319.012 91.4093 319.145 91.4533C319.277 91.4974 319.446 91.4386 319.578 91.49C319.711 91.5414 319.85 91.5634 319.983 91.6148C320.115 91.6662 320.225 91.7616 320.358 91.813C320.49 91.8644 320.563 92.0405 320.696 92.0919C320.821 92.1506 321.041 92.0185 321.166 92.0772C321.291 92.1359 321.409 92.2314 321.534 92.2901C321.659 92.3488 321.762 92.4662 321.887 92.5323C322.012 92.5984 322.1 92.7231 322.225 92.7892C322.35 92.8553 322.489 92.8846 322.614 92.9507C322.739 93.0167 322.872 93.0608 322.989 93.1342C323.107 93.2076 323.291 93.1856 323.408 93.259C323.526 93.3324 323.636 93.4278 323.754 93.5012C323.871 93.5746 323.996 93.648 324.106 93.7287C324.224 93.8095 324.283 93.971 324.393 94.0517C324.511 94.1324 324.636 94.1912 324.746 94.2792C324.856 94.36 325.011 94.3967 325.121 94.4848C325.231 94.5728 325.297 94.7123 325.408 94.8004C325.444 94.8297 325.481 94.8518 325.518 94.8738C325.555 94.8518 325.599 94.8371 325.628 94.8151C325.738 94.727 325.893 94.6976 326.003 94.6169C326.113 94.5288 326.216 94.4334 326.326 94.3526C326.437 94.2719 326.554 94.1985 326.672 94.1178C326.789 94.037 326.841 93.8682 326.959 93.7875C327.076 93.7067 327.282 93.7654 327.4 93.692C327.517 93.6186 327.561 93.4351 327.686 93.3617C327.804 93.2883 327.921 93.2149 328.046 93.1415C328.164 93.0681 328.318 93.0534 328.436 92.98C328.561 92.914 328.605 92.7085 328.73 92.6424C328.855 92.5763 329.017 92.5763 329.134 92.5103C329.259 92.4442 329.399 92.4149 329.524 92.3561C329.649 92.2974 329.774 92.2314 329.899 92.1653C330.024 92.1066 330.127 91.9965 330.259 91.9378C330.384 91.879 330.538 91.8717 330.663 91.8203C330.796 91.7689 330.957 91.8056 331.09 91.7543C331.222 91.7029 331.362 91.6809 331.494 91.6295C331.626 91.5781 331.722 91.4386 331.854 91.3873C331.986 91.3432 332.141 91.3726 332.273 91.3212C332.405 91.2772 332.538 91.2405 332.67 91.1964C332.802 91.1524 332.876 90.9102 333.008 90.8661C333.14 90.8294 333.288 90.8221 333.427 90.7854C333.559 90.7487 333.692 90.6753 333.824 90.6459C333.956 90.6092 334.118 90.6679 334.258 90.6386C334.397 90.6092 334.552 90.6753 334.691 90.6386C334.831 90.6092 334.971 90.6166 335.11 90.5945C335.25 90.5652 335.368 90.4404 335.507 90.4184C335.647 90.3964 335.787 90.3964 335.926 90.3743C336.066 90.3523 336.213 90.411 336.353 90.389C336.492 90.3743 336.617 90.2642 336.757 90.2422C336.897 90.2275 337.044 90.2789 337.183 90.2642C337.323 90.2496 337.448 90.0661 337.588 90.0514C337.727 90.044 337.867 90.0514 338.007 90.044C338.146 90.0367 338.286 90.0073 338.426 90C338.565 90 338.712 90.0661 338.852 90.0661C338.992 90.0661 339.131 90.1248 339.271 90.1248C339.411 90.1248 339.55 90.0881 339.697 90.0954C339.837 90.0954 339.977 90.0734 340.116 90.0734C340.256 90.0734 340.396 90.1835 340.535 90.1908C340.675 90.1982 340.815 90.1615 340.954 90.1688C341.094 90.1762 341.234 90.2129 341.373 90.2202C341.513 90.2349 341.667 90.1395 341.8 90.1541C341.939 90.1688 342.057 90.3376 342.197 90.3523C342.336 90.367 342.498 90.2055 342.638 90.2202C342.777 90.2422 342.91 90.323 343.042 90.345C343.182 90.367 343.307 90.4551 343.446 90.4844C343.586 90.5138 343.718 90.5725 343.85 90.5945C343.99 90.6239 344.122 90.6606 344.255 90.69C344.394 90.7193 344.519 90.7707 344.659 90.8074C344.799 90.8441 344.975 90.6973 345.115 90.734C345.247 90.7707 345.379 90.8441 345.512 90.8808C345.644 90.9175 345.732 91.123 345.865 91.1597C345.997 91.2038 346.159 91.1597 346.291 91.2038C346.423 91.2478 346.541 91.3432 346.673 91.3873C346.805 91.4313 346.945 91.4607 347.077 91.512C347.21 91.5634 347.313 91.6809 347.445 91.7322C347.577 91.7836 347.724 91.791 347.849 91.8423C347.982 91.8937 348.143 91.8717 348.268 91.9304C348.393 91.9891 348.496 92.1066 348.621 92.1726C348.746 92.2314 348.915 92.2093 349.04 92.2754C349.165 92.3341 349.29 92.4075 349.415 92.4662C349.54 92.5323 349.65 92.6204 349.775 92.6864C349.9 92.7525 349.959 92.936 350.077 93.0021C350.202 93.0681 350.4 93.0021 350.518 93.0755C350.635 93.1489 350.782 93.1856 350.9 93.259C351.017 93.3324 351.047 93.5526 351.164 93.626C351.282 93.6994 351.414 93.7581 351.525 93.8388C351.642 93.9196 351.811 93.9196 351.922 94.0003C352.039 94.0811 352.186 94.1104 352.304 94.1912C352.414 94.2719 352.421 94.4994 352.532 94.5875C352.642 94.6756 352.796 94.705 352.907 94.793C353.017 94.8811 353.076 95.0279 353.179 95.116C353.289 95.2041 353.384 95.3068 353.487 95.4023C353.59 95.4977 353.745 95.5344 353.847 95.6298C353.95 95.7252 354.134 95.7326 354.237 95.828C354.34 95.9234 354.436 96.0335 354.531 96.1289C354.634 96.2243 354.627 96.4299 354.722 96.5326C354.818 96.6354 354.913 96.7381 355.002 96.8409C355.097 96.9437 355.2 97.0391 355.296 97.1418C355.391 97.2446 355.531 97.3107 355.619 97.4134C355.707 97.5235 355.737 97.6777 355.825 97.7878C355.913 97.8979 356.001 98.0006 356.089 98.1107C356.178 98.2208 356.266 98.3309 356.347 98.441C356.428 98.5511 356.442 98.7126 356.523 98.83C356.604 98.9475 356.81 98.9695 356.891 99.0869C356.972 99.2044 357.104 99.2851 357.185 99.4026C357.258 99.52 357.324 99.6448 357.398 99.7696C357.471 99.887 357.442 100.071 357.508 100.188C357.582 100.313 357.662 100.423 357.729 100.548C357.795 100.672 357.868 100.79 357.934 100.915C358.001 101.039 358.111 101.142 358.17 101.267C358.228 101.392 358.206 101.561 358.265 101.685C358.324 101.81 358.383 101.942 358.434 102.067C358.493 102.199 358.559 102.317 358.618 102.449C358.67 102.581 358.714 102.713 358.765 102.845C358.817 102.977 358.875 103.102 358.919 103.234C358.964 103.366 358.934 103.52 358.978 103.66C359.022 103.792 359.081 103.917 359.118 104.056C359.155 104.188 359.287 104.298 359.324 104.438C359.36 104.57 359.272 104.739 359.302 104.878C359.338 105.01 359.588 105.098 359.618 105.238C359.647 105.377 359.493 105.554 359.515 105.686C359.544 105.825 359.655 105.943 359.684 106.082C359.706 106.221 359.757 106.354 359.772 106.493C359.794 106.632 359.691 106.787 359.706 106.926C359.721 107.066 359.735 107.205 359.743 107.344C359.757 107.484 359.838 107.616 359.853 107.756C359.86 107.895 359.824 108.034 359.831 108.174C359.831 108.313 359.846 108.453 359.853 108.592C359.853 108.732 359.824 108.871 359.824 109.011C359.824 109.15 360 109.312 360 109.451C360 109.591 359.838 109.73 359.831 109.869C359.831 110.009 359.86 110.148 359.853 110.288C359.846 110.427 359.831 110.567 359.816 110.706C359.802 110.846 359.691 110.97 359.669 111.11C359.655 111.249 359.677 111.389 359.662 111.528C359.64 111.668 359.772 111.829 359.743 111.969C359.721 112.108 359.647 112.24 359.618 112.372C359.588 112.512 359.53 112.644 359.5 112.776C359.471 112.916 359.5 113.062 359.463 113.202C359.427 113.341 359.316 113.451 359.28 113.591C359.243 113.723 359.133 113.84 359.096 113.973C359.059 114.105 359.14 114.281 359.096 114.413C359.052 114.545 358.927 114.655 358.883 114.787C358.839 114.919 358.692 115.015 358.64 115.147C358.589 115.279 358.75 115.492 358.699 115.617C358.647 115.749 358.596 115.881 358.545 116.006C358.486 116.13 358.295 116.204 358.236 116.329C358.177 116.453 358.206 116.622 358.148 116.747C358.089 116.872 358.081 117.026 358.015 117.151C357.949 117.276 357.721 117.312 357.655 117.437C357.589 117.562 357.677 117.767 357.604 117.892C357.538 118.01 357.427 118.112 357.354 118.237C357.28 118.354 357.096 118.406 357.023 118.523C356.949 118.641 356.935 118.795 356.854 118.912C356.773 119.03 356.736 119.169 356.655 119.287C356.575 119.404 356.486 119.507 356.398 119.624C356.317 119.734 356.104 119.756 356.023 119.867C355.935 119.977 355.979 120.19 355.891 120.3C355.803 120.41 355.67 120.483 355.582 120.586C355.494 120.696 355.435 120.828 355.347 120.938C355.251 121.041 355.053 121.048 354.957 121.151C354.862 121.254 354.818 121.401 354.715 121.503C354.619 121.606 354.583 121.768 354.48 121.863C354.384 121.958 354.149 121.922 354.046 122.025C353.943 122.12 353.95 122.333 353.847 122.428C353.745 122.524 353.583 122.553 353.473 122.641C353.37 122.736 353.281 122.847 353.179 122.942C353.068 123.03 352.936 123.089 352.826 123.177C352.715 123.265 352.598 123.331 352.488 123.419C352.377 123.507 352.348 123.705 352.238 123.786C352.127 123.867 352.032 123.984 351.922 124.065C351.804 124.146 351.576 124.065 351.458 124.138C351.341 124.219 351.275 124.359 351.157 124.439C351.039 124.513 350.907 124.564 350.782 124.638C350.665 124.711 350.606 124.894 350.488 124.961C350.371 125.034 350.268 125.144 350.15 125.21C350.025 125.276 349.841 125.239 349.724 125.305C349.599 125.372 349.481 125.445 349.356 125.511C349.231 125.577 349.136 125.695 349.011 125.753C348.886 125.812 348.746 125.849 348.614 125.907C348.489 125.966 348.342 125.988 348.217 126.047C348.092 126.106 347.974 126.186 347.842 126.245C347.71 126.296 347.585 126.348 347.452 126.399C347.32 126.451 347.144 126.362 347.011 126.414C346.879 126.465 346.798 126.656 346.666 126.7C346.533 126.744 346.409 126.825 346.276 126.869C346.144 126.913 345.997 126.906 345.857 126.95C345.725 126.994 345.607 127.082 345.468 127.118C345.335 127.155 345.166 127.074 345.027 127.118C344.894 127.155 344.769 127.229 344.63 127.258C344.497 127.295 344.387 127.449 344.247 127.485C344.108 127.515 343.931 127.368 343.799 127.397C343.659 127.427 343.52 127.405 343.38 127.434C343.24 127.463 343.108 127.508 342.976 127.53C342.836 127.552 342.711 127.647 342.571 127.662C342.432 127.684 342.299 127.742 342.16 127.764C342.02 127.779 341.88 127.786 341.741 127.801C341.601 127.816 341.461 127.786 341.322 127.801C341.182 127.816 341.043 127.808 340.903 127.823C340.763 127.83 340.631 127.97 340.491 127.977C340.352 127.985 340.205 127.816 340.065 127.823C339.925 127.823 339.786 127.948 339.646 127.948C339.506 127.948 339.367 127.875 339.227 127.875C339.087 127.875 338.948 127.963 338.801 127.955C338.661 127.955 338.521 127.955 338.382 127.941C338.242 127.941 338.102 127.941 337.963 127.933C337.823 127.926 337.691 127.757 337.551 127.75C337.411 127.742 337.25 127.955 337.11 127.941C336.97 127.926 336.831 127.926 336.691 127.904C336.551 127.889 336.412 127.882 336.272 127.86C336.132 127.845 336.015 127.654 335.882 127.632C335.743 127.61 335.596 127.647 335.456 127.632C335.316 127.61 335.184 127.574 335.044 127.544C334.905 127.515 334.772 127.485 334.633 127.456C334.493 127.427 334.346 127.456 334.206 127.419C334.067 127.39 333.956 127.265 333.817 127.236C333.677 127.199 333.515 127.273 333.383 127.236C333.251 127.199 333.14 127.06 333.008 127.023C332.876 126.986 332.744 126.92 332.611 126.884C332.479 126.84 332.354 126.774 332.222 126.729C332.089 126.685 331.913 126.766 331.781 126.715C331.648 126.671 331.523 126.597 331.398 126.546C331.266 126.495 331.156 126.399 331.023 126.348C330.891 126.296 330.759 126.26 330.627 126.208C330.494 126.157 330.333 126.179 330.208 126.12C330.083 126.062 329.987 125.937 329.855 125.878C329.73 125.819 329.553 125.856 329.428 125.797C329.303 125.739 329.178 125.658 329.061 125.599C328.936 125.533 328.906 125.291 328.789 125.217C328.664 125.151 328.487 125.181 328.37 125.115C328.245 125.049 328.113 125.005 327.988 124.931C327.87 124.858 327.826 124.667 327.708 124.594C327.591 124.52 327.37 124.608 327.253 124.527C327.135 124.454 327.084 124.278 326.966 124.197C326.848 124.116 326.679 124.124 326.562 124.043C326.444 123.962 326.4 123.793 326.29 123.705C326.179 123.625 326.076 123.522 325.966 123.441C325.856 123.353 325.665 123.368 325.555 123.28C325.488 123.228 325.452 123.14 325.408 123.059C325.363 123.089 325.312 123.111 325.268 123.148C325.158 123.236 325.136 123.426 325.025 123.515C324.915 123.603 324.731 123.588 324.621 123.669C324.511 123.749 324.415 123.852 324.298 123.933C324.18 124.014 324.165 124.227 324.048 124.307C323.93 124.388 323.798 124.439 323.68 124.513C323.563 124.586 323.452 124.682 323.335 124.755C323.217 124.828 323.011 124.755 322.886 124.828C322.769 124.902 322.71 125.085 322.592 125.151C322.467 125.217 322.328 125.254 322.203 125.32C322.078 125.386 321.96 125.467 321.835 125.526C321.71 125.592 321.607 125.695 321.482 125.761C321.357 125.819 321.232 125.893 321.107 125.959C320.982 126.017 320.865 126.113 320.74 126.164C320.615 126.223 320.453 126.208 320.321 126.26C320.189 126.311 320.071 126.384 319.939 126.436C319.806 126.487 319.637 126.436 319.505 126.487C319.373 126.539 319.277 126.678 319.145 126.722C319.012 126.766 318.88 126.81 318.748 126.854C318.615 126.898 318.461 126.869 318.321 126.913C318.189 126.957 318.042 126.957 317.91 126.994C317.778 127.03 317.667 127.177 317.535 127.214C317.403 127.251 317.248 127.236 317.116 127.265C316.984 127.302 316.859 127.405 316.719 127.434C316.579 127.463 316.41 127.331 316.271 127.353C316.131 127.383 316.013 127.5 315.881 127.53C315.741 127.559 315.609 127.596 315.469 127.618C315.33 127.64 315.183 127.61 315.043 127.632C314.903 127.654 314.756 127.618 314.624 127.632C314.484 127.647 314.367 127.838 314.227 127.852C314.087 127.867 313.948 127.852 313.808 127.867C313.668 127.882 313.529 127.919 313.389 127.926C313.249 127.933 313.102 127.823 312.963 127.83C312.823 127.838 312.683 127.83 312.544 127.83C312.404 127.83 312.264 127.963 312.125 127.963C311.985 127.963 311.845 127.823 311.706 127.823C311.566 127.823 311.426 127.955 311.279 127.955C311.14 127.955 310.993 128.007 310.853 127.999C310.713 127.999 310.574 127.919 310.434 127.911C310.294 127.904 310.147 127.955 310.008 127.948C309.868 127.941 309.721 127.948 309.589 127.933C309.449 127.919 309.332 127.698 309.192 127.676C309.052 127.662 308.913 127.676 308.773 127.662C308.633 127.647 308.494 127.654 308.354 127.632C308.214 127.61 308.082 127.566 307.942 127.544C307.803 127.522 307.663 127.522 307.523 127.5C307.384 127.471 307.222 127.588 307.082 127.559C306.943 127.53 306.803 127.5 306.671 127.471C306.531 127.441 306.421 127.309 306.281 127.273C306.141 127.236 306.024 127.163 305.884 127.126C305.752 127.089 305.619 127.045 305.48 127.008C305.347 126.972 305.208 126.942 305.075 126.898C304.943 126.854 304.774 126.928 304.642 126.884C304.509 126.84 304.37 126.818 304.237 126.766C304.105 126.722 304.046 126.48 303.914 126.429C303.782 126.377 303.591 126.487 303.458 126.436C303.326 126.384 303.179 126.37 303.054 126.318C302.922 126.267 302.848 126.084 302.723 126.032C302.598 125.973 302.459 125.944 302.326 125.885C302.201 125.827 302.076 125.753 301.951 125.695C301.826 125.636 301.731 125.511 301.606 125.445C301.481 125.379 301.371 125.298 301.246 125.225C301.121 125.159 300.915 125.239 300.797 125.173C300.672 125.107 300.592 124.975 300.467 124.902C300.349 124.828 300.239 124.733 300.121 124.66C300.003 124.586 299.886 124.505 299.768 124.432C299.651 124.359 299.474 124.366 299.357 124.285C299.239 124.204 299.239 123.97 299.121 123.889C299.004 123.808 298.769 123.889 298.658 123.808C298.548 123.727 298.57 123.463 298.46 123.375C298.35 123.287 298.107 123.375 297.997 123.287C297.967 123.265 297.938 123.236 297.909 123.206C297.894 123.228 297.879 123.25 297.857 123.265C297.747 123.353 297.578 123.36 297.467 123.448C297.357 123.537 297.306 123.698 297.188 123.779C297.078 123.86 296.857 123.801 296.747 123.882C296.629 123.962 296.615 124.182 296.497 124.263C296.38 124.344 296.174 124.285 296.056 124.359C295.939 124.432 295.902 124.63 295.784 124.704C295.667 124.777 295.461 124.704 295.336 124.777C295.218 124.85 295.167 125.041 295.042 125.107C294.917 125.173 294.843 125.335 294.718 125.401C294.593 125.467 294.432 125.46 294.307 125.526C294.182 125.592 294.042 125.614 293.91 125.68C293.785 125.739 293.63 125.746 293.505 125.805C293.38 125.863 293.278 125.973 293.145 126.032C293.02 126.091 292.844 126.039 292.719 126.091C292.587 126.142 292.498 126.282 292.366 126.333C292.234 126.384 292.116 126.473 291.991 126.524C291.859 126.575 291.756 126.693 291.624 126.744C291.491 126.788 291.337 126.781 291.205 126.825C291.072 126.869 290.925 126.884 290.793 126.92C290.661 126.964 290.492 126.891 290.359 126.935C290.227 126.972 290.102 127.06 289.97 127.096C289.837 127.133 289.72 127.243 289.58 127.28C289.448 127.317 289.33 127.449 289.191 127.478C289.051 127.508 288.874 127.346 288.735 127.375C288.595 127.405 288.47 127.471 288.331 127.5C288.191 127.53 288.051 127.5 287.912 127.53C287.772 127.552 287.647 127.647 287.507 127.662C287.368 127.684 287.221 127.618 287.081 127.64C286.941 127.654 286.816 127.764 286.677 127.779C286.537 127.794 286.397 127.823 286.258 127.838C286.118 127.852 285.978 127.838 285.839 127.852C285.699 127.86 285.567 127.955 285.427 127.97C285.287 127.977 285.148 127.97 285.008 127.97C284.868 127.97 284.729 127.948 284.589 127.955C284.449 127.955 284.31 127.955 284.17 127.955C284.03 127.955 283.891 127.911 283.751 127.904C283.611 127.904 283.472 127.801 283.332 127.794C283.192 127.794 283.045 127.875 282.906 127.867C282.766 127.86 282.626 127.897 282.487 127.889C282.347 127.882 282.215 127.801 282.075 127.786C281.935 127.772 281.796 127.75 281.656 127.728C281.516 127.713 281.384 127.64 281.244 127.625C281.105 127.61 280.943 127.757 280.803 127.735C280.664 127.713 280.517 127.72 280.384 127.698C280.245 127.676 280.112 127.603 279.98 127.574C279.84 127.544 279.723 127.441 279.583 127.419C279.444 127.39 279.289 127.441 279.157 127.419C279.017 127.39 278.922 127.192 278.789 127.155C278.65 127.118 278.495 127.163 278.363 127.133C278.231 127.096 278.113 126.986 277.981 126.95C277.848 126.913 277.709 126.891 277.576 126.847C277.444 126.803 277.26 126.92 277.128 126.876C276.996 126.832 276.885 126.715 276.753 126.671C276.621 126.627 276.489 126.575 276.356 126.531C276.312 126.517 276.275 126.495 276.231 126.473V91.5928H276.261Z" fill="white"/>
<path d="M346.739 91.5928C346.739 91.5928 346.666 91.5267 346.629 91.512C346.497 91.4607 346.372 91.3946 346.239 91.3506C346.107 91.3065 345.945 91.3359 345.813 91.2918C345.681 91.2478 345.563 91.145 345.431 91.101C345.299 91.057 345.144 91.0863 345.005 91.0496C344.872 91.0129 344.755 90.9175 344.615 90.8808C344.483 90.8441 344.358 90.7487 344.218 90.7193C344.086 90.6826 343.946 90.6312 343.814 90.6019C343.674 90.5725 343.527 90.5872 343.387 90.5578C343.248 90.5285 343.108 90.5211 342.968 90.4991C342.829 90.4698 342.704 90.4037 342.564 90.3817C342.424 90.3597 342.263 90.4844 342.123 90.4624C341.983 90.4404 341.866 90.2569 341.726 90.2422C341.586 90.2275 341.432 90.3376 341.292 90.323C341.153 90.3083 341.02 90.2422 340.881 90.2275C340.741 90.2129 340.594 90.2863 340.454 90.2789C340.315 90.2716 340.175 90.2936 340.035 90.2789C339.896 90.2716 339.764 90.1101 339.624 90.1101C339.484 90.1101 339.345 90.1468 339.205 90.1468C339.065 90.1468 338.926 90.0294 338.786 90.0294C338.646 90.0294 338.499 90.0294 338.36 90.0367C338.22 90.0367 338.08 90.1174 337.941 90.1174C337.801 90.1174 337.661 90.1615 337.522 90.1688C337.382 90.1762 337.242 90.2129 337.103 90.2275C336.963 90.2349 336.823 90.2642 336.684 90.2789C336.544 90.2936 336.39 90.1615 336.25 90.1835C336.11 90.1982 335.993 90.4184 335.86 90.4331C335.721 90.4477 335.552 90.2569 335.412 90.2716C335.272 90.2936 335.155 90.4257 335.015 90.4477C334.875 90.4698 334.743 90.5138 334.603 90.5358C334.464 90.5652 334.317 90.5211 334.177 90.5505C334.037 90.5799 333.898 90.5799 333.758 90.6166C333.618 90.6459 333.486 90.69 333.346 90.7193C333.207 90.756 333.06 90.7413 332.927 90.778C332.795 90.8147 332.663 90.8808 332.53 90.9175C332.398 90.9542 332.28 91.0716 332.148 91.1157C332.016 91.1597 331.876 91.1891 331.744 91.2331C331.612 91.2772 331.516 91.4386 331.384 91.4827C331.251 91.5267 331.075 91.4607 330.943 91.5047C330.81 91.5561 330.685 91.6221 330.553 91.6735C330.421 91.7249 330.259 91.6955 330.134 91.7543C330.002 91.8056 329.892 91.9011 329.759 91.9524C329.634 92.0112 329.575 92.2314 329.45 92.2901C329.326 92.3488 329.09 92.1947 328.965 92.2534C328.84 92.3121 328.73 92.4075 328.605 92.4736C328.48 92.5396 328.436 92.7525 328.311 92.8186C328.186 92.8846 327.973 92.7892 327.855 92.8626C327.73 92.9287 327.613 93.0094 327.495 93.0828C327.378 93.1562 327.245 93.2149 327.128 93.2883C327.01 93.3617 327.01 93.6186 326.892 93.6994C326.775 93.7728 326.554 93.6994 326.444 93.7801C326.326 93.8609 326.223 93.9489 326.106 94.0297C325.988 94.1104 325.952 94.2939 325.841 94.3747C325.731 94.4554 325.555 94.4627 325.444 94.5435C325.334 94.6316 325.261 94.7563 325.15 94.8444C325.114 94.8738 325.069 94.9031 325.033 94.9325C325.011 94.8664 324.989 94.8004 324.944 94.7637C324.834 94.6756 324.709 94.6095 324.599 94.5215C324.489 94.4334 324.408 94.3086 324.298 94.2205C324.187 94.1398 323.937 94.2425 323.82 94.1618C323.71 94.0811 323.717 93.8242 323.599 93.7434C323.482 93.6627 323.313 93.67 323.195 93.5966C323.077 93.5232 322.982 93.4058 322.864 93.3324C322.747 93.259 322.622 93.1929 322.497 93.1268C322.379 93.0534 322.254 92.98 322.136 92.914C322.012 92.8479 321.916 92.7231 321.798 92.6571C321.673 92.591 321.46 92.7011 321.335 92.6351C321.21 92.569 321.085 92.5103 320.96 92.4516C320.835 92.3928 320.755 92.246 320.622 92.18C320.497 92.1213 320.387 92.0185 320.255 91.9671C320.13 91.9084 319.997 91.857 319.865 91.7983C319.733 91.7469 319.608 91.6882 319.476 91.6368C319.343 91.5854 319.233 91.4827 319.101 91.4386C318.968 91.3873 318.807 91.424 318.674 91.3799C318.542 91.3359 318.41 91.2772 318.277 91.2331C318.145 91.1891 317.991 91.2184 317.851 91.1744C317.719 91.1304 317.594 91.0643 317.454 91.0276C317.322 90.9909 317.204 90.8735 317.072 90.8368C316.94 90.8001 316.778 90.8661 316.638 90.8368C316.506 90.8001 316.396 90.6606 316.256 90.6312C316.116 90.6019 315.984 90.5652 315.844 90.5358C315.705 90.5065 315.543 90.6239 315.403 90.6019C315.264 90.5725 315.131 90.5505 314.992 90.5285C314.852 90.5065 314.727 90.4184 314.587 90.3964C314.448 90.3743 314.308 90.3743 314.168 90.3523C314.029 90.3376 313.896 90.2496 313.757 90.2349C313.617 90.2202 313.477 90.2055 313.338 90.1908C313.198 90.1762 313.058 90.1541 312.919 90.1395C312.779 90.1321 312.632 90.1835 312.492 90.1762C312.353 90.1688 312.22 90.0587 312.073 90.0514C311.934 90.0514 311.794 90.0514 311.654 90.0514C311.515 90.0514 311.375 90.1174 311.235 90.1174C311.096 90.1174 310.956 90.1321 310.816 90.1395C310.677 90.1395 310.537 90.1908 310.397 90.1982C310.258 90.1982 310.111 90.0514 309.971 90.0587C309.831 90.0661 309.699 90.1688 309.559 90.1835C309.42 90.1908 309.28 90.2055 309.14 90.2202C309.001 90.2349 308.861 90.2275 308.721 90.2422C308.582 90.2569 308.435 90.2349 308.295 90.2496C308.155 90.2642 308.038 90.4477 307.906 90.4624C307.766 90.4844 307.619 90.4257 307.479 90.4477C307.34 90.4698 307.192 90.4477 307.06 90.4698C306.921 90.4991 306.781 90.5211 306.649 90.5505C306.509 90.5799 306.384 90.6679 306.252 90.6973C306.112 90.7267 305.987 90.7854 305.847 90.8147C305.708 90.8514 305.546 90.7634 305.414 90.8001C305.281 90.8368 305.164 90.9542 305.031 90.9982C304.899 91.0349 304.774 91.101 304.634 91.145C304.502 91.1891 304.377 91.2551 304.245 91.2992C304.113 91.3432 303.988 91.4093 303.855 91.4533C303.723 91.4974 303.554 91.4386 303.422 91.49C303.289 91.5414 303.15 91.5634 303.017 91.6148C302.885 91.6662 302.775 91.7616 302.642 91.813C302.51 91.8644 302.437 92.0405 302.304 92.0919C302.179 92.1506 301.959 92.0185 301.834 92.0772C301.709 92.1359 301.591 92.2314 301.466 92.2901C301.341 92.3488 301.238 92.4662 301.113 92.5323C300.988 92.5984 300.9 92.7231 300.775 92.7892C300.65 92.8553 300.511 92.8846 300.386 92.9507C300.261 93.0167 300.128 93.0608 300.011 93.1342C299.893 93.2076 299.709 93.1856 299.592 93.259C299.474 93.3324 299.364 93.4278 299.246 93.5012C299.129 93.5746 299.004 93.648 298.894 93.7287C298.776 93.8095 298.717 93.971 298.607 94.0517C298.489 94.1324 298.364 94.1912 298.254 94.2792C298.144 94.36 297.989 94.3967 297.879 94.4848C297.769 94.5728 297.703 94.7123 297.592 94.8004C297.556 94.8297 297.519 94.8518 297.482 94.8738C297.445 94.8518 297.401 94.8371 297.372 94.8151C297.262 94.727 297.107 94.6976 296.997 94.6169C296.887 94.5288 296.784 94.4334 296.674 94.3526C296.563 94.2719 296.446 94.1985 296.328 94.1178C296.211 94.037 296.159 93.8682 296.041 93.7875C295.924 93.7067 295.718 93.7654 295.6 93.692C295.483 93.6186 295.439 93.4351 295.314 93.3617C295.196 93.2883 295.079 93.2149 294.954 93.1415C294.836 93.0681 294.682 93.0534 294.564 92.98C294.439 92.914 294.395 92.7085 294.27 92.6424C294.145 92.5763 293.983 92.5763 293.866 92.5103C293.741 92.4442 293.601 92.4149 293.476 92.3561C293.351 92.2974 293.226 92.2314 293.101 92.1653C292.976 92.1066 292.873 91.9965 292.741 91.9378C292.616 91.879 292.462 91.8717 292.337 91.8203C292.204 91.7689 292.043 91.8056 291.91 91.7543C291.778 91.7029 291.638 91.6809 291.506 91.6295C291.374 91.5781 291.278 91.4386 291.146 91.3873C291.014 91.3432 290.859 91.3726 290.727 91.3212C290.595 91.2772 290.462 91.2405 290.33 91.1964C290.198 91.1524 290.124 90.9102 289.992 90.8661C289.86 90.8294 289.712 90.8221 289.573 90.7854C289.441 90.7487 289.308 90.6753 289.176 90.6459C289.044 90.6092 288.882 90.6679 288.742 90.6386C288.603 90.6092 288.448 90.6753 288.309 90.6386C288.169 90.6092 288.029 90.6166 287.89 90.5945C287.75 90.5652 287.632 90.4404 287.493 90.4184C287.353 90.3964 287.213 90.3964 287.074 90.3743C286.934 90.3523 286.787 90.411 286.647 90.389C286.508 90.3743 286.383 90.2642 286.243 90.2422C286.103 90.2275 285.956 90.2789 285.817 90.2642C285.677 90.2496 285.552 90.0661 285.412 90.0514C285.273 90.044 285.133 90.0514 284.993 90.044C284.854 90.0367 284.714 90.0073 284.574 90C284.435 90 284.288 90.0661 284.148 90.0661C284.008 90.0661 283.869 90.1248 283.729 90.1248C283.589 90.1248 283.45 90.0881 283.303 90.0954C283.163 90.0954 283.023 90.0734 282.884 90.0734C282.744 90.0734 282.604 90.1835 282.465 90.1908C282.325 90.1982 282.185 90.1615 282.046 90.1688C281.906 90.1762 281.766 90.2129 281.627 90.2202C281.487 90.2349 281.333 90.1395 281.2 90.1541C281.061 90.1688 280.943 90.3376 280.803 90.3523C280.664 90.367 280.502 90.2055 280.362 90.2202C280.223 90.2422 280.09 90.323 279.958 90.345C279.818 90.367 279.693 90.4551 279.554 90.4844C279.414 90.5138 279.282 90.5725 279.15 90.5945C279.01 90.6239 278.878 90.6606 278.745 90.69C278.606 90.7193 278.481 90.7707 278.341 90.8074C278.201 90.8441 278.025 90.6973 277.885 90.734C277.753 90.7707 277.621 90.8441 277.488 90.8808C277.356 90.9175 277.268 91.123 277.135 91.1597C277.003 91.2038 276.841 91.1597 276.709 91.2038C276.577 91.2478 276.459 91.3432 276.327 91.3873C276.195 91.4313 276.055 91.4607 275.923 91.512C275.79 91.5634 275.687 91.6809 275.555 91.7322C275.423 91.7836 275.276 91.791 275.151 91.8423C275.018 91.8937 274.857 91.8717 274.732 91.9304C274.607 91.9891 274.504 92.1066 274.379 92.1726C274.254 92.2314 274.085 92.2093 273.96 92.2754C273.835 92.3341 273.71 92.4075 273.585 92.4662C273.46 92.5323 273.35 92.6204 273.225 92.6864C273.1 92.7525 273.041 92.936 272.923 93.0021C272.799 93.0681 272.6 93.0021 272.482 93.0755C272.365 93.1489 272.218 93.1856 272.1 93.259C271.983 93.3324 271.953 93.5526 271.836 93.626C271.718 93.6994 271.586 93.7581 271.475 93.8388C271.358 93.9196 271.189 93.9196 271.078 94.0003C270.961 94.0811 270.814 94.1104 270.696 94.1912C270.586 94.2719 270.579 94.4994 270.468 94.5875C270.358 94.6756 270.204 94.705 270.093 94.793C269.983 94.8811 269.924 95.0279 269.821 95.116C269.711 95.2041 269.616 95.3068 269.513 95.4023C269.41 95.4977 269.255 95.5344 269.153 95.6298C269.05 95.7252 268.866 95.7326 268.763 95.828C268.66 95.9234 268.564 96.0335 268.469 96.1289C268.366 96.2243 268.373 96.4299 268.278 96.5326C268.182 96.6354 268.087 96.7381 267.998 96.8409C267.903 96.9437 267.8 97.0391 267.704 97.1418C267.609 97.2446 267.469 97.3107 267.381 97.4134C267.293 97.5235 267.263 97.6777 267.175 97.7878C267.087 97.8979 266.999 98.0006 266.911 98.1107C266.822 98.2208 266.734 98.3309 266.653 98.441C266.572 98.5511 266.558 98.7126 266.477 98.83C266.396 98.9475 266.19 98.9695 266.109 99.0869C266.028 99.2044 265.896 99.2851 265.815 99.4026C265.742 99.52 265.676 99.6448 265.602 99.7696C265.529 99.887 265.558 100.071 265.492 100.188C265.418 100.313 265.338 100.423 265.271 100.548C265.205 100.672 265.132 100.79 265.066 100.915C264.999 101.039 264.889 101.142 264.83 101.267C264.772 101.392 264.794 101.561 264.735 101.685C264.676 101.81 264.617 101.942 264.566 102.067C264.507 102.199 264.441 102.317 264.382 102.449C264.33 102.581 264.286 102.713 264.235 102.845C264.183 102.977 264.125 103.102 264.081 103.234C264.036 103.366 264.066 103.52 264.022 103.66C263.978 103.792 263.919 103.917 263.882 104.056C263.845 104.188 263.713 104.298 263.676 104.438C263.64 104.57 263.728 104.739 263.698 104.878C263.662 105.01 263.412 105.098 263.382 105.238C263.353 105.377 263.507 105.554 263.485 105.686C263.456 105.825 263.345 105.943 263.316 106.082C263.294 106.221 263.243 106.354 263.228 106.493C263.206 106.632 263.309 106.787 263.294 106.926C263.279 107.066 263.265 107.205 263.257 107.344C263.243 107.484 263.162 107.616 263.147 107.756C263.14 107.895 263.176 108.034 263.169 108.174C263.169 108.313 263.154 108.453 263.147 108.592C263.147 108.732 263.176 108.871 263.176 109.011C263.176 109.15 263 109.312 263 109.451C263 109.591 263.162 109.73 263.169 109.869C263.169 110.009 263.14 110.148 263.147 110.288C263.154 110.427 263.169 110.567 263.184 110.706C263.198 110.846 263.309 110.97 263.331 111.11C263.345 111.249 263.323 111.389 263.338 111.528C263.36 111.668 263.228 111.829 263.257 111.969C263.279 112.108 263.353 112.24 263.382 112.372C263.412 112.512 263.47 112.644 263.5 112.776C263.529 112.916 263.5 113.062 263.537 113.202C263.573 113.341 263.684 113.451 263.72 113.591C263.757 113.723 263.867 113.84 263.904 113.973C263.941 114.105 263.86 114.281 263.904 114.413C263.948 114.545 264.073 114.655 264.117 114.787C264.161 114.919 264.308 115.015 264.36 115.147C264.411 115.279 264.25 115.492 264.301 115.617C264.353 115.749 264.404 115.881 264.455 116.006C264.514 116.13 264.705 116.204 264.764 116.329C264.823 116.453 264.794 116.622 264.852 116.747C264.911 116.872 264.919 117.026 264.985 117.151C265.051 117.276 265.279 117.312 265.345 117.437C265.411 117.562 265.323 117.767 265.396 117.892C265.462 118.01 265.573 118.112 265.646 118.237C265.72 118.354 265.904 118.406 265.977 118.523C266.051 118.641 266.065 118.795 266.146 118.912C266.227 119.03 266.264 119.169 266.345 119.287C266.425 119.404 266.514 119.507 266.602 119.624C266.683 119.734 266.896 119.756 266.977 119.867C267.065 119.977 267.021 120.19 267.109 120.3C267.197 120.41 267.33 120.483 267.418 120.586C267.506 120.696 267.565 120.828 267.653 120.938C267.749 121.041 267.947 121.048 268.043 121.151C268.138 121.254 268.182 121.401 268.285 121.503C268.381 121.606 268.417 121.768 268.52 121.863C268.616 121.958 268.851 121.922 268.954 122.025C269.057 122.12 269.05 122.333 269.153 122.428C269.255 122.524 269.417 122.553 269.527 122.641C269.63 122.736 269.719 122.847 269.821 122.942C269.932 123.03 270.064 123.089 270.174 123.177C270.285 123.265 270.402 123.331 270.512 123.419C270.623 123.507 270.652 123.705 270.762 123.786C270.873 123.867 270.968 123.984 271.078 124.065C271.196 124.146 271.424 124.065 271.542 124.138C271.659 124.219 271.725 124.359 271.843 124.439C271.961 124.513 272.093 124.564 272.218 124.638C272.335 124.711 272.394 124.894 272.512 124.961C272.629 125.034 272.732 125.144 272.85 125.21C272.975 125.276 273.159 125.239 273.276 125.305C273.401 125.372 273.519 125.445 273.644 125.511C273.769 125.577 273.864 125.695 273.989 125.753C274.114 125.812 274.254 125.849 274.386 125.907C274.511 125.966 274.658 125.988 274.783 126.047C274.908 126.106 275.026 126.186 275.158 126.245C275.29 126.296 275.415 126.348 275.548 126.399C275.68 126.451 275.856 126.362 275.989 126.414C276.121 126.465 276.202 126.656 276.334 126.7C276.467 126.744 276.591 126.825 276.724 126.869C276.856 126.913 277.003 126.906 277.143 126.95C277.275 126.994 277.393 127.082 277.532 127.118C277.665 127.155 277.834 127.074 277.973 127.118C278.106 127.155 278.231 127.229 278.37 127.258C278.503 127.295 278.613 127.449 278.753 127.485C278.892 127.515 279.069 127.368 279.201 127.397C279.341 127.427 279.48 127.405 279.62 127.434C279.76 127.463 279.892 127.508 280.024 127.53C280.164 127.552 280.289 127.647 280.429 127.662C280.568 127.684 280.701 127.742 280.84 127.764C280.98 127.779 281.12 127.786 281.259 127.801C281.399 127.816 281.539 127.786 281.678 127.801C281.818 127.816 281.957 127.808 282.097 127.823C282.237 127.83 282.369 127.97 282.509 127.977C282.648 127.985 282.795 127.816 282.935 127.823C283.075 127.823 283.214 127.948 283.354 127.948C283.494 127.948 283.633 127.875 283.773 127.875C283.913 127.875 284.052 127.963 284.199 127.955C284.339 127.955 284.479 127.955 284.618 127.941C284.758 127.941 284.898 127.941 285.037 127.933C285.177 127.926 285.309 127.757 285.449 127.75C285.589 127.742 285.75 127.955 285.89 127.941C286.03 127.926 286.169 127.926 286.309 127.904C286.449 127.889 286.588 127.882 286.728 127.86C286.868 127.845 286.985 127.654 287.118 127.632C287.257 127.61 287.404 127.647 287.544 127.632C287.684 127.61 287.816 127.574 287.956 127.544C288.095 127.515 288.228 127.485 288.367 127.456C288.507 127.427 288.654 127.456 288.794 127.419C288.933 127.39 289.044 127.265 289.183 127.236C289.323 127.199 289.485 127.273 289.617 127.236C289.749 127.199 289.86 127.06 289.992 127.023C290.124 126.986 290.256 126.92 290.389 126.884C290.521 126.84 290.646 126.774 290.778 126.729C290.911 126.685 291.087 126.766 291.219 126.715C291.352 126.671 291.477 126.597 291.602 126.546C291.734 126.495 291.844 126.399 291.977 126.348C292.109 126.296 292.241 126.26 292.373 126.208C292.506 126.157 292.667 126.179 292.792 126.12C292.917 126.062 293.013 125.937 293.145 125.878C293.27 125.819 293.447 125.856 293.572 125.797C293.697 125.739 293.822 125.658 293.939 125.599C294.064 125.533 294.094 125.291 294.211 125.217C294.336 125.151 294.513 125.181 294.63 125.115C294.755 125.049 294.887 125.005 295.012 124.931C295.13 124.858 295.174 124.667 295.292 124.594C295.409 124.52 295.63 124.608 295.747 124.527C295.865 124.454 295.916 124.278 296.034 124.197C296.152 124.116 296.321 124.124 296.438 124.043C296.556 123.962 296.6 123.793 296.71 123.705C296.821 123.625 296.924 123.522 297.034 123.441C297.144 123.353 297.335 123.368 297.445 123.28C297.512 123.228 297.548 123.14 297.592 123.059C297.637 123.089 297.688 123.111 297.732 123.148C297.842 123.236 297.864 123.426 297.975 123.515C298.085 123.603 298.269 123.588 298.379 123.669C298.489 123.749 298.585 123.852 298.702 123.933C298.82 124.014 298.835 124.227 298.952 124.307C299.07 124.388 299.202 124.439 299.32 124.513C299.437 124.586 299.548 124.682 299.665 124.755C299.783 124.828 299.989 124.755 300.114 124.828C300.231 124.902 300.29 125.085 300.408 125.151C300.533 125.217 300.672 125.254 300.797 125.32C300.922 125.386 301.04 125.467 301.165 125.526C301.29 125.592 301.393 125.695 301.518 125.761C301.643 125.819 301.768 125.893 301.893 125.959C302.018 126.017 302.135 126.113 302.26 126.164C302.385 126.223 302.547 126.208 302.679 126.26C302.811 126.311 302.929 126.384 303.061 126.436C303.194 126.487 303.363 126.436 303.495 126.487C303.627 126.539 303.723 126.678 303.855 126.722C303.988 126.766 304.12 126.81 304.252 126.854C304.385 126.898 304.539 126.869 304.679 126.913C304.811 126.957 304.958 126.957 305.09 126.994C305.223 127.03 305.333 127.177 305.465 127.214C305.597 127.251 305.752 127.236 305.884 127.265C306.016 127.302 306.141 127.405 306.281 127.434C306.421 127.463 306.59 127.331 306.729 127.353C306.869 127.383 306.987 127.5 307.119 127.53C307.259 127.559 307.391 127.596 307.531 127.618C307.67 127.64 307.817 127.61 307.957 127.632C308.097 127.654 308.244 127.618 308.376 127.632C308.516 127.647 308.633 127.838 308.773 127.852C308.913 127.867 309.052 127.852 309.192 127.867C309.332 127.882 309.471 127.919 309.611 127.926C309.751 127.933 309.898 127.823 310.037 127.83C310.177 127.838 310.317 127.83 310.456 127.83C310.596 127.83 310.736 127.963 310.875 127.963C311.015 127.963 311.155 127.823 311.294 127.823C311.434 127.823 311.574 127.955 311.721 127.955C311.86 127.955 312.007 128.007 312.147 127.999C312.287 127.999 312.426 127.919 312.566 127.911C312.706 127.904 312.853 127.955 312.992 127.948C313.132 127.941 313.279 127.948 313.411 127.933C313.551 127.919 313.668 127.698 313.808 127.676C313.948 127.662 314.087 127.676 314.227 127.662C314.367 127.647 314.506 127.654 314.646 127.632C314.786 127.61 314.918 127.566 315.058 127.544C315.197 127.522 315.337 127.522 315.477 127.5C315.616 127.471 315.778 127.588 315.918 127.559C316.057 127.53 316.197 127.5 316.329 127.471C316.469 127.441 316.579 127.309 316.719 127.273C316.859 127.236 316.976 127.163 317.116 127.126C317.248 127.089 317.381 127.045 317.52 127.008C317.653 126.972 317.792 126.942 317.925 126.898C318.057 126.854 318.226 126.928 318.358 126.884C318.491 126.84 318.63 126.818 318.763 126.766C318.895 126.722 318.954 126.48 319.086 126.429C319.218 126.377 319.409 126.487 319.542 126.436C319.674 126.384 319.821 126.37 319.946 126.318C320.078 126.267 320.152 126.084 320.277 126.032C320.402 125.973 320.541 125.944 320.674 125.885C320.799 125.827 320.924 125.753 321.049 125.695C321.174 125.636 321.269 125.511 321.394 125.445C321.519 125.379 321.629 125.298 321.754 125.225C321.879 125.159 322.085 125.239 322.203 125.173C322.328 125.107 322.408 124.975 322.533 124.902C322.651 124.828 322.761 124.733 322.879 124.66C322.997 124.586 323.114 124.505 323.232 124.432C323.349 124.359 323.526 124.366 323.643 124.285C323.761 124.204 323.761 123.97 323.879 123.889C323.996 123.808 324.231 123.889 324.342 123.808C324.452 123.727 324.43 123.463 324.54 123.375C324.65 123.287 324.893 123.375 325.003 123.287C325.033 123.265 325.062 123.236 325.091 123.206C325.106 123.228 325.121 123.25 325.143 123.265C325.253 123.353 325.422 123.36 325.533 123.448C325.643 123.537 325.694 123.698 325.812 123.779C325.922 123.86 326.143 123.801 326.253 123.882C326.371 123.962 326.385 124.182 326.503 124.263C326.62 124.344 326.826 124.285 326.944 124.359C327.061 124.432 327.098 124.63 327.216 124.704C327.333 124.777 327.539 124.704 327.664 124.777C327.782 124.85 327.833 125.041 327.958 125.107C328.083 125.173 328.157 125.335 328.282 125.401C328.407 125.467 328.568 125.46 328.693 125.526C328.818 125.592 328.958 125.614 329.09 125.68C329.215 125.739 329.37 125.746 329.495 125.805C329.62 125.863 329.722 125.973 329.855 126.032C329.98 126.091 330.156 126.039 330.281 126.091C330.413 126.142 330.502 126.282 330.634 126.333C330.766 126.384 330.884 126.473 331.009 126.524C331.141 126.575 331.244 126.693 331.376 126.744C331.509 126.788 331.663 126.781 331.795 126.825C331.928 126.869 332.075 126.884 332.207 126.92C332.339 126.964 332.508 126.891 332.641 126.935C332.773 126.972 332.898 127.06 333.03 127.096C333.163 127.133 333.28 127.243 333.42 127.28C333.552 127.317 333.67 127.449 333.809 127.478C333.949 127.508 334.126 127.346 334.265 127.375C334.405 127.405 334.53 127.471 334.669 127.5C334.809 127.53 334.949 127.5 335.088 127.53C335.228 127.552 335.353 127.647 335.493 127.662C335.632 127.684 335.779 127.618 335.919 127.64C336.059 127.654 336.184 127.764 336.323 127.779C336.463 127.794 336.603 127.823 336.742 127.838C336.882 127.852 337.022 127.838 337.161 127.852C337.301 127.86 337.433 127.955 337.573 127.97C337.713 127.977 337.852 127.97 337.992 127.97C338.132 127.97 338.271 127.948 338.411 127.955C338.551 127.955 338.69 127.955 338.83 127.955C338.97 127.955 339.109 127.911 339.249 127.904C339.389 127.904 339.528 127.801 339.668 127.794C339.808 127.794 339.955 127.875 340.094 127.867C340.234 127.86 340.374 127.897 340.513 127.889C340.653 127.882 340.785 127.801 340.925 127.786C341.065 127.772 341.204 127.75 341.344 127.728C341.484 127.713 341.616 127.64 341.756 127.625C341.895 127.61 342.057 127.757 342.197 127.735C342.336 127.713 342.483 127.72 342.616 127.698C342.755 127.676 342.888 127.603 343.02 127.574C343.16 127.544 343.277 127.441 343.417 127.419C343.556 127.39 343.711 127.441 343.843 127.419C343.983 127.39 344.078 127.192 344.211 127.155C344.35 127.118 344.505 127.163 344.637 127.133C344.769 127.096 344.887 126.986 345.019 126.95C345.152 126.913 345.291 126.891 345.424 126.847C345.556 126.803 345.74 126.92 345.872 126.876C346.004 126.832 346.115 126.715 346.247 126.671C346.379 126.627 346.511 126.575 346.644 126.531C346.688 126.517 346.725 126.495 346.769 126.473V91.5928H346.739Z" fill="white"/>
</svg>
