<svg width="20" height="20" viewBox="0 0 20 20" fill="none" xmlns="http://www.w3.org/2000/svg">
<path opacity="0.5" d="M10.6933 18.1685C13.2983 17.6468 16.6667 15.7726 16.6667 10.9268C16.6667 6.51763 13.4392 3.58096 11.1183 2.23179C10.6025 1.93179 10 2.32596 10 2.92179V4.44513C10 5.64679 9.495 7.84013 8.09167 8.75263C7.375 9.21846 6.6 8.52096 6.51333 7.67096L6.44167 6.97263C6.35833 6.16096 5.53167 5.66846 4.88333 6.16346C3.7175 7.05096 2.5 8.60929 2.5 10.926C2.5 16.8518 6.9075 18.3343 9.11083 18.3343C9.23972 18.3343 9.37417 18.3301 9.51417 18.3218C9.88583 18.2751 9.51417 18.4043 10.6933 18.1676" fill="white"/>
<path d="M6.66406 15.3712C6.66406 17.5545 8.42323 18.2295 9.51156 18.3228C9.88323 18.2762 9.51156 18.4053 10.6907 18.1687C11.5566 17.8628 12.4974 17.0778 12.4974 15.3712C12.4974 14.2903 11.8149 13.6228 11.2807 13.3103C11.1174 13.2145 10.9274 13.3353 10.9132 13.5237C10.8666 14.122 10.2916 14.5987 9.90073 14.1437C9.5549 13.742 9.40906 13.1545 9.40906 12.7787V12.287C9.40906 11.992 9.11156 11.7953 8.85656 11.947C7.9099 12.5078 6.66406 13.6628 6.66406 15.3712Z" fill="white"/>
</svg>
