<svg width="64" height="64" viewBox="0 0 64 64" fill="none" xmlns="http://www.w3.org/2000/svg">
<g clip-path="url(#clip0_7745_721)">
<path d="M31.9639 31.2773C36.3433 31.2773 38.8027 28.8179 38.8027 24.4385C38.8027 20.0636 36.3433 17.5996 31.9639 17.5996C27.589 17.5996 25.125 20.0636 25.125 24.4385C25.125 28.8179 27.589 31.2773 31.9639 31.2773Z" fill="#915B41"/>
<path fill-rule="evenodd" clip-rule="evenodd" d="M31.974 11.4281C25.0894 11.4281 20.134 13.307 16.8745 16.4293C16.2128 17.0285 15.3433 17.346 14.4511 17.3143C13.5589 17.2825 12.7142 16.9039 12.0968 16.2591C11.4793 15.6142 11.1377 14.7539 11.1447 13.8612C11.1516 12.9684 11.5066 12.1136 12.134 11.4784C17.0163 6.80641 23.8597 4.56641 31.974 4.56641C40.2894 4.56641 47.2654 6.91612 52.1614 11.8121C56.7511 16.4018 59.1008 22.8247 59.3797 30.4544L60.5088 30.1984C60.9966 30.0865 61.5052 30.1047 61.9837 30.2512C62.4622 30.3976 62.8938 30.6671 63.2354 31.0328C63.577 31.3985 63.8166 31.8475 63.9302 32.3348C64.0438 32.8222 64.0273 33.3308 63.8825 33.8098C63.3854 35.5674 62.4693 37.1781 61.2129 38.5038C59.9565 39.8295 58.3972 40.8306 56.6688 41.4213C56.0874 41.6297 55.4544 41.6458 54.8631 41.467C53.1069 40.9696 51.4975 40.054 50.1726 38.7984C48.8478 37.5428 47.8471 35.9848 47.2563 34.2578C47.085 33.7865 47.0407 33.2785 47.128 32.7847C47.2152 32.2909 47.4309 31.8287 47.7533 31.4447C48.0758 31.0606 48.4936 30.7682 48.9648 30.5968C49.4361 30.4254 49.9441 30.381 50.438 30.4681L52.5317 30.8338C52.326 24.3927 50.3968 19.7435 47.3111 16.6624C44.0471 13.3984 39.0231 11.4281 31.974 11.4281ZM11.4208 33.1424L13.5374 33.5173C14.0314 33.6039 14.5395 33.5589 15.0107 33.3869C15.4818 33.2149 15.8993 32.9219 16.2213 32.5373C16.5433 32.1528 16.7584 31.6903 16.845 31.1962C16.9316 30.7022 16.8866 30.1941 16.7145 29.723C16.1264 27.9995 15.1285 26.4447 13.8067 25.1921C12.4848 23.9396 10.8786 23.0267 9.12597 22.5321C8.53474 22.3533 7.90169 22.3694 7.32026 22.5778C5.59544 23.1658 4.03934 24.1641 2.78591 25.4868C1.53247 26.8095 0.61924 28.4171 0.12483 30.171C-0.0216453 30.6501 -0.0395553 31.1593 0.0728968 31.6476C0.185349 32.1358 0.424209 32.5859 0.765518 32.9527C1.10683 33.3194 1.53858 33.59 2.01747 33.7373C2.49637 33.8845 3.00556 33.9032 3.49397 33.7916L4.57283 33.5401C4.84712 41.1744 7.19683 47.5927 11.7911 52.187C16.6825 57.0784 23.6631 59.4281 31.974 59.4281C40.3123 59.4281 47.3065 57.0647 52.2025 52.1367C52.5385 51.8218 52.8075 51.4426 52.9937 51.0215C53.1798 50.6004 53.2792 50.1461 53.286 49.6858C53.2928 49.2254 53.2068 48.7685 53.0332 48.3421C52.8596 47.9157 52.6018 47.5286 52.2753 47.204C51.9489 46.8794 51.5604 46.6238 51.133 46.4526C50.7056 46.2814 50.2481 46.198 49.7879 46.2074C49.3276 46.2168 48.8739 46.3188 48.4538 46.5073C48.0338 46.6958 47.6561 46.967 47.3431 47.3047C44.0791 50.587 39.046 52.571 31.974 52.571C24.9248 52.571 19.9054 50.5961 16.6368 47.3321C13.5511 44.2464 11.622 39.5973 11.4208 33.1424Z" fill="#915B41" fill-opacity="0.2"/>
<path fill-rule="evenodd" clip-rule="evenodd" d="M42.992 43.5328C42.2743 40.7305 41.2823 38.0745 38.9783 36.1362C37.0189 34.4786 34.5367 33.567 31.9703 33.5625C29.4148 33.5625 26.9417 34.4722 24.9623 36.1362C22.6583 38.0745 21.6663 40.7305 20.9531 43.5328C23.1337 45.5579 26.6171 46.9888 31.9703 46.9888C37.3234 46.9888 40.816 45.5579 42.992 43.5328Z" fill="#915B41"/>
</g>
<defs>
<clipPath id="clip0_7745_721">
<rect width="64" height="64" fill="white"/>
</clipPath>
</defs>
</svg>
