<svg width="18" height="18" viewBox="0 0 18 18" fill="none" xmlns="http://www.w3.org/2000/svg">
<path d="M7.5 10H1.25C0.895838 10 0.599171 9.88 0.360004 9.64C0.120838 9.4 0.000837644 9.10334 4.31034e-06 8.75C-0.000829023 8.39667 0.119171 8.1 0.360004 7.86C0.600838 7.62 0.897504 7.5 1.25 7.5H7.5V1.25C7.5 0.895838 7.62 0.599171 7.86 0.360004C8.1 0.120838 8.39667 0.000837644 8.75 4.31034e-06C9.10334 -0.000829023 9.40042 0.119171 9.64125 0.360004C9.88209 0.600838 10.0017 0.897504 10 1.25V7.5H16.25C16.6042 7.5 16.9013 7.62 17.1413 7.86C17.3813 8.1 17.5008 8.39667 17.5 8.75C17.4992 9.10334 17.3792 9.40042 17.14 9.64125C16.9008 9.88209 16.6042 10.0017 16.25 10H10V16.25C10 16.6042 9.88 16.9013 9.64 17.1413C9.4 17.3813 9.10334 17.5008 8.75 17.5C8.39667 17.4992 8.1 17.3792 7.86 17.14C7.62 16.9008 7.5 16.6042 7.5 16.25V10Z" fill="#111111"/>
</svg>
