<svg width="64" height="64" viewBox="0 0 64 64" fill="none" xmlns="http://www.w3.org/2000/svg">
<path fill-rule="evenodd" clip-rule="evenodd" d="M24.5556 40.1528C25.1602 40.2307 25.7247 40.2662 26.2526 40.2662C31.7473 40.2662 33.2694 36.3695 33.8763 34.8157L33.8771 34.8137C35.0583 31.782 36.0393 26.3077 36.4087 24.2052C36.8007 21.8683 36.2797 19.7405 34.9433 18.2127C33.7219 16.8171 31.8943 15.9983 29.7948 15.9983H23.7991C23.7991 15.9983 24.3278 13.9057 24.7259 12.355C26.0407 7.23347 23.1192 5.39772 18.9588 5.61697L12.8881 16.9657L5.33594 21.1986V36.7993L24.5556 40.1528ZM29.0621 45.8107C28.4832 45.149 28.0573 44.3745 27.7924 43.5193C30.8026 43.3001 32.9749 42.0991 34.4848 40.5558C36.0397 38.9668 36.7486 37.1497 37.0729 36.3181L37.0931 36.2663C38.3911 32.9352 39.4203 27.2166 39.8029 25.0358L39.8092 25.0143L39.8357 24.8567C39.8859 24.5568 39.9249 24.2573 39.9526 23.9583L58.6696 27.224V42.8248L51.1174 47.0577L45.0466 58.4065C40.8862 58.6257 37.9648 56.79 39.2794 51.6685C39.5903 50.4545 39.8993 49.24 40.2064 48.0251H34.2107C32.1112 48.0251 30.2834 47.2063 29.0621 45.8107Z" fill="#915B41" fill-opacity="0.6"/>
</svg>
