<svg width="185" height="70" viewBox="0 0 185 70" fill="none" xmlns="http://www.w3.org/2000/svg">
<path d="M4.20439 36.5816H2.25391V63.5958H57.6475V36.5816H4.20439ZM10.1533 56.2815V43.8959H49.7481V56.2815H10.1533Z" fill="#F2B819" stroke="#F2B819" stroke-width="0.8"/>
<path d="M51.6962 2.35507H49.7457V4.30555V15.1307H44.772V4.30555V2.35507H42.8215H38.823H36.8725V4.30555V31.0271L31.1186 3.91545L30.826 2.35507H29.2657H23.7068H22.1464L21.8538 3.91545L19.1232 17.7639L16.3925 3.91545L16.0999 2.35507H14.442H8.88315H7.42029L7.0302 3.91545L0.983714 32.8801L0.496094 35.1231H2.83666H6.93267H8.49306L8.78563 33.6603L11.8089 17.5688L15.2222 33.6603L15.5148 35.1231H17.0752H21.1712H22.7316L23.0241 33.6603L26.4375 17.5688L29.4607 33.6603L29.7533 35.1231H31.3137H35.4097H36.8725V36.391H38.823H42.8215H44.772V34.4405V22.445H49.7457V34.4405V36.391H51.6962H55.6947H57.6451V34.4405V4.30555V2.35507H55.6947H51.6962Z" fill="#F2B819" stroke="#F2B819" stroke-width="0.8"/>
<path d="M103.212 14.541H105.064V12.688V9.17715V7.22667H103.212H88.0953V2.35047V0.399994H86.2424H82.1463H80.2934V2.35047V7.22667H65.1772H63.3242V9.17715V12.688V14.541H65.1772H103.212Z" fill="#F2B819" stroke="#F2B819" stroke-width="0.8"/>
<path d="M118.021 26.5392V4.40125V2.45078H116.07H111.974H110.121V4.40125V61.7454V63.6959H111.974H116.07H118.021V61.7454V33.8535H124.847H126.798V32.0006V28.4897V26.5392H124.847H118.021Z" fill="#F2B819" stroke="#F2B819" stroke-width="0.8"/>
<path d="M182.573 56.28H155.657V28.6807V26.8277H153.706H149.708H147.757V28.6807V56.28H128.935H127.082V58.2305V61.7413V63.6918H128.935H182.573H184.524V61.7413V58.2305V56.28H182.573Z" fill="#F2B819" stroke="#F2B819" stroke-width="0.8"/>
<path d="M175.848 9.66937C175.653 14.1555 175.263 18.7391 174.678 23.6153C173.995 29.1742 173.118 35.0256 172.045 40.9746L171.655 43.2176H179.749L180.042 41.6572C180.627 38.634 181.115 35.7083 181.505 32.685C181.992 29.7593 182.382 26.6385 182.675 23.6153C183.065 20.5921 183.26 17.3738 183.553 14.253C183.748 11.1322 183.943 7.81641 184.138 4.30555V2.35507H182.187H127.379V9.66937H175.848Z" fill="#F2B819" stroke="#F2B819" stroke-width="0.8"/>
<path d="M95.5945 19.519C90.3282 16.4958 84.1842 15.6181 78.2353 17.276C72.3838 18.8364 67.4101 22.6398 64.3868 27.9061C60.0958 35.3179 58.633 47.4109 60.876 55.8955C62.2413 60.8692 64.8745 64.6726 68.4829 66.7206C73.8467 69.7439 81.0634 69.1588 88.8654 64.8677C95.2044 61.3568 101.056 55.993 104.079 50.7267C107.102 45.4604 107.98 39.3164 106.322 33.3675C104.762 27.4185 100.958 22.5423 95.692 19.519H95.5945ZM97.35 46.9233C95.0094 50.9218 90.2307 55.3104 85.0619 58.1385C79.7956 61.0643 75.017 61.7469 72.1888 60.089C69.9457 58.8212 68.7754 55.993 68.1903 53.8475C66.2398 46.5332 68.0928 36.6833 70.921 31.7095C72.969 28.1987 76.1873 25.6631 80.1857 24.5903C84.0867 23.5175 88.1827 24.1027 91.7911 26.0532C95.302 28.1012 97.8376 31.3195 98.9104 35.3179C99.9831 39.2189 99.398 43.3149 97.35 46.9233Z" fill="#F2B819" stroke="#F2B819" stroke-width="0.8"/>
</svg>
