<svg width="64" height="64" viewBox="0 0 64 64" fill="none" xmlns="http://www.w3.org/2000/svg">
<path fill-rule="evenodd" clip-rule="evenodd" d="M2.66406 53.9739C2.66406 52.8539 3.5814 51.9473 4.7094 51.9473H59.2854C60.4134 51.9473 61.3307 52.8539 61.3307 53.9739C61.3307 55.0939 60.4134 56.0006 59.2854 56.0006H4.7094C4.16952 56.0027 3.65087 55.7905 3.26737 55.4105C2.88388 55.0305 2.66688 54.5138 2.66406 53.9739Z" fill="#1FBDFF"/>
<path opacity="0.5" d="M9.84265 10.3733C7.44531 12.7467 7.44531 16.5707 7.44531 24.2133V37.7253C7.44531 42.8187 7.44531 45.368 9.04531 46.952C10.6426 48.5333 13.216 48.5333 18.36 48.5333H45.648C50.7946 48.5333 53.3653 48.5333 54.9626 46.9493C56.5626 45.368 56.5626 42.8187 56.5626 37.7227V24.2133C56.5626 16.5707 56.5626 12.7467 54.1626 10.3733C51.768 8 47.9093 8 40.1893 8H23.816C16.0986 8 12.2426 8 9.84265 10.3733Z" fill="#1FBDFF"/>
<path d="M23.811 38.4004C23.2711 38.3983 22.7524 38.6105 22.3689 38.9905C21.9854 39.3705 21.7684 39.8872 21.7656 40.4271C21.7656 41.5471 22.683 42.4537 23.8136 42.4537H40.187C41.315 42.4537 42.2323 41.5471 42.2323 40.4271C42.2323 39.3071 41.315 38.4004 40.1843 38.4004H23.811Z" fill="#1FBDFF"/>
</svg>
