<svg width="94" height="114" viewBox="0 0 94 114" fill="none" xmlns="http://www.w3.org/2000/svg">
<path d="M88.8238 0H29.4504C27.0306 0 25.0781 1.96284 25.0781 4.37225V39.5477C25.0781 41.9675 27.041 43.9199 29.4504 43.9199H36.0036V53.6614C36.0036 56.5694 39.5139 58.0233 41.5702 55.967L53.6173 43.9199H88.8238C91.2436 43.9199 93.1961 41.9571 93.1961 39.5477V4.37225C93.1961 1.95245 91.2332 0 88.8238 0Z" fill="url(#paint0_linear_7944_314)"/>
<foreignObject x="-10" y="5.96289" width="87.3086" height="117.124"><div xmlns="http://www.w3.org/1999/xhtml" style="backdrop-filter:blur(5px);clip-path:url(#bgblur_0_7944_314_clip_path);height:100%;width:100%"></div></foreignObject><g data-figma-bg-blur-radius="10">
<path d="M9.36719 16.3203H57.9404C62.9149 16.3204 66.9502 20.3567 66.9502 25.3203V103.73C66.95 108.704 62.915 112.729 57.9404 112.729H9.36719C4.39271 112.729 0.357645 108.704 0.357422 103.73V25.3203C0.357422 20.3568 4.39283 16.3205 9.36719 16.3203ZM14.6543 102.375C13.9634 102.375 13.343 102.655 12.8945 103.104C12.4456 103.553 12.167 104.183 12.167 104.862C12.1671 106.236 13.2855 107.339 14.6543 107.339H52.6543C53.3338 107.339 53.964 107.059 54.4131 106.61L54.4121 106.609C54.863 106.169 55.1406 105.539 55.1406 104.862C55.1406 103.491 54.0254 102.375 52.6543 102.375H14.6543Z" fill="url(#paint1_linear_7944_314)"/>
<path d="M9.36719 16.3203H57.9404C62.9149 16.3204 66.9502 20.3567 66.9502 25.3203V103.73C66.95 108.704 62.915 112.729 57.9404 112.729H9.36719C4.39271 112.729 0.357645 108.704 0.357422 103.73V25.3203C0.357422 20.3568 4.39283 16.3205 9.36719 16.3203ZM14.6543 102.375C13.9634 102.375 13.343 102.655 12.8945 103.104C12.4456 103.553 12.167 104.183 12.167 104.862C12.1671 106.236 13.2855 107.339 14.6543 107.339H52.6543C53.3338 107.339 53.964 107.059 54.4131 106.61L54.4121 106.609C54.863 106.169 55.1406 105.539 55.1406 104.862C55.1406 103.491 54.0254 102.375 52.6543 102.375H14.6543Z" fill="url(#paint2_linear_7944_314)"/>
<path d="M9.36719 16.3203H57.9404C62.9149 16.3204 66.9502 20.3567 66.9502 25.3203V103.73C66.95 108.704 62.915 112.729 57.9404 112.729H9.36719C4.39271 112.729 0.357645 108.704 0.357422 103.73V25.3203C0.357422 20.3568 4.39283 16.3205 9.36719 16.3203ZM14.6543 102.375C13.9634 102.375 13.343 102.655 12.8945 103.104C12.4456 103.553 12.167 104.183 12.167 104.862C12.1671 106.236 13.2855 107.339 14.6543 107.339H52.6543C53.3338 107.339 53.964 107.059 54.4131 106.61L54.4121 106.609C54.863 106.169 55.1406 105.539 55.1406 104.862C55.1406 103.491 54.0254 102.375 52.6543 102.375H14.6543Z" stroke="url(#paint3_linear_7944_314)" stroke-width="0.715739"/>
</g>
<path d="M54.7817 104.861C54.7817 105.443 54.5428 105.983 54.1585 106.357C53.7743 106.741 53.2343 106.98 52.6527 106.98H14.6524C13.4789 106.98 12.5234 106.035 12.5234 104.861C12.5234 104.28 12.7623 103.74 13.1465 103.356C13.5308 102.971 14.0605 102.732 14.6524 102.732H52.6527C53.8263 102.732 54.7817 103.688 54.7817 104.861Z" fill="#F5C84C"/>
<defs>
<clipPath id="bgblur_0_7944_314_clip_path" transform="translate(10 -5.96289)"><path d="M9.36719 16.3203H57.9404C62.9149 16.3204 66.9502 20.3567 66.9502 25.3203V103.73C66.95 108.704 62.915 112.729 57.9404 112.729H9.36719C4.39271 112.729 0.357645 108.704 0.357422 103.73V25.3203C0.357422 20.3568 4.39283 16.3205 9.36719 16.3203ZM14.6543 102.375C13.9634 102.375 13.343 102.655 12.8945 103.104C12.4456 103.553 12.167 104.183 12.167 104.862C12.1671 106.236 13.2855 107.339 14.6543 107.339H52.6543C53.3338 107.339 53.964 107.059 54.4131 106.61L54.4121 106.609C54.863 106.169 55.1406 105.539 55.1406 104.862C55.1406 103.491 54.0254 102.375 52.6543 102.375H14.6543Z"/>
</clipPath><linearGradient id="paint0_linear_7944_314" x1="23.2607" y1="51.5532" x2="89.665" y2="-3.20913" gradientUnits="userSpaceOnUse">
<stop stop-color="#F2B819"/>
<stop offset="1" stop-color="#F9DE95"/>
</linearGradient>
<linearGradient id="paint1_linear_7944_314" x1="3.79992" y1="107.604" x2="84.4724" y2="51.6975" gradientUnits="userSpaceOnUse">
<stop stop-color="white" stop-opacity="0.2"/>
<stop offset="1" stop-color="white" stop-opacity="0.49"/>
</linearGradient>
<linearGradient id="paint2_linear_7944_314" x1="3.79992" y1="107.604" x2="84.4724" y2="51.6975" gradientUnits="userSpaceOnUse">
<stop stop-color="white" stop-opacity="0.4"/>
<stop offset="1" stop-color="white" stop-opacity="0.6"/>
</linearGradient>
<linearGradient id="paint3_linear_7944_314" x1="4.75118" y1="23.6015" x2="82.5959" y2="81.2833" gradientUnits="userSpaceOnUse">
<stop stop-color="white"/>
<stop offset="1" stop-color="white" stop-opacity="0"/>
</linearGradient>
</defs>
</svg>
