<svg width="20" height="20" viewBox="0 0 20 20" fill="none" xmlns="http://www.w3.org/2000/svg">
<path fill-rule="evenodd" clip-rule="evenodd" d="M5.83333 3.34898C5.38333 3.36815 5.06 3.41065 4.77417 3.50732C4.28532 3.671 3.8411 3.94583 3.47643 4.31022C3.11175 4.6746 2.83657 5.1186 2.6725 5.60732C2.5 6.12482 2.5 6.76315 2.5 8.04148C2.5 8.12065 2.5 8.16065 2.51083 8.19232C2.52106 8.22297 2.53829 8.25083 2.56114 8.27368C2.58399 8.29653 2.61184 8.31375 2.6425 8.32398C2.67417 8.33482 2.71417 8.33482 2.79417 8.33482H17.2058C17.2858 8.33482 17.3258 8.33482 17.3575 8.32398C17.3882 8.31375 17.416 8.29653 17.4389 8.27368C17.4617 8.25083 17.4789 8.22297 17.4892 8.19232C17.5 8.15982 17.5 8.11982 17.5 8.03982C17.5 6.76232 17.5 6.12315 17.3275 5.60815C17.1637 5.11913 16.8886 4.67479 16.5239 4.31011C16.1592 3.94542 15.7149 3.67033 15.2258 3.50648C14.94 3.41065 14.6158 3.36815 14.1667 3.34898V5.41732C14.1667 5.74884 14.035 6.06678 13.8005 6.3012C13.5661 6.53562 13.2482 6.66732 12.9167 6.66732C12.5851 6.66732 12.2672 6.53562 12.0328 6.3012C11.7984 6.06678 11.6667 5.74884 11.6667 5.41732V3.33398H8.33333V5.41732C8.33333 5.74884 8.20164 6.06678 7.96722 6.3012C7.7328 6.53562 7.41485 6.66732 7.08333 6.66732C6.75181 6.66732 6.43387 6.53562 6.19945 6.3012C5.96503 6.06678 5.83333 5.74884 5.83333 5.41732V3.34898Z" fill="white"/>
<path d="M2.5 9.58464C2.5 9.38797 2.5 9.28964 2.56083 9.2288C2.62167 9.16797 2.72 9.16797 2.91667 9.16797H17.0833C17.28 9.16797 17.3783 9.16797 17.4392 9.2288C17.5 9.28964 17.5 9.38797 17.5 9.58464V10.0013C17.5 13.1438 17.5 14.7155 16.5233 15.6913C15.5467 16.6671 13.9758 16.668 10.8333 16.668H9.16667C6.02417 16.668 4.4525 16.668 3.47667 15.6913C2.50083 14.7146 2.5 13.1438 2.5 10.0013V9.58464Z" fill="black" fill-opacity="0.25"/>
<path d="M7.08594 2.08398V5.41732M12.9193 2.08398V5.41732" stroke="white" stroke-width="0.833333" stroke-linecap="round"/>
</svg>
