<svg width="64" height="64" viewBox="0 0 64 64" fill="none" xmlns="http://www.w3.org/2000/svg">
<mask id="mask0_7745_1099" style="mask-type:luminance" maskUnits="userSpaceOnUse" x="4" y="4" width="56" height="56">
<path d="M32 57.0001C45.8076 57.0001 57.0001 45.8076 57.0001 32C57.0001 18.1925 45.8076 7 32 7C18.1925 7 7 18.1925 7 32C7 45.8076 18.1925 57.0001 32 57.0001Z" fill="white" stroke="white" stroke-width="5.33333" stroke-linejoin="round"/>
<path d="M40.75 45.75C40.75 45.75 38.25 40.75 32 40.75C25.75 40.75 23.25 45.75 23.25 45.75M43.25 25.75L38.25 28.25M20.75 25.75L25.75 28.25" stroke="black" stroke-width="5.33333" stroke-linecap="round" stroke-linejoin="round"/>
</mask>
<g mask="url(#mask0_7745_1099)">
<path d="M2 2H62.0001V62.0001H2V2Z" fill="#D9D9D9"/>
</g>
</svg>
