<svg width="64" height="64" viewBox="0 0 64 64" fill="none" xmlns="http://www.w3.org/2000/svg">
<path d="M58.9929 21.7269C58.9929 23.6609 58.612 25.5759 57.8719 27.3627C57.1318 29.1494 56.047 30.7729 54.6795 32.1404C53.312 33.5079 51.6885 34.5927 49.9017 35.3328C48.115 36.0729 46.1999 36.4538 44.266 36.4538C42.332 36.4538 40.417 36.0729 38.6302 35.3328C36.8435 34.5927 35.22 33.5079 33.8525 32.1404C32.485 30.7729 31.4002 29.1494 30.6601 27.3627C29.92 25.5759 29.5391 23.6609 29.5391 21.7269C29.5391 17.8211 31.0906 14.0752 33.8525 11.3134C36.6143 8.55158 40.3602 7 44.266 7C48.1718 7 51.9177 8.55158 54.6795 11.3134C57.4413 14.0752 58.9929 17.8211 58.9929 21.7269Z" fill="#F2B819" fill-opacity="0.2"/>
<path fill-rule="evenodd" clip-rule="evenodd" d="M5 46.7248C4.9999 45.1634 5.3418 43.6209 6.00167 42.2057C6.66154 40.7906 7.62336 39.5372 8.81952 38.5335C10.0157 37.5299 11.4172 36.8005 12.9254 36.3965C14.4337 35.9925 16.0121 35.9237 17.5498 36.1951L30.7721 38.5293V44.884H19.7269V48.5657H30.7721V48.5976L44.4092 45.6768C44.96 45.5571 45.522 45.497 46.0857 45.4976H47.9535C49.5809 45.4976 51.1417 46.1441 52.2925 47.2948C53.4432 48.4456 54.0897 50.0064 54.0897 51.6338V53.6244L28.5729 58.9972H5V46.7248ZM42.4309 11.1348H46.1126V17.8846H51.6352V21.5663H42.4309V11.1348Z" fill="#F2B819"/>
</svg>
