<svg width="64" height="64" viewBox="0 0 64 64" fill="none" xmlns="http://www.w3.org/2000/svg">
<path d="M45.5005 8.61771C49.5729 10.969 52.9605 14.3431 55.3281 18.406C57.6957 22.4689 58.9611 27.0797 58.9991 31.7819C59.0371 36.4842 57.8463 41.1148 55.5447 45.2154C53.243 49.316 49.9103 52.7444 45.8765 55.1612C41.8426 57.578 37.2475 58.8993 32.546 58.9945C27.8445 59.0896 23.1997 57.9553 19.0714 55.7037C14.943 53.4521 11.4743 50.1613 9.00865 46.1572C6.54297 42.1531 5.16581 37.5744 5.0135 32.8745L5 31.9997L5.0135 31.1249C5.16471 26.462 6.5216 21.9178 8.95188 17.9354C11.3822 13.953 14.8029 10.6682 18.8806 8.40139C22.9583 6.13455 27.5538 4.96298 32.2191 5.00089C36.8843 5.0388 41.4602 6.2849 45.5005 8.61771ZM32.0003 35.2397C30.3841 35.2396 28.7842 35.5619 27.2941 36.1878C25.804 36.8137 24.4538 37.7305 23.3224 38.8847C23.0683 39.1366 22.8668 39.4365 22.7296 39.767C22.5924 40.0974 22.5222 40.4519 22.5232 40.8097C22.5242 41.1675 22.5963 41.5215 22.7353 41.8513C22.8744 42.181 23.0775 42.4797 23.333 42.7302C23.5885 42.9807 23.8913 43.1779 24.2237 43.3104C24.5561 43.4429 24.9115 43.5079 25.2693 43.5018C25.627 43.4958 25.98 43.4186 26.3077 43.2749C26.6354 43.1312 26.9312 42.9238 27.1781 42.6647C27.8066 42.023 28.5568 41.5132 29.3849 41.1652C30.2129 40.8172 31.1021 40.6379 32.0003 40.6379C32.8985 40.6379 33.7877 40.8172 34.6158 41.1652C35.4438 41.5132 36.1941 42.023 36.8226 42.6647C37.3264 43.1641 38.0066 43.4452 38.716 43.4472C39.4254 43.4491 40.1071 43.1718 40.6136 42.6752C41.1202 42.1785 41.411 41.5025 41.4231 40.7932C41.4351 40.0839 41.1676 39.3983 40.6782 38.8847C39.5469 37.7305 38.1967 36.8137 36.7066 36.1878C35.2165 35.5619 33.6165 35.2396 32.0003 35.2397ZM23.9272 23.8997L23.5843 23.9186C22.9281 23.9967 22.3233 24.3127 21.8844 24.8068C21.4456 25.3009 21.2032 25.9388 21.2032 26.5997C21.2032 27.2606 21.4456 27.8985 21.8844 28.3926C22.3233 28.8867 22.9281 29.2027 23.5843 29.2808L23.9002 29.2997L24.2431 29.2808C24.8994 29.2027 25.5042 28.8867 25.943 28.3926C26.3819 27.8985 26.6243 27.2606 26.6243 26.5997C26.6243 25.9388 26.3819 25.3009 25.943 24.8068C25.5042 24.3127 24.8994 23.9967 24.2431 23.9186L23.9272 23.8997ZM40.1274 23.8997L39.7845 23.9186C39.1283 23.9967 38.5235 24.3127 38.0846 24.8068C37.6458 25.3009 37.4034 25.9388 37.4034 26.5997C37.4034 27.2606 37.6458 27.8985 38.0846 28.3926C38.5235 28.8867 39.1283 29.2027 39.7845 29.2808L40.1004 29.2997L40.4433 29.2808C41.0996 29.2027 41.7044 28.8867 42.1432 28.3926C42.5821 27.8985 42.8245 27.2606 42.8245 26.5997C42.8245 25.9388 42.5821 25.3009 42.1432 24.8068C41.7044 24.3127 41.0996 23.9967 40.4433 23.9186L40.1274 23.8997Z" fill="#D9D9D9"/>
</svg>
