<svg width="284" height="243" viewBox="0 0 284 243" fill="none" xmlns="http://www.w3.org/2000/svg">
<path d="M204.933 212.37C138.035 246.099 84.5133 249.312 59.6591 234.857C34.8048 220.403 11.8761 169 9.95993 162.576C8.04388 156.152 -7.23714 109.57 4.2255 71.0225C15.6881 32.4746 66.5405 -5.43387 155.234 16.4108C243.928 38.2555 277.57 92.9742 283.304 117.603C287.765 133.13 271.831 178.641 204.933 212.37Z" fill="#38B69F"/>
<path d="M164.622 225.488C87.8703 237.3 36.4808 224.492 19.3367 203.615C2.19254 182.738 2.41757 127.838 3.33324 121.257C4.24891 114.676 9.59233 66.5483 36.5515 33.8448C63.5108 1.14121 127.024 -19.3248 200.735 27.3348C274.445 73.9944 282.839 135.165 277.822 159.919C275.448 175.774 241.375 213.676 164.622 225.488Z" fill="#38B69F" fill-opacity="0.3"/>
</svg>
