<svg width="1280" height="60" viewBox="0 0 1280 60" fill="none" xmlns="http://www.w3.org/2000/svg">
<rect width="1280" height="60" fill="#1D70D8"/>
<g clip-path="url(#clip0_174_398)">
<path d="M1171.99 39.351C1171.95 38.1118 1171.15 37.0211 1170.34 36.1369C1168.91 34.5622 1167.8 34.2266 1168.06 31.6643C1168.12 31.019 1167.13 30.7092 1166.9 31.361C1165.46 35.5883 1164.51 40.0351 1163.71 44.4431C1163.52 44.0172 1163.28 43.6235 1162.98 43.3395C1161.87 42.2617 1160.04 41.9325 1158.56 42.365C1156.85 42.8619 1155.76 44.2495 1156.05 46.0308C1156.32 47.6636 1157.68 48.664 1159.23 48.806C1160.99 49.2771 1162.95 48.9157 1163.83 47.1667C1163.9 47.1344 1163.96 47.0763 1164 46.9924C1165.55 43.0362 1165.97 38.7572 1167.09 34.6654C1167.23 34.9494 1167.42 35.2334 1167.66 35.5044C1168.92 36.9243 1173.3 40.4288 1169.1 41.9067C1168.55 42.1003 1168.75 42.8361 1169.25 42.9329C1171.47 43.3653 1172.06 41.0677 1172 39.3445L1171.99 39.351Z" fill="#FFF277"/>
</g>
<path d="M104.414 25.3183C103.136 26.7977 102.195 28.989 104.21 29.8118C105.739 30.4367 106.782 29.4162 107.377 28.0634C108.075 29.4083 109.4 30.3023 110.96 29.2738C112.552 28.2296 111.838 26.7423 110.78 25.5082C112.669 25.6585 114.645 24.8674 113.798 22.6207C113.171 20.9435 111.368 20.7062 109.871 21.3074C110.255 19.567 109.761 17.8108 107.307 18.0165C105.465 18.1747 105.104 20.2078 105.747 21.6476C103.967 20.5875 101.615 20.2711 101.074 22.4545C100.588 24.4323 102.579 25.255 104.414 25.3183Z" fill="#FFDE00"/>
<g clip-path="url(#clip1_174_398)">
<path d="M1278.6 16.6649C1277 15.7209 1275.01 15.809 1273.19 15.8845C1271.61 10.6235 1263.66 10.8081 1262.44 15.8216C1260.4 12.8597 1254.25 14.0008 1254.01 17.8815C1253.75 22.0979 1259.47 25.1438 1262.58 22.5804C1262.79 24.5732 1265.65 25.7815 1267.65 25.966C1270.61 26.2387 1273.06 24.9759 1273.42 22.4629C1275.02 23.7047 1278.68 22.7188 1279.63 20.9861C1280.37 19.6436 1279.97 17.4788 1278.6 16.6691L1278.6 16.6649Z" fill="white"/>
</g>
<g clip-path="url(#clip2_174_398)">
<path d="M24.9953 35.8059C23.2901 35.0742 21.3241 35.4168 19.5315 35.7242C17.2865 30.7093 9.43082 31.9093 8.85966 37.0381C6.46053 34.3612 0.499571 36.2811 0.7614 40.1602C1.04483 44.375 7.11037 46.6633 9.86141 43.7236C10.3257 45.673 13.3161 46.5054 15.3256 46.4322C18.2944 46.324 20.567 44.7574 20.5956 42.2198C22.3432 43.2464 25.8513 41.7996 26.5691 39.9599C27.1275 38.5342 26.4618 36.4373 24.9916 35.8106L24.9953 35.8059Z" fill="white"/>
</g>
<mask id="mask0_174_398" style="mask-type:alpha" maskUnits="userSpaceOnUse" x="0" y="0" width="1280" height="60">
<rect width="1280" height="60" fill="#1D70D8"/>
</mask>
<g mask="url(#mask0_174_398)">
<ellipse cx="641" cy="32" rx="641" ry="165" fill="url(#paint0_radial_174_398)"/>
</g>
<path d="M403.925 21.35V24.6C403.925 25.1833 403.875 25.7417 403.775 26.275C403.692 26.7917 403.558 27.3083 403.375 27.825L412.175 32L409.625 35.825L400.925 31.575C398.858 33.625 395.858 35.125 391.925 36.075L389.8 32.05C392.6 31.4833 394.783 30.5833 396.35 29.35C397.933 28.1 398.725 26.5083 398.725 24.575V21.35H403.925ZM390.15 37.6H411.775V41.9H390.15V37.6ZM427.924 21.35V24.6C427.924 25.1833 427.874 25.7417 427.774 26.275C427.691 26.7917 427.557 27.3083 427.374 27.825L436.174 32L433.624 35.825L424.924 31.575C422.857 33.625 419.857 35.125 415.924 36.075L413.799 32.05C416.599 31.4833 418.782 30.5833 420.349 29.35C421.932 28.1 422.724 26.5083 422.724 24.575V21.35H427.924ZM414.149 37.6H435.774V41.9H414.149V37.6ZM439.398 25.05V21.25H458.573V30.25H444.573V31.675H458.823V35.475H451.573V37.6H459.798V41.9H438.173V37.6H446.398V35.475H439.398V26.45H453.373V25.05H439.398ZM480.004 42.9C476.854 42.9 474.421 42.55 472.704 41.85C471.004 41.15 470.154 39.975 470.154 38.325C470.154 36.675 471.004 35.5083 472.704 34.825C474.421 34.125 476.854 33.775 480.004 33.775C481.571 33.775 482.962 33.8583 484.179 34.025C485.412 34.1917 486.446 34.4583 487.279 34.825C488.129 35.175 488.771 35.6417 489.204 36.225C489.637 36.8083 489.854 37.5083 489.854 38.325C489.854 39.975 488.996 41.15 487.279 41.85C485.579 42.55 483.154 42.9 480.004 42.9ZM484.154 25.3H470.654V21H489.329V28.35H484.154V25.3ZM469.179 29.15H475.904V26.75H481.079V29.15H490.804V32.95H469.179V29.15ZM480.004 39.2C481.471 39.2 482.612 39.1417 483.429 39.025C484.262 38.9083 484.679 38.675 484.679 38.325C484.679 37.975 484.262 37.7417 483.429 37.625C482.612 37.5083 481.471 37.45 480.004 37.45C478.537 37.45 477.387 37.5083 476.554 37.625C475.737 37.7417 475.329 37.975 475.329 38.325C475.329 38.675 475.737 38.9083 476.554 39.025C477.387 39.1417 478.537 39.2 480.004 39.2ZM494.403 32.85V21.25H499.578V22.725H508.403V21.25H513.578V32.85H494.403ZM493.178 34.525H514.803V38.825H506.578V42.675H501.403V38.825H493.178V34.525ZM508.403 28.55V27.025H499.578V28.55H508.403ZM523.877 41.9C522.977 41.9 522.127 41.775 521.327 41.525C520.527 41.275 519.827 40.8667 519.227 40.3C518.644 39.75 518.177 39.0333 517.827 38.15C517.477 37.25 517.302 36.1667 517.302 34.9C517.302 33.6333 517.477 32.5583 517.827 31.675C518.177 30.7917 518.644 30.075 519.227 29.525C519.827 28.9583 520.527 28.55 521.327 28.3C522.127 28.0333 522.977 27.9 523.877 27.9C524.777 27.9 525.627 28.0333 526.427 28.3C527.227 28.55 527.919 28.9583 528.502 29.525C529.102 30.075 529.577 30.7917 529.927 31.675C530.277 32.5583 530.452 33.6333 530.452 34.9C530.452 36.1667 530.277 37.25 529.927 38.15C529.577 39.0333 529.102 39.75 528.502 40.3C527.919 40.8667 527.227 41.275 526.427 41.525C525.627 41.775 524.777 41.9 523.877 41.9ZM537.552 28.075H539.727V32.375H537.552V41.9H532.377V20.75H537.552V28.075ZM526.452 22.5H531.052V26.8H516.677V22.5H521.277V20.3H526.452V22.5ZM523.877 37.6C524.36 37.6 524.719 37.3917 524.952 36.975C525.185 36.5417 525.302 35.85 525.302 34.9C525.302 33.95 525.185 33.2667 524.952 32.85C524.719 32.4167 524.36 32.2 523.877 32.2C523.394 32.2 523.035 32.4167 522.802 32.85C522.569 33.2667 522.452 33.95 522.452 34.9C522.452 35.85 522.569 36.5417 522.802 36.975C523.035 37.3917 523.394 37.6 523.877 37.6ZM547.826 24.8H561.326V29.1H542.651V21H547.826V24.8ZM541.176 30.275H562.801V34.575H541.176V30.275ZM547.576 35.775V38.125H561.826V42.4H542.401V35.775H547.576ZM586.007 31.45C586.007 33.4667 585.79 35.15 585.357 36.5C584.94 37.8333 584.39 38.9 583.707 39.7C583.04 40.5 582.282 41.0667 581.432 41.4C580.582 41.7333 579.732 41.9 578.882 41.9C578.015 41.9 577.157 41.7333 576.307 41.4C575.457 41.0667 574.69 40.5 574.007 39.7C573.34 38.9 572.799 37.8333 572.382 36.5C571.965 35.15 571.757 33.4667 571.757 31.45C571.757 29.4333 571.965 27.7583 572.382 26.425C572.799 25.075 573.34 24 574.007 23.2C574.69 22.4 575.457 21.8333 576.307 21.5C577.157 21.1667 578.015 21 578.882 21C579.732 21 580.582 21.1667 581.432 21.5C582.282 21.8333 583.04 22.4 583.707 23.2C584.39 24 584.94 25.075 585.357 26.425C585.79 27.7583 586.007 29.4333 586.007 31.45ZM592.557 28.075H594.732V32.375H592.557V41.9H587.382V20.75H592.557V28.075ZM576.907 31.45C576.907 32.7333 576.965 33.775 577.082 34.575C577.199 35.375 577.349 36 577.532 36.45C577.715 36.9 577.924 37.2083 578.157 37.375C578.407 37.525 578.649 37.6 578.882 37.6C579.099 37.6 579.324 37.525 579.557 37.375C579.79 37.2083 579.999 36.9083 580.182 36.475C580.382 36.025 580.54 35.4 580.657 34.6C580.774 33.7833 580.832 32.725 580.832 31.425C580.832 30.1417 580.774 29.1 580.657 28.3C580.54 27.5 580.382 26.8833 580.182 26.45C579.999 26 579.79 25.7 579.557 25.55C579.324 25.3833 579.099 25.3 578.882 25.3C578.649 25.3 578.407 25.3833 578.157 25.55C577.924 25.7 577.715 26 577.532 26.45C577.349 26.9 577.199 27.525 577.082 28.325C576.965 29.125 576.907 30.1667 576.907 31.45ZM610.506 31.45C610.506 33.4667 610.289 35.15 609.856 36.5C609.439 37.8333 608.881 38.9 608.181 39.7C607.498 40.5 606.714 41.0667 605.831 41.4C604.948 41.7333 604.048 41.9 603.131 41.9C602.198 41.9 601.289 41.7333 600.406 41.4C599.523 41.0667 598.731 40.5 598.031 39.7C597.348 38.9 596.798 37.8333 596.381 36.5C595.964 35.15 595.756 33.4667 595.756 31.45C595.756 29.4333 595.964 27.7583 596.381 26.425C596.798 25.075 597.348 24 598.031 23.2C598.731 22.4 599.523 21.8333 600.406 21.5C601.289 21.1667 602.198 21 603.131 21C604.048 21 604.948 21.1667 605.831 21.5C606.714 21.8333 607.498 22.4 608.181 23.2C608.881 24 609.439 25.075 609.856 26.425C610.289 27.7583 610.506 29.4333 610.506 31.45ZM600.906 31.45C600.906 32.7333 600.964 33.775 601.081 34.575C601.198 35.375 601.356 36 601.556 36.45C601.773 36.9 602.014 37.2083 602.281 37.375C602.548 37.525 602.831 37.6 603.131 37.6C603.414 37.6 603.689 37.525 603.956 37.375C604.223 37.2083 604.456 36.9083 604.656 36.475C604.856 36.025 605.014 35.4 605.131 34.6C605.264 33.7833 605.331 32.725 605.331 31.425C605.331 30.1417 605.264 29.1 605.131 28.3C605.014 27.5 604.856 26.8833 604.656 26.45C604.456 26 604.223 25.7 603.956 25.55C603.689 25.3833 603.414 25.3 603.131 25.3C602.831 25.3 602.548 25.3833 602.281 25.55C602.014 25.7 601.773 26 601.556 26.45C601.356 26.9 601.198 27.525 601.081 28.325C600.964 29.125 600.906 30.1667 600.906 31.45ZM617.306 41.9H612.131V20.75H617.306V41.9Z" fill="#FFDE00"/>
<path d="M620.18 33.25V30.175H641.805V33.25H620.18ZM635.405 36.975V36.3H621.405V33.925H640.58V39.35H626.58V40.025H640.83V42.4H621.405V36.975H635.405ZM635.155 24.025V23.35H621.655V20.975H640.33V26.4H626.83V27.075H640.58V29.45H621.655V24.025H635.155ZM664.236 21V33.525H651.511V21H664.236ZM657.736 35.025V38.125H671.811V42.4H652.561V35.025H657.736ZM671.561 28.725V35.925H666.386V20.75H671.561V24.425H673.736V28.725H671.561ZM659.336 29.475V25.05H656.411V29.475H659.336ZM695.835 31.175V35.475H676.41V21.25H695.585V25.55H681.585V31.175H695.835ZM675.185 37.6H696.81V41.9H675.185V37.6ZM705.834 24.8H719.334V29.1H700.659V21H705.834V24.8ZM699.184 30.275H720.809V34.575H699.184V30.275ZM705.584 35.775V38.125H719.834V42.4H700.409V35.775H705.584ZM739.965 22.5H744.815V26.8H739.94C739.923 27.3833 739.848 27.95 739.715 28.5L745.265 31.975L742.715 35.55L737.64 32.275C736.89 33.0583 735.973 33.725 734.89 34.275C733.806 34.8083 732.581 35.2333 731.215 35.55L729.24 31.775C730.823 31.4917 732.106 30.9333 733.09 30.1C734.073 29.25 734.631 28.15 734.765 26.8H729.94V22.5H734.79V20.05H739.965V22.5ZM751.315 41.9H746.14V20.75H751.315V41.9ZM734.665 37.1V34.625H739.84V37.1H745.165V41.375H729.565V37.1H734.665ZM769.414 25.55H755.414V21.25H774.589V35.475H769.414V25.55ZM754.189 37.6H760.914V29.75H766.089V37.6H775.814V41.9H754.189V37.6ZM793.163 37.1V41.375H777.563V37.1H793.163ZM799.313 41.9H794.138V20.75H799.313V41.9ZM785.188 31.2C785.821 31.2 786.321 30.9333 786.688 30.4C787.071 29.85 787.263 29.0583 787.263 28.025C787.263 26.9583 787.071 26.1583 786.688 25.625C786.321 25.0917 785.821 24.825 785.188 24.825C783.804 24.825 783.113 25.8917 783.113 28.025C783.113 29.075 783.288 29.8667 783.638 30.4C784.004 30.9333 784.521 31.2 785.188 31.2ZM777.938 28.025C777.938 26.875 778.113 25.8417 778.463 24.925C778.813 23.9917 779.304 23.2 779.938 22.55C780.571 21.9 781.329 21.4 782.213 21.05C783.113 20.7 784.104 20.525 785.188 20.525C786.271 20.525 787.254 20.7 788.138 21.05C789.038 21.4 789.804 21.9 790.438 22.55C791.071 23.2 791.563 23.9917 791.913 24.925C792.263 25.8417 792.438 26.875 792.438 28.025C792.438 29.1583 792.263 30.1833 791.913 31.1C791.563 32.0167 791.071 32.8 790.438 33.45C789.804 34.1 789.038 34.6 788.138 34.95C787.254 35.3 786.271 35.475 785.188 35.475C784.104 35.475 783.113 35.3 782.213 34.95C781.329 34.6 780.571 34.1 779.938 33.45C779.304 32.8 778.813 32.0167 778.463 31.1C778.113 30.1833 777.938 29.1583 777.938 28.025ZM818.469 30.225C818.469 31.325 818.369 32.3833 818.169 33.4L823.794 37.775L821.219 41.6L816.319 37.725C815.652 38.625 814.819 39.4083 813.819 40.075C812.819 40.7417 811.619 41.25 810.219 41.6L807.994 37.825C808.944 37.5583 809.752 37.2167 810.419 36.8C811.085 36.3667 811.627 35.8417 812.044 35.225C812.477 34.5917 812.794 33.8667 812.994 33.05C813.194 32.2167 813.294 31.2667 813.294 30.2V20.95H818.469V30.225ZM830.319 41.9H825.144V31.525L821.269 32.825V28.1L825.144 26.8V20.75H830.319V41.9ZM838.693 27.25H841.568V21.25H846.743V41.65H833.518V21.25H838.693V27.25ZM854.318 41.9H849.143V20.75H854.318V41.9ZM841.568 31.55H838.693V37.35H841.568V31.55ZM870.942 21.35V24.6C870.942 25.1833 870.892 25.7417 870.792 26.275C870.708 26.7917 870.575 27.3083 870.392 27.825L879.192 32L876.642 35.825L867.942 31.575C865.875 33.625 862.875 35.125 858.942 36.075L856.817 32.05C859.617 31.4833 861.8 30.5833 863.367 29.35C864.95 28.1 865.742 26.5083 865.742 24.575V21.35H870.942ZM857.167 37.6H878.792V41.9H857.167V37.6ZM881.766 36.125V20.95H886.941V36.125H881.766ZM881.766 42.4V37.475H886.941V42.4H881.766Z" fill="white"/>
<circle cx="400.5" cy="13.5" r="1.5" fill="#FFDE00"/>
<circle cx="424.5" cy="13.5" r="1.5" fill="#FFDE00"/>
<circle cx="448.5" cy="13.5" r="1.5" fill="#FFDE00"/>
<g clip-path="url(#clip3_174_398)">
<path d="M934.333 46.1122L930.836 48.9999L919.748 42.2019L919.834 34.8926L931.333 36.5942L933.084 40.6721L934.333 46.1122Z" fill="white"/>
<path d="M930.836 40.7559L930.918 43.0526L930.836 48.9998L957.585 44.4105L957.503 38.3795L935.5 36.7617L930.836 40.7559Z" fill="#01DF73"/>
<path d="M944.833 30.5586L919.834 34.8922L931 43.4756L957.503 38.2912L944.833 30.5586Z" fill="#FFF277"/>
<path d="M941.126 43.4002L941.003 43.5259C939.807 44.7456 941.705 46.5896 942.901 45.37L943.025 45.2443C944.221 44.0247 942.322 42.1806 941.126 43.4002Z" fill="#4173E6"/>
<path d="M945.573 42.7225L945.449 42.8482C944.253 44.0678 946.152 45.9119 947.348 44.6923L947.471 44.5666C948.667 43.347 946.768 41.5029 945.573 42.7225Z" fill="#4173E6"/>
<path d="M950.073 41.9295L949.949 42.0552C948.753 43.2749 950.652 45.1189 951.848 43.8993L951.971 43.7736C953.167 42.554 951.268 40.7099 950.073 41.9295Z" fill="#4173E6"/>
<path d="M935.027 43.4683C935.015 43.0282 934.349 43.045 934.362 43.485C934.403 44.9226 934.267 46.3559 934.308 47.7935C934.321 48.2336 934.986 48.2168 934.974 47.7767C934.933 46.3392 935.068 44.9058 935.031 43.4725L935.027 43.4683Z" fill="#FFF277"/>
<path d="M953.919 26.4774L961 26.7331V33.1078L944.833 39.7381L916 33.3634L917.249 32.5126L935.582 25.459L953.919 26.4774Z" fill="#4173E6"/>
<path d="M944.336 29.4526L945.002 32.9396L944.751 38.3796L917.25 32.5121L917.332 25.4584L930.417 24.8633L944.336 29.4526Z" fill="white"/>
<path d="M943 35.743L944.751 38.3792L959.919 32.256L959.668 26.9039L943.916 26.5645L943 35.743Z" fill="white"/>
<path d="M933.416 19L917.332 25.4585L945.001 32.9396L961 26.7326L933.416 19Z" fill="#FF7948"/>
<path d="M949.752 24.9512C949.752 24.9512 941.085 28.522 941.249 28.7735C941.418 29.0291 945.918 30.0476 945.918 30.0476L954.503 26.2253C954.503 26.2253 950.755 25.1188 949.752 24.9512Z" fill="#FFF277"/>
<path d="M943.333 34.6948C943.308 34.6948 943.287 34.6948 943.263 34.6864L920.097 29.1626C919.933 29.1248 919.83 28.953 919.867 28.7854C919.904 28.6177 920.072 28.5129 920.237 28.5507L943.407 34.0745C943.571 34.1123 943.674 34.2841 943.637 34.4517C943.604 34.5984 943.476 34.6948 943.337 34.6948H943.333Z" fill="#4173E6"/>
<path d="M942.001 36.5644C941.981 36.5644 941.956 36.5644 941.931 36.5561L920.183 31.5435C920.019 31.5058 919.912 31.3381 919.949 31.1663C919.986 30.9986 920.151 30.8897 920.319 30.9274L942.071 35.94C942.236 35.9777 942.342 36.1453 942.305 36.3172C942.273 36.4639 942.145 36.5603 942.005 36.5603L942.001 36.5644Z" fill="#4173E6"/>
</g>
<path d="M1060.61 15.1663C1060.31 13.2985 1059.32 11.2554 1057.57 12.2693C1056.24 13.0393 1056.35 14.4421 1056.95 15.7152C1055.6 15.4179 1054.2 15.8677 1054.02 17.6669C1053.83 19.5042 1055.29 19.8777 1056.77 19.832C1055.57 21.1585 1054.97 23.1254 1057.04 23.8649C1058.58 24.4138 1059.8 23.2093 1060.25 21.7074C1061.25 23.0721 1062.77 23.7734 1064.06 21.7989C1065.02 20.3199 1063.8 18.8104 1062.42 18.4064C1064.2 17.7202 1065.79 16.1498 1064.57 14.4116C1063.46 12.8335 1061.72 13.8246 1060.62 15.1663H1060.61Z" fill="#FFB8B8"/>
<g clip-path="url(#clip4_174_398)">
<path d="M320.005 31.9087L317 33.8234L317.578 36.0759C317.578 36.0759 330.293 41.3694 331.565 43.5094L333.183 43.9599C333.183 43.9599 345.204 45.0862 348.094 47.0008L360 25.4889L358.497 23.9121L349.25 25.4889L320.005 31.9087Z" fill="#D18383"/>
<path d="M335.957 25.7137L343.239 22.1096C343.239 22.1096 350.753 21.4338 358.497 23.9116L346.476 45.0857C346.476 45.0857 336.535 43.0584 332.72 42.27C328.906 41.4816 332.952 27.741 332.952 27.741L335.957 25.7137Z" fill="white"/>
<path d="M332.72 42.2696L343.239 22.1092C343.239 22.1092 334.108 15.802 327.866 14L317 33.8225C317 33.8225 326.71 38.215 332.72 42.2696Z" fill="#FFF277"/>
<path d="M337.45 24.6403C335.143 23.1806 332.831 21.73 330.399 20.4731C329.872 20.1983 329.424 20.9912 329.951 21.2615C332.383 22.5184 334.695 23.969 337.002 25.4287C337.501 25.7486 337.945 24.9557 337.45 24.6403Z" fill="#FF7948"/>
<path d="M331.44 26.1092C330.27 25.4244 329.095 24.7531 327.856 24.1945C327.315 23.9512 326.867 24.7396 327.408 24.9829C328.647 25.5415 329.821 26.2128 330.991 26.8975C331.504 27.1994 331.948 26.4065 331.44 26.1092Z" fill="#FF7948"/>
<path d="M349.241 30.2716C347.049 29.2445 344.719 28.6858 342.31 28.429C341.727 28.366 341.496 29.24 342.088 29.303C344.418 29.5508 346.675 30.0689 348.797 31.06C349.333 31.3123 349.782 30.5239 349.245 30.2716H349.241Z" fill="#4173E6"/>
<path d="M347.391 33.8771C345.2 32.8499 342.869 32.2913 340.46 32.0345C339.878 31.9714 339.647 32.8454 340.238 32.9085C342.569 33.1563 344.825 33.6744 346.947 34.6655C347.484 34.9178 347.932 34.1294 347.396 33.8771H347.391Z" fill="#4173E6"/>
</g>
<path d="M226.932 41.5556C228.772 41.1853 230.772 40.0962 229.685 38.3681C228.856 37.0612 227.464 37.2282 226.217 37.8889C226.453 36.5094 225.936 35.1226 224.134 35.0064C222.293 34.8902 221.989 36.3787 222.103 37.8744C220.727 36.7127 218.742 36.1971 218.103 38.3173C217.624 39.8929 218.886 41.0764 220.4 41.4612C219.092 42.5285 218.461 44.0968 220.491 45.3094C222.004 46.2169 223.457 44.9245 223.799 43.5087C224.567 45.2731 226.21 46.8123 227.883 45.5054C229.403 44.3219 228.331 42.6156 226.947 41.5483L226.932 41.5556Z" fill="#01DF73"/>
<defs>
<radialGradient id="paint0_radial_174_398" cx="0" cy="0" r="1" gradientUnits="userSpaceOnUse" gradientTransform="translate(641 32) rotate(90) scale(165 641)">
<stop offset="0.745" stop-color="#568FD6" stop-opacity="0.6"/>
<stop offset="1" stop-color="#1D70D8" stop-opacity="0.9"/>
</radialGradient>
<clipPath id="clip0_174_398">
<rect width="16" height="18" fill="white" transform="translate(1156 31)"/>
</clipPath>
<clipPath id="clip1_174_398">
<rect width="26" height="14" fill="white" transform="translate(1254 12)"/>
</clipPath>
<clipPath id="clip2_174_398">
<rect width="26" height="14" fill="white" transform="translate(0 34.3281) rotate(-7.35375)"/>
</clipPath>
<clipPath id="clip3_174_398">
<rect width="45" height="30" fill="white" transform="translate(916 19)"/>
</clipPath>
<clipPath id="clip4_174_398">
<rect width="43" height="33" fill="white" transform="translate(317 14)"/>
</clipPath>
</defs>
</svg>
