<svg width="110" height="53" viewBox="0 0 110 53" fill="none" xmlns="http://www.w3.org/2000/svg">
<g clip-path="url(#clip0_3133_10275)">
<path d="M60.2773 19.561C53.8573 19.561 48.6328 24.7628 48.6328 31.155C48.6328 37.5472 53.8573 42.749 60.2773 42.749C66.6973 42.749 71.9218 37.5472 71.9218 31.155C71.9218 24.7628 66.6973 19.561 60.2773 19.561ZM60.2773 38.1796C56.3854 38.1796 53.2159 35.03 53.2159 31.1488C53.2159 27.2676 56.3854 24.118 60.2773 24.118C64.1692 24.118 67.3387 27.2738 67.3387 31.1488C67.3387 35.0238 64.1692 38.1796 60.2773 38.1796Z" fill="#1E95D4"/>
<path d="M60.2783 10.0998C53.5033 10.0998 47.4631 13.2618 43.5588 18.1846V15.6364H38.9757V20.088C38.2035 19.7966 37.3691 19.6416 36.4911 19.6416C35.6131 19.6416 34.7849 19.8028 34.0128 20.088V15.6364H29.4297V31.2108H34.0128V26.6724C34.0128 25.3084 35.1274 24.2048 36.4911 24.2048C37.8548 24.2048 38.9757 25.3146 38.9757 26.6724V31.2108C38.9757 31.2418 38.9757 31.279 38.9757 31.31H43.5588C43.5588 22.134 51.0561 14.663 60.2783 14.663C69.5005 14.663 76.9978 22.1278 76.9978 31.31V39.6428H81.5808V31.8618C81.5808 28.5262 84.3083 25.8168 87.6522 25.8168V21.2536C84.8189 21.2536 82.2409 22.3634 80.3354 24.1614C77.3838 15.9712 69.5067 10.0998 60.2783 10.0998Z" fill="#1E95D4"/>
<path d="M60.2778 7.98561C62.4946 7.98561 64.288 6.2 64.288 3.9928C64.288 1.7856 62.4946 0 60.2778 0C58.061 0 56.2676 1.7856 56.2676 3.9928C56.2676 6.2 58.061 7.98561 60.2778 7.98561Z" fill="#1E95D4"/>
<path d="M105.416 38.0928H109.999C109.999 28.8052 102.415 21.2536 93.0867 21.2536H91.3867V25.8168H93.0867C99.8866 25.8168 105.416 31.3224 105.416 38.0928Z" fill="#1E95D4"/>
<path d="M26.4084 31.2108V23.3368C26.4084 19.0836 22.9337 15.624 18.662 15.624C16.5323 15.624 14.6082 16.4796 13.2071 17.8684C11.806 16.4796 9.87566 15.624 7.75225 15.624C3.48053 15.624 0.00585938 19.0836 0.00585938 23.3368V31.2108H4.58893V23.3368C4.58893 21.6008 6.00869 20.1872 7.75225 20.1872C9.49581 20.1872 10.9156 21.6008 10.9156 23.3368V31.2108H15.4986V23.3368C15.4986 21.6008 16.9184 20.1872 18.662 20.1872C20.4055 20.1872 21.8253 21.6008 21.8253 23.3368V31.2108H26.4084Z" fill="#1E95D4"/>
<path d="M96.3311 34.4658H91.748V52.638H109.999V48.0686H96.3311V34.4658Z" fill="#1E95D4"/>
<path d="M25.3125 34.4658V52.638H43.5638V34.4658H25.3125ZM38.9808 48.0748H29.9018V39.0352H38.9808V48.0748Z" fill="#1E95D4"/>
</g>
<defs>
<clipPath id="clip0_3133_10275">
<rect width="110" height="52.638" fill="white"/>
</clipPath>
</defs>
</svg>
