<svg width="284" height="243" viewBox="0 0 284 243" fill="none" xmlns="http://www.w3.org/2000/svg">
<path d="M230.334 25.7452C188.59 -6.2714 112.308 9.86392 79.3852 21.9337C1.85987 47.8521 -0.75012 92.4464 4.84161 130.56C10.4334 168.675 101.743 243 157.655 243C213.566 243 265.739 218.225 275.061 180.11C284.382 141.995 272.079 57.7616 230.334 25.7452Z" fill="#EC7B56"/>
<path d="M201.805 5.7902C153.405 -14.0097 83.8161 21.6919 55.071 42.0176C-13.2468 87.469 -4.50187 131.105 10.5268 166.333C25.5555 201.562 132.51 249.005 186.502 234.227C240.496 219.449 284.62 181.8 283.993 142.629C283.366 103.459 250.205 25.5902 201.805 5.7902Z" fill="#EC7B56" fill-opacity="0.3"/>
</svg>
