<svg width="25" height="23" viewBox="0 0 25 23" fill="none" xmlns="http://www.w3.org/2000/svg">
<path d="M23.8771 0.728407C23.517 0.429935 23.0949 0.215577 22.6415 0.100965C22.1881 -0.0136475 21.7149 -0.0256244 21.2562 0.0659074L16.9625 1.10757C16.0025 1.28224 15.1342 1.78833 14.509 2.53759C13.8839 3.28686 13.5415 4.23176 13.5417 5.20757V20.6242L12.5 20.8128L11.4583 20.6242V5.20757C11.4621 4.24142 11.1283 3.3043 10.5145 2.55815C9.90077 1.812 9.04562 1.3037 8.09687 1.12112L3.68333 0.0502824C3.23309 -0.0314761 2.77039 -0.0133559 2.32792 0.103363C1.88545 0.220082 1.47402 0.43255 1.12269 0.725755C0.77136 1.01896 0.488711 1.38575 0.294715 1.80019C0.100719 2.21464 0.000111193 2.66664 0 3.12424L0 20.6597L12.5 22.9336L25 20.6597V3.12424C25 2.66697 24.8995 2.21529 24.7054 1.80125C24.5113 1.3872 24.2285 1.02093 23.8771 0.728407Z" fill="#1E95D4"/>
</svg>
