<svg width="25" height="31" viewBox="0 0 25 31" fill="none" xmlns="http://www.w3.org/2000/svg">
<path d="M19.9744 11.7247L13.7459 10.2292V3.22662C13.7537 2.47404 13.4966 1.74269 13.0195 1.16064C12.5423 0.578584 11.8757 0.182927 11.1362 0.0429531C10.6881 -0.0320921 10.2291 -0.00859314 9.79112 0.111814C9.3531 0.232221 8.94658 0.446644 8.59987 0.740155C8.25315 1.03367 7.97457 1.39921 7.78352 1.81135C7.59246 2.22349 7.49352 2.67231 7.49358 3.12658V21.2582C7.49358 21.5899 7.36184 21.9079 7.12733 22.1424C6.89283 22.3769 6.57477 22.5087 6.24313 22.5087C5.91148 22.5087 5.59342 22.3769 5.35892 22.1424C5.12441 21.9079 4.99267 21.5899 4.99267 21.2582V12.0799L1.50514 16.6315C0.482254 17.8287 -0.0534553 19.3665 0.00421614 20.9401C0.0618876 22.5136 0.708729 24.0081 1.8165 25.1271L4.8176 28.1595C5.99521 29.3411 7.59354 30.0071 9.26173 30.0114H18.7477C20.4059 30.0114 21.9962 29.3527 23.1687 28.1802C24.3413 27.0076 25 25.4174 25 23.7591V17.8557C25.0001 16.4104 24.4994 15.0097 23.5831 13.8919C22.6669 12.7741 21.3916 12.0083 19.9744 11.7247Z" fill="#1E95D4"/>
</svg>
