<svg width="35" height="35" viewBox="0 0 35 35" fill="none" xmlns="http://www.w3.org/2000/svg">
<path d="M17.0098 0.0351562C26.415 0.0353708 34.0547 6.89268 34.0547 15.3242C34.0545 23.7556 26.4149 30.6131 17.0098 30.6133C15.8567 30.6133 14.7392 30.5429 13.6582 30.333L13.5137 30.2627L7.06348 34.916C6.7752 35.1259 6.37893 34.9162 6.37891 34.5664V27.2197C2.70325 24.5258 1.91737e-05 23.7207 0 15.2891C0 6.85752 7.63972 0.000214187 17.0449 0L17.0098 0.0351562ZM11.7305 9.10156C8.74514 9.10178 5.55176 11.679 5.55176 15.2666C5.5518 18.8542 8.29395 21.4315 11.7305 21.4316C15.167 21.4316 16.9377 19.551 17.4932 16.6602H15.1328C14.7161 18.1578 13.3272 19.1328 11.7305 19.1328C10.1337 19.1326 7.87799 17.4957 7.87793 15.2666C7.87793 13.0374 9.40482 11.3654 11.7305 11.3652C14.0563 11.3652 14.7861 12.3411 15.168 13.9434H17.5283C16.9729 11.0174 14.7159 9.10156 11.7305 9.10156ZM19.4697 21.1182H21.6562V16.5557C21.6562 15.1624 22.5245 14.4658 23.5312 14.4658C24.5377 14.466 25.1973 15.0577 25.1973 16.207V21.1533H27.3838V15.9629C27.3837 14.8484 27.1062 14.0127 26.4814 13.3857V13.3164C25.8913 12.6894 25.3707 12.375 24.1904 12.375C23.0102 12.375 22.177 12.7585 21.6562 13.5596V9.03125H19.4697V21.1182Z" fill="white" fill-opacity="0.9"/>
</svg>
