<svg width="141" height="50" viewBox="0 0 141 50" fill="none" xmlns="http://www.w3.org/2000/svg">
<path d="M30.5464 11.0458C36.0323 14.0112 39.6401 19.1017 40.9251 24.7359C41.3699 24.0934 41.8147 23.4509 42.1607 22.8084C46.2133 15.2962 43.3962 5.90586 35.884 1.8532C28.3718 -2.19945 18.9815 0.617639 14.9288 8.12987C14.6817 8.6241 14.4346 9.11833 14.1875 9.66197C19.4263 7.88276 25.357 8.22871 30.5958 11.0458H30.5464Z" fill="#915B41"/>
<path d="M40.9306 24.6866C35.9883 31.7046 24.8682 38.772 17.9491 35.0653C10.8816 31.2598 10.7828 17.5697 14.1435 9.66211C9.30012 11.2931 5.0992 14.6538 2.4798 19.4478C-2.95668 29.53 0.848857 42.0833 10.9311 47.5198C21.0133 52.9563 33.5666 49.1508 39.0031 39.0685C41.4742 34.4722 42.0179 29.3817 40.9306 24.6371V24.6866Z" fill="#1FBDFF"/>
<path d="M17.949 35.0654C24.8187 38.7721 35.9882 31.7047 40.9305 24.6867C39.6455 19.0525 36.0376 13.962 30.5517 10.9966C25.3129 8.17953 19.3822 7.88301 14.1434 9.6128C10.8321 17.5204 10.931 31.2105 17.949 35.016V35.0654Z" fill="#F2B819"/>
<path d="M58.1794 18.2227H57.2969V30.4459H82.3612V18.2227H58.1794ZM60.8712 27.1364V21.5322H78.7869V27.1364H60.8712Z" fill="black"/>
<path d="M79.6668 2.73633H78.7843V3.61887V8.517H76.5338V3.61887V2.73633H75.6512H73.842H72.9595V3.61887V15.7098L70.356 3.44236L70.2236 2.73633H69.5175H67.0023H66.2963L66.1639 3.44236L64.9283 9.70844L63.6927 3.44236L63.5604 2.73633H62.8102H60.2949H59.633L59.4565 3.44236L56.7206 16.5482L56.5 17.5631H57.5591H59.4124H60.1184L60.2508 16.9012L61.6188 9.62018L63.1632 16.9012L63.2956 17.5631H64.0016H65.855H66.561L66.6934 16.9012L68.2379 9.62018L69.6058 16.9012L69.7382 17.5631H70.4442H72.2976H72.9595V18.1368H73.842H75.6512H76.5338V17.2542V11.8265H78.7843V17.2542V18.1368H79.6668H81.476H82.3586V17.2542V3.61887V2.73633H81.476H79.6668Z" fill="black"/>
<path d="M102.97 8.25002H103.808V7.4116V5.82302V4.94047H102.97H96.1302V2.73411V1.85156H95.2918H93.4384H92.6V2.73411V4.94047H85.7603H84.9219V5.82302V7.4116V8.25002H85.7603H102.97Z" fill="black"/>
<path d="M109.676 13.6786V3.66174V2.77919H108.793H106.94H106.102V3.66174V29.6086V30.4911H106.94H108.793H109.676V29.6086V16.9882H112.765H113.647V16.1498V14.5612V13.6786H112.765H109.676Z" fill="black"/>
<path d="M138.89 27.137H126.711V14.649V13.8105H125.828H124.019H123.136V14.649V27.137H114.62H113.781V28.0195V29.6081V30.4907H114.62H138.89H139.772V29.6081V28.0195V27.137H138.89Z" fill="black"/>
<path d="M135.838 6.04587C135.749 8.07573 135.573 10.1497 135.308 12.3561C134.999 14.8713 134.602 17.519 134.117 20.2107L133.94 21.2257H137.603L137.735 20.5196C138 19.1517 138.22 17.8279 138.397 16.4599C138.618 15.1361 138.794 13.724 138.926 12.3561C139.103 10.9881 139.191 9.53193 139.324 8.11985C139.412 6.70778 139.5 5.20746 139.588 3.61887V2.73633H138.706H113.906V6.04587H135.838Z" fill="black"/>
<path d="M99.5254 10.5025C97.1425 9.13454 94.3625 8.7374 91.6708 9.48756C89.0231 10.1936 86.7726 11.9146 85.4047 14.2974C83.4631 17.6511 82.8012 23.1229 83.8161 26.962C84.4339 29.2125 85.6253 30.9334 87.258 31.8601C89.685 33.228 92.9505 32.9633 96.4806 31.0217C99.3489 29.4331 101.997 27.0061 103.365 24.6232C104.732 22.2403 105.13 19.4603 104.379 16.7686C103.673 14.0768 101.952 11.8704 99.5696 10.5025H99.5254ZM100.32 22.9023C99.2607 24.7115 97.0984 26.6972 94.7597 27.9769C92.3768 29.3007 90.2146 29.6096 88.9349 28.8594C87.9199 28.2858 87.3904 27.0061 87.1257 26.0353C86.2431 22.7257 87.0815 18.2689 88.3612 16.0184C89.2879 14.4298 90.7441 13.2825 92.5533 12.7971C94.3184 12.3117 96.1718 12.5765 97.8045 13.459C99.393 14.3857 100.54 15.8419 101.026 17.6511C101.511 19.4162 101.246 21.2695 100.32 22.9023Z" fill="black"/>
<path d="M66.7759 42.5285H56.4844V41.2421H60.8177V40.7004C60.1406 40.565 59.6666 40.2942 59.2604 39.8879C58.8541 39.4817 58.7187 39.0077 58.7187 38.4661C58.7187 37.9244 58.8541 37.5859 59.125 37.2473C59.3958 36.9088 59.7343 36.638 60.1406 36.4348C60.6145 36.2317 61.0885 36.164 61.6979 36.164C62.3072 36.164 62.7812 36.2317 63.2551 36.4348C63.7291 36.638 64.0676 36.9088 64.2707 37.2473C64.5416 37.5859 64.677 37.9921 64.677 38.4661C64.677 38.94 64.4739 39.4817 64.1353 39.8879C63.7291 40.2942 63.2551 40.565 62.578 40.7004V41.2421H66.9113V42.5285H66.7759ZM65.9634 46.591V47.8774H57.5V44.7629H64.1353V44.2889H57.5V43.0025H65.7603V45.9816H59.125V46.5232H65.9634V46.591ZM62.578 39.2109C62.8489 39.0077 62.9843 38.7369 62.9843 38.3984C62.9843 38.0598 62.8489 37.789 62.578 37.5859C62.3072 37.3828 62.0364 37.2473 61.6301 37.2473C61.2239 37.2473 60.8854 37.3828 60.6822 37.5859C60.4114 37.789 60.3437 38.0598 60.3437 38.3984C60.3437 38.7369 60.4791 39.0077 60.6822 39.2109C60.9531 39.414 61.2239 39.5494 61.6301 39.5494C62.0364 39.5494 62.3749 39.414 62.578 39.2109Z" fill="#545454"/>
<path d="M78.4947 40.9036V42.3255H68.2031V40.9036H71.927V39.2109H73.6197V40.9036H78.4947ZM77.2759 36.3672V40.2265H75.5832V37.8568H69.151V36.4349H77.2759V36.3672ZM77.8176 46.3879V47.8098H69.151V43.0025H77.5468V44.4244H70.8437V46.3202H77.8176V46.3879Z" fill="#545454"/>
<path d="M90.2134 41.9204V43.3422H79.9219V41.9204H90.2134ZM89.5363 46.3214V47.7432H80.8698V44.0193H82.5625V46.2537H89.5363V46.3214ZM83.4427 41.0402C82.9687 40.8371 82.6302 40.4985 82.3593 40.0923C82.0885 39.686 81.9531 39.2121 81.9531 38.7381C81.9531 38.2642 82.0885 37.7902 82.3593 37.384C82.6302 36.9777 82.9687 36.7069 83.4427 36.4361C83.9166 36.233 84.4583 36.0975 85.0676 36.0975C85.677 36.0975 86.151 36.233 86.6249 36.4361C87.0989 36.6392 87.5051 36.9777 87.7759 37.384C88.0468 37.7902 88.1822 38.2642 88.1822 38.7381C88.1822 39.2121 88.0468 39.686 87.7759 40.0923C87.5051 40.4985 87.1666 40.8371 86.6249 41.0402C86.151 41.2433 85.6093 41.3787 85.0676 41.3787C84.526 41.3787 83.9166 41.2433 83.4427 41.0402ZM86.0833 39.6183C86.3541 39.4152 86.4895 39.0767 86.4895 38.7381C86.4895 38.3996 86.3541 38.1288 86.0833 37.8579C85.8124 37.6548 85.4739 37.5194 85.0676 37.5194C84.6614 37.5194 84.3229 37.6548 84.052 37.8579C83.7812 38.0611 83.6458 38.3996 83.6458 38.7381C83.6458 39.0767 83.7812 39.3475 84.052 39.6183C84.3229 39.8215 84.6614 39.9569 85.0676 39.9569C85.4739 39.9569 85.8124 39.8215 86.0833 39.6183Z" fill="#545454"/>
<path d="M104.565 41.0377V42.4595H94.2734V41.0377H98.065V39.0741H99.7577V41.0377H104.565ZM103.346 36.4335V40.2929H101.654V37.8554H95.289V36.4335H103.346ZM97.7265 47.8084C97.2525 47.6053 96.8463 47.2667 96.5755 46.8605C96.3047 46.4542 96.1692 45.9803 96.1692 45.5063C96.1692 45.0324 96.3047 44.5584 96.5755 44.1522C96.8463 43.7459 97.2525 43.4074 97.7265 43.2043C98.2005 43.0012 98.7421 42.8658 99.4192 42.8658C100.096 42.8658 100.57 43.0012 101.112 43.2043C101.586 43.4074 101.992 43.7459 102.263 44.1522C102.534 44.5584 102.669 44.9647 102.669 45.5063C102.669 46.048 102.534 46.4542 102.263 46.8605C101.992 47.2667 101.586 47.6053 101.112 47.8084C100.638 48.0115 100.096 48.1469 99.4192 48.1469C98.7421 48.1469 98.2682 48.0115 97.7265 47.8084ZM100.503 46.4543C100.773 46.2511 100.909 45.9126 100.909 45.574C100.909 45.2355 100.773 44.897 100.503 44.6939C100.232 44.4907 99.8254 44.3553 99.4192 44.3553C99.0129 44.3553 98.6067 44.4907 98.3359 44.6939C98.0651 44.897 97.9296 45.2355 97.9296 45.574C97.9296 45.9126 98.0651 46.2511 98.3359 46.4543C98.6067 46.6574 99.0129 46.7928 99.4192 46.7928C99.8254 46.7928 100.232 46.6574 100.503 46.4543Z" fill="#545454"/>
<path d="M111.94 44.2895V47.878H110.247V44.2895H105.914V42.8677H116.206V44.2895H111.872H111.94ZM115.258 36.2324V41.8521H106.997V36.2324H108.69V37.7219H113.565V36.2324H115.258ZM113.565 39.1438H108.69V40.3625H113.565V39.1438Z" fill="#545454"/>
<path d="M127.979 41.3098V42.7316H117.688V41.3098H127.979ZM118.5 39.2786C119.516 39.1431 120.396 38.8723 121.005 38.4661C121.615 38.0598 121.953 37.4505 121.953 36.7734V36.164H123.578V36.7734C123.578 37.4505 123.917 38.0598 124.526 38.4661C125.135 38.8723 126.016 39.1431 127.031 39.2786V40.7004C126.083 40.6327 125.203 40.3619 124.458 40.0233C123.713 39.6848 123.104 39.2108 122.766 38.7369C122.359 39.2786 121.818 39.6848 121.073 40.0233C120.328 40.3619 119.448 40.6327 118.5 40.7004V39.2786ZM127.031 43.341V47.742H118.635V43.341H120.328V44.2212H125.406V43.341H127.099H127.031ZM125.338 45.6431H120.26V46.3878H125.338V45.6431Z" fill="#545454"/>
<path d="M129.078 42.0546C129.958 42.0546 130.635 42.0546 131.042 42.0546V39.6848H132.734V41.9869C134.224 41.9192 135.375 41.7837 136.323 41.5806V43.0025C135.578 43.1379 134.698 43.2733 133.547 43.4087C132.396 43.4764 131.245 43.5441 129.958 43.5441H129.078V42.1223V42.0546ZM135.51 36.7057V40.7004H133.818V38.1275H129.552V36.7057H135.51ZM138.76 46.2524V47.6743H130.297V44.3566H131.99V46.2524H138.76ZM138.625 40.8358V44.5597H136.932V36.164H138.625V39.414H140.25V40.8358H138.625Z" fill="#545454"/>
<path d="M66.7759 42.5285H56.4844V41.2421H60.8177V40.7004C60.1406 40.565 59.6666 40.2942 59.2604 39.8879C58.8541 39.4817 58.7187 39.0077 58.7187 38.4661C58.7187 37.9244 58.8541 37.5859 59.125 37.2473C59.3958 36.9088 59.7343 36.638 60.1406 36.4348C60.6145 36.2317 61.0885 36.164 61.6979 36.164C62.3072 36.164 62.7812 36.2317 63.2551 36.4348C63.7291 36.638 64.0676 36.9088 64.2707 37.2473C64.5416 37.5859 64.677 37.9921 64.677 38.4661C64.677 38.94 64.4739 39.4817 64.1353 39.8879C63.7291 40.2942 63.2551 40.565 62.578 40.7004V41.2421H66.9113V42.5285H66.7759ZM65.9634 46.591V47.8774H57.5V44.7629H64.1353V44.2889H57.5V43.0025H65.7603V45.9816H59.125V46.5232H65.9634V46.591ZM62.578 39.2109C62.8489 39.0077 62.9843 38.7369 62.9843 38.3984C62.9843 38.0598 62.8489 37.789 62.578 37.5859C62.3072 37.3828 62.0364 37.2473 61.6301 37.2473C61.2239 37.2473 60.8854 37.3828 60.6822 37.5859C60.4114 37.789 60.3437 38.0598 60.3437 38.3984C60.3437 38.7369 60.4791 39.0077 60.6822 39.2109C60.9531 39.414 61.2239 39.5494 61.6301 39.5494C62.0364 39.5494 62.3749 39.414 62.578 39.2109Z" fill="black"/>
<path d="M78.4947 40.9036V42.3255H68.2031V40.9036H71.927V39.2109H73.6197V40.9036H78.4947ZM77.2759 36.3672V40.2265H75.5832V37.8568H69.151V36.4349H77.2759V36.3672ZM77.8176 46.3879V47.8098H69.151V43.0025H77.5468V44.4244H70.8437V46.3202H77.8176V46.3879Z" fill="black"/>
<path d="M90.2134 41.9204V43.3422H79.9219V41.9204H90.2134ZM89.5363 46.3214V47.7432H80.8698V44.0193H82.5625V46.2537H89.5363V46.3214ZM83.4427 41.0402C82.9687 40.8371 82.6302 40.4985 82.3593 40.0923C82.0885 39.686 81.9531 39.2121 81.9531 38.7381C81.9531 38.2642 82.0885 37.7902 82.3593 37.384C82.6302 36.9777 82.9687 36.7069 83.4427 36.4361C83.9166 36.233 84.4583 36.0975 85.0676 36.0975C85.677 36.0975 86.151 36.233 86.6249 36.4361C87.0989 36.6392 87.5051 36.9777 87.7759 37.384C88.0468 37.7902 88.1822 38.2642 88.1822 38.7381C88.1822 39.2121 88.0468 39.686 87.7759 40.0923C87.5051 40.4985 87.1666 40.8371 86.6249 41.0402C86.151 41.2433 85.6093 41.3787 85.0676 41.3787C84.526 41.3787 83.9166 41.2433 83.4427 41.0402ZM86.0833 39.6183C86.3541 39.4152 86.4895 39.0767 86.4895 38.7381C86.4895 38.3996 86.3541 38.1288 86.0833 37.8579C85.8124 37.6548 85.4739 37.5194 85.0676 37.5194C84.6614 37.5194 84.3229 37.6548 84.052 37.8579C83.7812 38.0611 83.6458 38.3996 83.6458 38.7381C83.6458 39.0767 83.7812 39.3475 84.052 39.6183C84.3229 39.8215 84.6614 39.9569 85.0676 39.9569C85.4739 39.9569 85.8124 39.8215 86.0833 39.6183Z" fill="black"/>
<path d="M104.565 41.0377V42.4595H94.2734V41.0377H98.065V39.0741H99.7577V41.0377H104.565ZM103.346 36.4335V40.2929H101.654V37.8554H95.289V36.4335H103.346ZM97.7265 47.8084C97.2525 47.6053 96.8463 47.2667 96.5755 46.8605C96.3047 46.4542 96.1692 45.9803 96.1692 45.5063C96.1692 45.0324 96.3047 44.5584 96.5755 44.1522C96.8463 43.7459 97.2525 43.4074 97.7265 43.2043C98.2005 43.0012 98.7421 42.8658 99.4192 42.8658C100.096 42.8658 100.57 43.0012 101.112 43.2043C101.586 43.4074 101.992 43.7459 102.263 44.1522C102.534 44.5584 102.669 44.9647 102.669 45.5063C102.669 46.048 102.534 46.4542 102.263 46.8605C101.992 47.2667 101.586 47.6053 101.112 47.8084C100.638 48.0115 100.096 48.1469 99.4192 48.1469C98.7421 48.1469 98.2682 48.0115 97.7265 47.8084ZM100.503 46.4543C100.773 46.2511 100.909 45.9126 100.909 45.574C100.909 45.2355 100.773 44.897 100.503 44.6939C100.232 44.4907 99.8254 44.3553 99.4192 44.3553C99.0129 44.3553 98.6067 44.4907 98.3359 44.6939C98.0651 44.897 97.9296 45.2355 97.9296 45.574C97.9296 45.9126 98.0651 46.2511 98.3359 46.4543C98.6067 46.6574 99.0129 46.7928 99.4192 46.7928C99.8254 46.7928 100.232 46.6574 100.503 46.4543Z" fill="black"/>
<path d="M111.94 44.2895V47.878H110.247V44.2895H105.914V42.8677H116.206V44.2895H111.872H111.94ZM115.258 36.2324V41.8521H106.997V36.2324H108.69V37.7219H113.565V36.2324H115.258ZM113.565 39.1438H108.69V40.3625H113.565V39.1438Z" fill="black"/>
<path d="M127.979 41.3098V42.7316H117.688V41.3098H127.979ZM118.5 39.2786C119.516 39.1431 120.396 38.8723 121.005 38.4661C121.615 38.0598 121.953 37.4505 121.953 36.7734V36.164H123.578V36.7734C123.578 37.4505 123.917 38.0598 124.526 38.4661C125.135 38.8723 126.016 39.1431 127.031 39.2786V40.7004C126.083 40.6327 125.203 40.3619 124.458 40.0233C123.713 39.6848 123.104 39.2108 122.766 38.7369C122.359 39.2786 121.818 39.6848 121.073 40.0233C120.328 40.3619 119.448 40.6327 118.5 40.7004V39.2786ZM127.031 43.341V47.742H118.635V43.341H120.328V44.2212H125.406V43.341H127.099H127.031ZM125.338 45.6431H120.26V46.3878H125.338V45.6431Z" fill="black"/>
<path d="M129.078 42.0546C129.958 42.0546 130.635 42.0546 131.042 42.0546V39.6848H132.734V41.9869C134.224 41.9192 135.375 41.7837 136.323 41.5806V43.0025C135.578 43.1379 134.698 43.2733 133.547 43.4087C132.396 43.4764 131.245 43.5441 129.958 43.5441H129.078V42.1223V42.0546ZM135.51 36.7057V40.7004H133.818V38.1275H129.552V36.7057H135.51ZM138.76 46.2524V47.6743H130.297V44.3566H131.99V46.2524H138.76ZM138.625 40.8358V44.5597H136.932V36.164H138.625V39.414H140.25V40.8358H138.625Z" fill="black"/>
</svg>
