<svg width="284" height="243" viewBox="0 0 284 243" fill="none" xmlns="http://www.w3.org/2000/svg">
<path d="M198.883 15.5917C105.668 -25.9222 53.3988 25.2014 38.9163 55.9524C39.5676 54.671 34.9498 64.4086 11.2676 113.61C-12.4145 162.812 6.6665 195.613 19.1673 205.864C38.258 221.879 94.2138 249.299 165.31 230.849C236.407 212.398 269.98 168.065 277.879 148.205C290.387 121.298 292.099 57.1055 198.883 15.5917Z" fill="#EEAC0D"/>
<path d="M173.682 5.81149C73.0724 -13.8457 34.1363 47.3018 27.2445 80.333C27.5784 78.9454 25.365 89.4122 13.8411 142.375C2.31718 195.336 28.6215 222.935 43.2142 230.113C65.5846 241.428 126.566 255.652 191.529 222.034C256.493 188.417 278.801 137.99 281.835 116.979C287.705 88.1139 274.292 25.4686 173.682 5.81149Z" fill="#EEAC0D" fill-opacity="0.3"/>
</svg>
